;TYPE=PLATED
;Layer: PTH_Through
;EasyEDA Pro Client v2.2.45.4, 2026-01-02 03:19:06
;Gerber Generator version 0.3
M48
METRIC,LZ,0000.00000
;Hole size 1 = 0.30480 METRIC
T01C0.30480
;Hole size 2 = 0.30500 METRIC
T02C0.30500
;Hole size 3 = 0.60000 METRIC
T03C0.60000
;Hole size 4 = 0.91440 METRIC
T04C0.91440
;Hole size 5 = 1.04999 METRIC
T05C1.04999
%
G05
G90
T01
X14.91389Y18.86828
X14.20679Y18.16118
X16.32775Y17.45407
X15.62082Y16.74715
X15.621Y19.57539
X17.03521Y18.16118
X15.621Y18.16118
X16.32739Y18.86828
X14.91389Y17.45407
T02
X15.52998Y21.93502
X15.4553Y23.495
X13.65218Y22.16321
X14.351Y20.447
X13.01648Y22.60515
X12.655Y23.71702
X13.081Y19.177
X11.47985Y20.26817
X12.446Y18.669
X10.74842Y19.31921
X10.668Y17.907
X10.51481Y15.977
X11.72707Y15.62251
X12.24359Y15.06141
X13.27757Y17.02953
X13.97Y16.256
X12.06559Y13.58761
X14.605Y15.621
X13.65086Y14.097
X15.24Y14.859
X18.161Y13.081
X16.129Y15.113
X17.78Y14.097
X17.018Y15.875
X18.669Y14.859
X17.526Y16.51
X19.304Y15.748
X18.288Y17.272
X20.066Y15.748
X18.923Y18.034
X20.49375Y17.09825
X20.447Y18.161
X20.701Y19.558
X18.47045Y18.78609
X20.193Y20.193
X19.431Y20.32
X17.97237Y19.36563
X17.29477Y19.96177
X18.542Y21.209
X16.764Y20.574
X18.593Y22.98621
X16.129Y21.209
X17.36079Y22.93089
X16.16055Y24.03536
X4.699Y12.954
X13.68178Y9.61778
X9.779Y3.556
X20.701Y9.398
X24.765Y12.954
X18.16197Y25.39903
X8.509Y12.827
X8.509Y7.366
X20.955Y16.129
X26.924Y14.681
X22.8602Y24.5743
X18.085Y26.67
X20.955Y49.784
X16.84Y26.76432
X15.875Y26.619
X17.526Y27.432
X22.606Y49.911
X18.923Y47.244
X19.812Y46.228
X20.32Y38.481
X12.776Y25.781
X5.461Y18.415
X9.46554Y16.75996
X22.784Y36.4615
X25.1335Y36.9695
X18.9879Y7.239
X17.5881Y4.064
X17.5881Y0.762
X12.065Y1.651
X10.287Y0.605
X7.1755Y41.7195
X8.255Y47.498
X2.794Y42.926
X2.794Y38.989
X3.683Y40.132
X2.921Y37.719
X8.52878Y20.40132
X9.525Y10.541
X9.906Y12.573
X11.94183Y20.88382
X9.144Y33.401
X5.1717Y29.337
X3.91729Y32.58513
X8.89Y27.051
X23.114Y17.78
X8.509Y2.159
X16.383Y9.906
X17.272Y13.335
X6.75218Y33.655
X6.5281Y29.04497
X9.525Y49.911
X20.193Y47.371
X4.318Y25.146
X7.29011Y28.90679
X20.574Y42.037
X11.43Y33.655
X5.588Y21.209
X3.429Y18.034
X18.796Y32.766
X13.208Y32.385
X3.302Y23.749
X9.525Y25.781
X5.25308Y34.036
X14.046Y29.591
X10.795Y35.306
X24.86005Y30.25795
X25.527Y27.432
X9.017Y30.353
X3.683Y28.194
X12.192Y28.11269
X11.176Y10.033
X6.096Y2.286
X7.112Y9.398
X12.319Y22.225
X8.001Y23.876
X11.43Y45.339
X8.255Y46.609
X12.7Y34.544
X8.763Y31.75
X7.33619Y32.67096
X13.97Y23.44931
X4.572Y15.367
X25.98608Y24.52599
X25.146Y20.828
X7.61221Y18.77847
X7.9625Y16.4788
X11.684Y46.99
X21.79438Y13.3689
X22.86Y11.684
X18.53721Y24.21788
X21.463Y23.241
X11.049Y16.764
T03
X13.20991Y53.02636G85X13.20991Y53.82636
X13.20991Y48.69628G85X13.20991Y49.79628
X4.5701Y48.69628G85X4.5701Y49.79628
X4.5701Y53.02636G85X4.5701Y53.82636
X25.40191Y53.02636G85X25.40191Y53.82636
X25.40191Y48.69628G85X25.40191Y49.79628
X16.76209Y48.69628G85X16.76209Y49.79628
X16.76209Y53.02636G85X16.76209Y53.82636
T04
X23.368Y32.258
T05
X28.575Y1.397
X28.575Y3.937
X28.575Y6.477
X28.575Y9.017
X28.575Y11.557
X28.575Y14.097
X28.575Y16.637
X28.575Y19.177
X28.575Y21.717
X28.575Y24.257
X28.575Y26.797
X28.575Y29.337
X28.575Y31.877
X28.575Y34.417
X28.575Y36.957
X28.575Y39.497
X28.575Y42.037
X28.575Y44.577
X28.575Y47.117
X28.575Y49.657
X28.575Y52.197
X28.575Y54.737
X1.397Y54.737
X1.397Y52.197
X1.397Y49.657
X1.397Y47.117
X1.397Y44.577
X1.397Y42.037
X1.397Y39.497
X1.397Y36.957
X1.397Y34.417
X1.397Y31.877
X1.397Y29.337
X1.397Y26.797
X1.397Y24.257
X1.397Y21.717
X1.397Y19.177
X1.397Y16.637
X1.397Y14.097
X1.397Y11.557
X1.397Y9.017
X1.397Y6.477
X1.397Y3.937
X1.397Y1.397
M30