G04 Layer: TopSilkscreenLayer*
G04 EasyEDA Pro v2.2.45.4, 2026-01-02 03:19:05*
G04 Gerber Generator version 0.3*
G04 Scale: 100 percent, Rotated: No, Reflected: No*
G04 Dimensions in millimeters*
G04 Leading zeros omitted, absolute positions, 4 integers and 5 decimals*
G04 Generated by one-click*
%FSLAX45Y45*%
%MOMM*%
%ADD10C,0.1524*%
%ADD11C,0.254*%
%ADD12C,0.154*%
%ADD13C,0.15199*%
%ADD14C,0.15001*%
%ADD15C,0.2*%
%ADD16C,0.3074*%
%ADD17C,0.3*%
G75*


G04 Image Start*
G36*
G01X1901226Y170364D02*
G01X1901226Y81816D01*
G01X1898289Y76200D01*
G01X1894405Y80697D01*
G01X1894335Y169779D01*
G01X1886732Y175944D01*
G01X1657449Y175944D01*
G01X1648563Y172454D01*
G01X1648563Y101770D01*
G01X1643969Y101770D01*
G01X1643969Y169779D01*
G01X1636367Y175944D01*
G01X1496434Y175944D01*
G01X1474079Y170117D01*
G01X1472759Y92498D01*
G01X1471700Y172454D01*
G01X1462814Y175944D01*
G01X1240858Y175837D01*
G01X1232905Y171405D01*
G01X1231582Y92498D01*
G01X1230522Y172032D01*
G01X1218821Y175944D01*
G01X1071247Y175944D01*
G01X1062846Y170364D01*
G01X1062523Y90812D01*
G01X1059013Y84227D01*
G01X1055955Y95448D01*
G01X1055955Y171109D01*
G01X1051200Y177630D01*
G01X838895Y178438D01*
G01X1048989Y179350D01*
G01X1056249Y187482D01*
G01X1054807Y294793D01*
G01X1048903Y302379D01*
G01X840044Y302379D01*
G01X840044Y307436D01*
G01X1050585Y307436D01*
G01X1056099Y315022D01*
G01X1055324Y381820D01*
G01X1232819Y381820D01*
G01X1239830Y359632D01*
G01X1248880Y348738D01*
G01X1248897Y342838D01*
G01X1253917Y342838D01*
G01X1284023Y320741D01*
G01X1279285Y317264D01*
G01X1265658Y322436D01*
G01X1251261Y334471D01*
G01X1248399Y342838D01*
G01X1232819Y342838D01*
G01X1232819Y310926D01*
G01X1241705Y307436D01*
G01X1280936Y307436D01*
G01X1287853Y317253D01*
G01X1298281Y315486D01*
G01X1318954Y308312D01*
G01X1385565Y308306D01*
G01X1412969Y315865D01*
G01X1418133Y315865D01*
G01X1423366Y307436D01*
G01X1423366Y307436D01*
G01X1462814Y307436D01*
G01X1471700Y310926D01*
G01X1471700Y344300D01*
G01X1459067Y345366D01*
G01X1459777Y356546D01*
G01X1466648Y362224D01*
G01X1471700Y386471D01*
G01X1471538Y406055D01*
G01X1465564Y426284D01*
G01X1449949Y446504D01*
G01X1429200Y461686D01*
G01X1419899Y466907D01*
G01X1410738Y470738D01*
G01X1650860Y470738D01*
G01X1650860Y329806D01*
G01X1660381Y320922D01*
G01X1655764Y320922D01*
G01X1652848Y314179D01*
G01X1655764Y307436D01*
G01X1664289Y307436D01*
G01X1677938Y315865D01*
G01X1690136Y315865D01*
G01X1702541Y311266D01*
G01X1702541Y311266D01*
G01X1747988Y306938D01*
G01X1824278Y308959D01*
G01X1849545Y314443D01*
G01X1864897Y316270D01*
G01X1877108Y309698D01*
G01X1886725Y307890D01*
G01X1891880Y313948D01*
G01X1883416Y321621D01*
G01X1892463Y330601D01*
G01X1890889Y474163D01*
G01X1885712Y477961D01*
G01X1875281Y467209D01*
G01X1871997Y471801D01*
G01X1869264Y482464D01*
G01X1879795Y487529D01*
G01X1889741Y507549D01*
G01X1889741Y529910D01*
G01X1878634Y558039D01*
G01X1863446Y574634D01*
G01X1841521Y590798D01*
G01X1801309Y604628D01*
G01X1739292Y604754D01*
G01X1707135Y593375D01*
G01X1683427Y578006D01*
G01X1664642Y560665D01*
G01X1664642Y558719D01*
G01X1652436Y539232D01*
G01X1652009Y502145D01*
G01X1664642Y482351D01*
G01X1664642Y479387D01*
G01X1655340Y479387D01*
G01X1650860Y470738D01*
G01X1410738Y470738D01*
G01X1394753Y477424D01*
G01X1359344Y482758D01*
G01X1345860Y482758D01*
G01X1309766Y477310D01*
G01X1289094Y468596D01*
G01X1266124Y456161D01*
G01X1251937Y444828D01*
G01X1239150Y428355D01*
G01X1232983Y409426D01*
G01X1232819Y381820D01*
G01X1055324Y381820D01*
G01X1054182Y480230D01*
G01X1054128Y485287D01*
G01X1056133Y599511D01*
G01X1055955Y599655D01*
G01X1062846Y599655D01*
G01X1062872Y495402D01*
G01X1067759Y482484D01*
G01X1067759Y482484D01*
G01X1063373Y473250D01*
G01X1069853Y461940D01*
G01X1075468Y466061D01*
G01X1075807Y483204D01*
G01X1088112Y489783D01*
G01X1088112Y494112D01*
G01X1109082Y517063D01*
G01X1115623Y526347D01*
G01X1148879Y552719D01*
G01X1171950Y567363D01*
G01X1210998Y586395D01*
G01X1222701Y590199D01*
G01X1230950Y599438D01*
G01X1230859Y599505D01*
G01X1231960Y599505D01*
G01X1242406Y597072D01*
G01X1259162Y599379D01*
G01X1258569Y599620D01*
G01X1450383Y599620D01*
G01X1458294Y597392D01*
G01X1458294Y597392D01*
G01X1469132Y597392D01*
G01X1470834Y599414D01*
G01X1472848Y599414D01*
G01X1478262Y599078D01*
G01X1478262Y599078D01*
G01X1484675Y594372D01*
G01X1489859Y600464D01*
G01X1484333Y601884D01*
G01X1472848Y599414D01*
G01X1470834Y599414D01*
G01X1471828Y600595D01*
G01X1462814Y604135D01*
G01X1458796Y604135D01*
G01X1450383Y599620D01*
G01X1258569Y599620D01*
G01X1247749Y604016D01*
G01X1240588Y604135D01*
G01X1231960Y599505D01*
G01X1231960Y599505D01*
G01X1230859Y599505D01*
G01X1226298Y602853D01*
G01X1206404Y605674D01*
G01X1070449Y605821D01*
G01X1062846Y599655D01*
G01X1055955Y599655D01*
G01X1048352Y605821D01*
G01X840809Y605821D01*
G01X837651Y608139D01*
G01X839277Y611721D01*
G01X1049799Y612599D01*
G01X1055955Y616349D01*
G01X1055955Y725354D01*
G01X1062846Y725354D01*
G01X1062846Y616610D01*
G01X1068359Y612564D01*
G01X1068359Y612564D01*
G01X1221636Y612564D01*
G01X1230522Y616055D01*
G01X1230522Y727776D01*
G01X1232819Y727776D01*
G01X1232819Y616055D01*
G01X1241705Y612564D01*
G01X1466187Y612564D01*
G01X1471700Y616610D01*
G01X1471700Y616734D01*
G01X1473997Y616734D01*
G01X1498114Y612456D01*
G01X1511054Y623522D01*
G01X1517334Y634357D01*
G01X1542320Y658924D01*
G01X1589992Y692909D01*
G01X1612961Y704343D01*
G01X1634765Y712321D01*
G01X1643969Y720910D01*
G01X1643969Y723945D01*
G01X1648563Y723945D01*
G01X1656603Y720863D01*
G01X1679572Y725364D01*
G01X1683017Y725512D01*
G01X1683017Y733941D01*
G01X1859881Y733941D01*
G01X1859881Y725577D01*
G01X1872514Y723499D01*
G01X1872514Y723499D01*
G01X1887143Y720788D01*
G01X1894242Y726545D01*
G01X1887184Y733941D01*
G01X1859881Y733941D01*
G01X1683017Y733941D01*
G01X1653319Y733941D01*
G01X1648563Y727420D01*
G01X1648563Y723945D01*
G01X1648563Y723945D01*
G01X1643969Y723945D01*
G01X1643969Y726448D01*
G01X1636818Y733941D01*
G01X1492134Y733941D01*
G01X1474032Y726355D01*
G01X1473997Y616734D01*
G01X1473997Y616734D01*
G01X1471700Y616734D01*
G01X1471700Y729895D01*
G01X1466187Y733941D01*
G01X1240422Y733941D01*
G01X1232819Y727776D01*
G01X1232819Y727776D01*
G01X1230522Y727776D01*
G01X1230522Y728361D01*
G01X1222121Y733941D01*
G01X1068177Y733941D01*
G01X1062846Y725354D01*
G01X1055955Y725354D01*
G01X1055955Y727420D01*
G01X1051200Y733941D01*
G01X838895Y734749D01*
G01X1049741Y735661D01*
G01X1055809Y741527D01*
G01X1055955Y792668D01*
G01X1058734Y797982D01*
G01X1062846Y796117D01*
G01X1062846Y743120D01*
G01X1069997Y735627D01*
G01X1220312Y735627D01*
G01X1230522Y740876D01*
G01X1231545Y795473D01*
G01X1232940Y741694D01*
G01X1240422Y735627D01*
G01X1463931Y735627D01*
G01X1472848Y740577D01*
G01X1479739Y740664D01*
G01X1492897Y735627D01*
G01X1636818Y735627D01*
G01X1643969Y743120D01*
G01X1644513Y787044D01*
G01X1648020Y776929D01*
G01X1648563Y742149D01*
G01X1653137Y735877D01*
G01X1887180Y735891D01*
G01X1893186Y741194D01*
G01X1895483Y821612D01*
G01X1900077Y821612D01*
G01X1902374Y741194D01*
G01X1909016Y735329D01*
G01X2072347Y735966D01*
G01X2301657Y735627D01*
G01X2299314Y733907D01*
G01X1906309Y733821D01*
G01X1900705Y723892D01*
G01X1903497Y716241D01*
G01X1927640Y704719D01*
G01X1945996Y696011D01*
G01X1971671Y681865D01*
G01X2000143Y659526D01*
G01X2011292Y646564D01*
G01X2015960Y644446D01*
G01X2032865Y621836D01*
G01X2043975Y612962D01*
G01X2299556Y612392D01*
G01X2305435Y608811D01*
G01X2302917Y605821D01*
G01X2087609Y605821D01*
G01X2051675Y602310D01*
G01X2046057Y600905D01*
G01X2065406Y576320D01*
G01X2068696Y483601D01*
G01X2068266Y480230D01*
G01X2066604Y313336D01*
G01X2071029Y308279D01*
G01X2302040Y306593D01*
G01X2302040Y303222D01*
G01X2076941Y301536D01*
G01X2069417Y298792D01*
G01X2066605Y288471D01*
G01X2066605Y184614D01*
G01X2073824Y179316D01*
G01X2302040Y178549D01*
G01X2067753Y176407D01*
G01X1909996Y176189D01*
G01X1901226Y170364D01*
G37*
G36*
G01X1427682Y319237D02*
G01X1423081Y319237D01*
G01X1424972Y323451D01*
G01X1434949Y324529D01*
G01X1434949Y321283D01*
G01X1427682Y319237D01*
G37*
G36*
G01X1441568Y332723D02*
G01X1444086Y329733D01*
G01X1437246Y325567D01*
G01X1437246Y332723D01*
G01X1441568Y332723D01*
G37*
G36*
G01X1450866Y332723D02*
G01X1446433Y332723D01*
G01X1446433Y340953D01*
G01X1451428Y343218D01*
G01X1456047Y339828D01*
G01X1450866Y332723D01*
G37*
G36*
G01X1809620Y430499D02*
G01X1803606Y430113D01*
G01X1736995Y429423D01*
G01X1731279Y430852D01*
G01X1733821Y433870D01*
G01X1806780Y433870D01*
G01X1809620Y430499D01*
G37*
G36*
G01X1723149Y440350D02*
G01X1715976Y437404D01*
G01X1705683Y439379D01*
G01X1710244Y442727D01*
G01X1723149Y440350D01*
G37*
G36*
G01X1835634Y440432D02*
G01X1829512Y437655D01*
G01X1820309Y439422D01*
G01X1828003Y442582D01*
G01X1835634Y440432D01*
G37*
G36*
G01X1688760Y447748D02*
G01X1696799Y449290D01*
G01X1704838Y447748D01*
G01X1688760Y447748D01*
G37*
G36*
G01X1854139Y447748D02*
G01X1838060Y447748D01*
G01X1846099Y449290D01*
G01X1854139Y447748D01*
G37*
G36*
G01X1681486Y457472D02*
G01X1678423Y455224D01*
G01X1678423Y459719D01*
G01X1681486Y457472D01*
G37*
G36*
G01X1667301Y478544D02*
G01X1669589Y474394D01*
G01X1667472Y468429D01*
G01X1667301Y478544D01*
G37*
G36*
G01X1433800Y1243893D02*
G01X1428058Y1241166D01*
G01X1427054Y1173090D01*
G01X1424613Y1242207D01*
G01X1408534Y1248102D01*
G01X1067169Y1248108D01*
G01X1070008Y1251479D01*
G01X1416412Y1251479D01*
G01X1420573Y1257186D01*
G01X1855096Y1257186D01*
G01X1863688Y1251479D01*
G01X1863688Y1251479D01*
G01X2057201Y1251479D01*
G01X2068902Y1255392D01*
G01X2068902Y1345471D01*
G01X2062132Y1349594D01*
G01X2068902Y1359202D01*
G01X2068902Y1393086D01*
G01X2058114Y1393086D01*
G01X2050420Y1380442D01*
G01X2041392Y1368642D01*
G01X2032056Y1352659D01*
G01X2020845Y1347268D01*
G01X2018328Y1341447D01*
G01X1962094Y1299905D01*
G01X1944867Y1291490D01*
G01X1944867Y1287110D01*
G01X1931525Y1280138D01*
G01X1920750Y1280116D01*
G01X1906968Y1273287D01*
G01X1873793Y1261594D01*
G01X1865623Y1261475D01*
G01X1855096Y1257186D01*
G01X1420573Y1257186D01*
G01X1421167Y1258001D01*
G01X1420844Y1343355D01*
G01X1417228Y1350098D01*
G01X1421905Y1357684D01*
G01X1426156Y1357684D01*
G01X1423326Y1397300D01*
G01X1423152Y1414158D01*
G01X1426224Y1430173D01*
G01X1414812Y1430173D01*
G01X1412042Y1437759D01*
G01X1411979Y1458410D01*
G01X1414851Y1468946D01*
G01X1425761Y1468946D01*
G01X1425761Y1522892D01*
G01X1414877Y1522892D01*
G01X1412030Y1535535D01*
G01X1412042Y1552393D01*
G01X1414812Y1559979D01*
G01X1426366Y1559979D01*
G01X1422777Y1574308D01*
G01X1423476Y1591166D01*
G01X1426026Y1630208D01*
G01X1426019Y1630213D01*
G01X1428058Y1630213D01*
G01X1428058Y1605719D01*
G01X1440691Y1604653D01*
G01X1442184Y1595083D01*
G01X1435604Y1589480D01*
G01X1428058Y1566872D01*
G01X1428058Y1421702D01*
G01X1436812Y1398516D01*
G01X1442094Y1391273D01*
G01X1439233Y1384657D01*
G01X1428058Y1384657D01*
G01X1428058Y1357748D01*
G01X1438907Y1355750D01*
G01X1454441Y1356841D01*
G01X1460846Y1366695D01*
G01X1466949Y1360213D01*
G01X1471881Y1355998D01*
G01X1665790Y1356021D01*
G01X1679432Y1362620D01*
G01X1691057Y1360839D01*
G01X1691057Y1360839D01*
G01X1719461Y1355559D01*
G01X1782934Y1357459D01*
G01X1815091Y1364416D01*
G01X1844951Y1375023D01*
G01X1865623Y1387135D01*
G01X1888067Y1402358D01*
G01X1898762Y1414158D01*
G01X1912522Y1428404D01*
G01X1923907Y1446188D01*
G01X1928432Y1461360D01*
G01X1936270Y1490879D01*
G01X1933104Y1511934D01*
G01X1926256Y1536555D01*
G01X1912119Y1562508D01*
G01X1902374Y1571522D01*
G01X1888593Y1585526D01*
G01X1858615Y1606338D01*
G01X1842982Y1613082D01*
G01X1821982Y1622105D01*
G01X1803990Y1626568D01*
G01X2036790Y1626568D01*
G01X2050253Y1609710D01*
G01X2057916Y1597067D01*
G01X2069062Y1597067D01*
G01X2067753Y1631625D01*
G01X2050398Y1634772D01*
G01X2037938Y1631556D01*
G01X2036790Y1626568D01*
G01X2036790Y1626568D01*
G01X1803990Y1626568D01*
G01X1785773Y1631087D01*
G01X1743886Y1634006D01*
G01X1701097Y1630785D01*
G01X1692507Y1627411D01*
G01X1672555Y1627411D01*
G01X1661196Y1633311D01*
G01X1473438Y1634392D01*
G01X1460147Y1625046D01*
G01X1453319Y1632201D01*
G01X1438998Y1634510D01*
G01X1428058Y1630213D01*
G01X1426019Y1630213D01*
G01X1418166Y1634997D01*
G01X1068588Y1636724D01*
G01X1416687Y1637526D01*
G01X1421538Y1646797D01*
G01X1420209Y1746286D01*
G01X1424613Y1751316D01*
G01X1427104Y1815376D01*
G01X1428058Y1752910D01*
G01X1435209Y1745416D01*
G01X1925929Y1745416D01*
G01X1931648Y1750474D01*
G01X1944305Y1750474D01*
G01X1950024Y1745416D01*
G01X2061448Y1745416D01*
G01X2067753Y1750972D01*
G01X2070393Y1781661D01*
G01X2071199Y1752804D01*
G01X2077428Y1746551D01*
G01X2071227Y1737830D01*
G01X2071199Y1643691D01*
G01X2078801Y1637526D01*
G01X2302040Y1636716D01*
G01X2079550Y1635807D01*
G01X2071199Y1630260D01*
G01X2071199Y1597290D01*
G01X2083832Y1596224D01*
G01X2086753Y1552393D01*
G01X2086717Y1441131D01*
G01X2083832Y1382128D01*
G01X2071199Y1381061D01*
G01X2071199Y1359202D01*
G01X2077968Y1349594D01*
G01X2071199Y1345471D01*
G01X2071199Y1254969D01*
G01X2080084Y1251479D01*
G01X2289136Y1251479D01*
G01X2291975Y1248108D01*
G01X2080895Y1248108D01*
G01X2070214Y1241760D01*
G01X2058771Y1247265D01*
G01X1838060Y1246525D01*
G01X1433800Y1243893D01*
G37*
G36*
G01X1658900Y1369439D02*
G01X1669236Y1367406D01*
G01X1669236Y1364427D01*
G01X1658517Y1364427D01*
G01X1655454Y1366675D01*
G01X1655454Y1369485D01*
G01X1658900Y1369439D01*
G37*
G36*
G01X1453709Y1374337D02*
G01X1450534Y1368642D01*
G01X1447069Y1375385D01*
G01X1449415Y1379968D01*
G01X1453709Y1374337D01*
G37*
G36*
G01X1634782Y1375835D02*
G01X1646376Y1377461D01*
G01X1648834Y1374542D01*
G01X1634782Y1374542D01*
G01X1634782Y1375835D01*
G37*
G36*
G01X1628381Y1384235D02*
G01X1622368Y1381508D01*
G01X1618303Y1383352D01*
G01X1622897Y1386723D01*
G01X1628381Y1384235D01*
G37*
G36*
G01X1616629Y1391700D02*
G01X1611812Y1389515D01*
G01X1607219Y1391599D01*
G01X1607219Y1394573D01*
G01X1611292Y1396420D01*
G01X1616629Y1391700D01*
G37*
G36*
G01X1598641Y1405113D02*
G01X1603143Y1401808D01*
G01X1600010Y1398088D01*
G01X1595935Y1399937D01*
G01X1598641Y1405113D01*
G37*
G36*
G01X1586546Y1418373D02*
G01X1588322Y1418373D01*
G01X1590344Y1408258D01*
G01X1586546Y1408258D01*
G01X1586546Y1418373D01*
G37*
G36*
G01X1577041Y1430228D02*
G01X1580062Y1426640D01*
G01X1577111Y1420996D01*
G01X1572835Y1425959D01*
G01X1572765Y1428288D01*
G01X1577041Y1430228D01*
G37*
G36*
G01X1568626Y1442192D02*
G01X1565300Y1438242D01*
G01X1561581Y1442658D01*
G01X1564237Y1452931D01*
G01X1565578Y1454119D01*
G01X1568626Y1442192D01*
G37*
G36*
G01X1556363Y1522049D02*
G01X1556623Y1469789D01*
G01X1553309Y1461360D01*
G01X1550868Y1474847D01*
G01X1551564Y1520363D01*
G01X1552415Y1528792D01*
G01X1556363Y1522049D01*
G37*
G36*
G01X1565338Y1551550D02*
G01X1567375Y1543732D01*
G01X1563900Y1537221D01*
G01X1563577Y1551550D01*
G01X1565338Y1551550D01*
G37*
G36*
G01X1588352Y1573465D02*
G01X1586546Y1573465D01*
G01X1586546Y1580408D01*
G01X1590939Y1578415D01*
G01X1588352Y1573465D01*
G37*
G36*
G01X1599754Y1590683D02*
G01X1602896Y1586952D01*
G01X1600057Y1583580D01*
G01X1595734Y1583580D01*
G01X1595804Y1586109D01*
G01X1599754Y1590683D01*
G37*
G36*
G01X1614569Y1595605D02*
G01X1611495Y1591954D01*
G01X1606818Y1594075D01*
G01X1611736Y1597685D01*
G01X1614569Y1595605D01*
G37*
G36*
G01X1623221Y1606114D02*
G01X1626054Y1604034D01*
G01X1622980Y1600383D01*
G01X1618303Y1602504D01*
G01X1623221Y1606114D01*
G37*
G36*
G01X1453324Y1610752D02*
G01X1449371Y1608959D01*
G01X1447339Y1610450D01*
G01X1449229Y1622326D01*
G01X1453324Y1620469D01*
G01X1453324Y1610752D01*
G37*
G36*
G01X1634381Y1614305D02*
G01X1639866Y1611817D01*
G01X1633853Y1609090D01*
G01X1629788Y1610933D01*
G01X1634381Y1614305D01*
G37*
G36*
G01X1655733Y1622636D02*
G01X1663365Y1620486D01*
G01X1657243Y1617709D01*
G01X1648040Y1619476D01*
G01X1655733Y1622636D01*
G37*
G36*
G01X1940866Y2610074D02*
G01X1933489Y2606013D01*
G01X1932055Y2570611D01*
G01X1931086Y2608181D01*
G01X1923819Y2610227D01*
G01X1562158Y2610227D01*
G01X1554496Y2606013D01*
G01X1553061Y2570611D01*
G01X1552092Y2608181D01*
G01X1544053Y2610455D01*
G01X1417722Y2610629D01*
G01X1151278Y2611919D01*
G01X1139798Y2613874D01*
G01X1151278Y2618537D01*
G01X1413358Y2618656D01*
G01X1418870Y2622702D01*
G01X1418870Y2710730D01*
G01X1412735Y2716888D01*
G01X1414725Y2724527D01*
G01X1427951Y2725951D01*
G01X1433800Y2723227D01*
G01X1451027Y2723175D01*
G01X1451027Y2731260D01*
G01X1440691Y2744368D01*
G01X1432366Y2750991D01*
G01X1420751Y2764234D01*
G01X1418260Y2783021D01*
G01X1415013Y2787535D01*
G01X1407386Y2781937D01*
G01X1407315Y2747619D01*
G01X1403533Y2743243D01*
G01X1400495Y2824869D01*
G01X1400504Y2877425D01*
G01X1554380Y2877425D01*
G01X1554996Y2843709D01*
G01X1561229Y2818464D01*
G01X1577346Y2794204D01*
G01X1597232Y2772906D01*
G01X1617555Y2756490D01*
G01X1658229Y2736661D01*
G01X1663670Y2736661D01*
G01X1681735Y2729902D01*
G01X1720917Y2724872D01*
G01X1720917Y2724872D01*
G01X1764200Y2724861D01*
G01X1803606Y2730268D01*
G01X1846945Y2745727D01*
G01X1877413Y2764477D01*
G01X1891036Y2776278D01*
G01X1902672Y2788078D01*
G01X1923812Y2820218D01*
G01X1929514Y2842023D01*
G01X1929531Y2884168D01*
G01X1924313Y2903706D01*
G01X1917591Y2914512D01*
G01X1910380Y2926313D01*
G01X1900077Y2938565D01*
G01X1887898Y2951600D01*
G01X1861029Y2970581D01*
G01X1837988Y2981944D01*
G01X1817388Y2989210D01*
G01X1790739Y2996667D01*
G01X1753074Y2999917D01*
G01X1698305Y2997722D01*
G01X1677275Y2992562D01*
G01X1638227Y2978779D01*
G01X1622450Y2970144D01*
G01X1590706Y2945995D01*
G01X1584601Y2939598D01*
G01X1561960Y2907737D01*
G01X1554380Y2877425D01*
G01X1400504Y2877425D01*
G01X1400508Y2899340D01*
G01X1403512Y2962430D01*
G01X1406775Y2960950D01*
G01X1409023Y2935240D01*
G01X1415206Y2932436D01*
G01X1418870Y2934098D01*
G01X1418870Y2951622D01*
G01X1423349Y2963083D01*
G01X1441732Y2979084D01*
G01X1447322Y2988687D01*
G01X1453985Y2994546D01*
G01X1439450Y2999032D01*
G01X1415425Y2996760D01*
G01X1401674Y2999645D01*
G01X1194042Y2999645D01*
G01X1191525Y3002634D01*
G01X1197219Y3006103D01*
G01X1462920Y3007231D01*
G01X1477158Y3020717D01*
G01X1521169Y3052747D01*
G01X1550944Y3071622D01*
G01X1552486Y3103321D01*
G01X1552115Y3103576D01*
G01X1554389Y3103576D01*
G01X1554389Y3077585D01*
G01X1564725Y3075557D01*
G01X1577172Y3082249D01*
G01X1581333Y3082249D01*
G01X1593262Y3089135D01*
G01X1615856Y3094060D01*
G01X1621563Y3099107D01*
G01X1626742Y3099125D01*
G01X1643969Y3102637D01*
G01X1643969Y3105437D01*
G01X1839209Y3105437D01*
G01X1839209Y3102746D01*
G01X1854139Y3100466D01*
G01X1868294Y3094498D01*
G01X1885713Y3090279D01*
G01X1911562Y3080309D01*
G01X1911562Y3080309D01*
G01X1919222Y3075235D01*
G01X1929937Y3076348D01*
G01X1931290Y3102944D01*
G01X1920750Y3111298D01*
G01X1846198Y3109694D01*
G01X1839209Y3105437D01*
G01X1643969Y3105437D01*
G01X1643969Y3107175D01*
G01X1635930Y3109630D01*
G01X1565682Y3111363D01*
G01X1554389Y3103576D01*
G01X1554389Y3103576D01*
G01X1552115Y3103576D01*
G01X1541281Y3111030D01*
G01X1433800Y3109333D01*
G01X1410831Y3109381D01*
G01X1137496Y3111293D01*
G01X1153575Y3114150D01*
G01X1543629Y3114445D01*
G01X1552092Y3117769D01*
G01X1553068Y3155581D01*
G01X1554491Y3118493D01*
G01X1562158Y3114279D01*
G01X1923317Y3114279D01*
G01X1930956Y3118493D01*
G01X1932448Y3147152D01*
G01X1933383Y3117769D01*
G01X1942695Y3114111D01*
G01X2090722Y3114672D01*
G01X2099910Y3111791D01*
G01X2076941Y3108911D01*
G01X2053972Y3109275D01*
G01X1944271Y3111083D01*
G01X1933383Y3103576D01*
G01X1933383Y3077603D01*
G01X1939882Y3066186D01*
G01X1995400Y3031402D01*
G01X1995400Y3029142D01*
G01X2020068Y3009843D01*
G01X2033151Y3006192D01*
G01X2072347Y3008437D01*
G01X2091677Y3004611D01*
G01X2094306Y3001488D01*
G01X2076941Y2998105D01*
G01X2056268Y2997751D01*
G01X2036039Y2998163D01*
G01X2032687Y2994182D01*
G01X2046284Y2975211D01*
G01X2054761Y2969415D01*
G01X2058049Y2961715D01*
G01X2066605Y2953674D01*
G01X2066675Y2934742D01*
G01X2070848Y2929901D01*
G01X2077938Y2934220D01*
G01X2079238Y2970144D01*
G01X2083832Y2969301D01*
G01X2085172Y2774592D01*
G01X2082119Y2759420D01*
G01X2078412Y2766163D01*
G01X2078089Y2785027D01*
G01X2069485Y2790742D01*
G01X2066667Y2783021D01*
G01X2066537Y2771220D01*
G01X2059989Y2762791D01*
G01X2053226Y2752129D01*
G01X2045647Y2745933D01*
G01X2034448Y2733140D01*
G01X2034448Y2722691D01*
G01X2067753Y2725194D01*
G01X2072347Y2724343D01*
G01X2414590Y2723096D01*
G01X2422629Y2730292D01*
G01X2422692Y2761105D01*
G01X2425448Y2768654D01*
G01X2429520Y2766807D01*
G01X2429520Y2732957D01*
G01X2437059Y2721296D01*
G01X2431817Y2708455D01*
G01X2431817Y2622702D01*
G01X2437329Y2618656D01*
G01X2484084Y2618656D01*
G01X2489200Y2614131D01*
G01X2486177Y2611913D01*
G01X2437921Y2611913D01*
G01X2429520Y2606333D01*
G01X2429449Y2575668D01*
G01X2425574Y2571182D01*
G01X2422629Y2581990D01*
G01X2422629Y2606443D01*
G01X2416373Y2610253D01*
G01X1940866Y2610074D01*
G37*
G36*
G01X1565088Y4167944D02*
G01X1554389Y4160567D01*
G01X1553570Y4129968D01*
G01X1550944Y4163124D01*
G01X1541756Y4168083D01*
G01X1431503Y4166492D01*
G01X1410831Y4164117D01*
G01X1418941Y4170750D01*
G01X1417722Y4269791D01*
G01X1406237Y4274054D01*
G01X1066521Y4274103D01*
G01X1070885Y4277289D01*
G01X1438394Y4277811D01*
G01X1451422Y4279640D01*
G01X1453505Y4283623D01*
G01X1438394Y4302460D01*
G01X1420340Y4321726D01*
G01X1417722Y4343795D01*
G01X1412008Y4345181D01*
G01X1407386Y4336258D01*
G01X1407063Y4322148D01*
G01X1403551Y4315559D01*
G01X1400495Y4377477D01*
G01X1400505Y4446897D01*
G01X1403523Y4530211D01*
G01X1407386Y4528459D01*
G01X1407386Y4493779D01*
G01X1416006Y4488053D01*
G01X1418870Y4493532D01*
G01X1418870Y4506239D01*
G01X1423914Y4516857D01*
G01X1427996Y4516857D01*
G01X1434480Y4528246D01*
G01X1439429Y4530491D01*
G01X1455621Y4555534D01*
G01X1455621Y4558924D01*
G01X1467097Y4564443D01*
G01X1489993Y4585826D01*
G01X1510123Y4600304D01*
G01X1518909Y4605526D01*
G01X1545476Y4620248D01*
G01X1552092Y4629638D01*
G01X1552782Y4647506D01*
G01X1555538Y4632334D01*
G01X1565369Y4631305D01*
G01X1610664Y4648644D01*
G01X1631283Y4652563D01*
G01X1632819Y4658454D01*
G01X1620208Y4661973D01*
G01X1426910Y4660340D01*
G01X1413128Y4660412D01*
G01X1066291Y4662678D01*
G01X1073182Y4664966D01*
G01X2051675Y4667532D01*
G01X2067753Y4666681D01*
G01X2299639Y4665115D01*
G01X2304107Y4661835D01*
G01X2081535Y4661786D01*
G01X2070050Y4657523D01*
G01X2068825Y4566915D01*
G01X2075939Y4561146D01*
G01X2063967Y4555389D01*
G01X2035596Y4557609D01*
G01X2024948Y4549269D01*
G01X2013796Y4557454D01*
G01X1819013Y4556473D01*
G01X1810135Y4550573D01*
G01X1793430Y4550573D01*
G01X1771449Y4556411D01*
G01X1714026Y4556315D01*
G01X1672822Y4547096D01*
G01X1648667Y4538710D01*
G01X1629039Y4528974D01*
G01X1603773Y4510886D01*
G01X1586982Y4497120D01*
G01X1577310Y4483984D01*
G01X1573007Y4478927D01*
G01X1561027Y4460580D01*
G01X1553934Y4426667D01*
G01X1556665Y4391266D01*
G01X1563279Y4371036D01*
G01X1575589Y4352493D01*
G01X1583171Y4342378D01*
G01X1602003Y4323834D01*
G01X1627498Y4306976D01*
G01X1642512Y4298547D01*
G01X1663493Y4290687D01*
G01X1700244Y4280464D01*
G01X1769152Y4278867D01*
G01X1801309Y4284445D01*
G01X1818536Y4286258D01*
G01X1818536Y4282360D01*
G01X1834467Y4277475D01*
G01X2011918Y4277475D01*
G01X2025354Y4283300D01*
G01X2035596Y4278353D01*
G01X2299743Y4277217D01*
G01X2304107Y4274103D01*
G01X2081535Y4274054D01*
G01X2070050Y4269788D01*
G01X2070050Y4164252D01*
G01X2051675Y4166678D01*
G01X1565088Y4167944D01*
G37*
G36*
G01X1786379Y1887222D02*
G01X1782267Y1885356D01*
G01X1779488Y1890670D01*
G01X1779488Y1924687D01*
G01X1771886Y1930853D01*
G01X1713900Y1930853D01*
G01X1703690Y1925605D01*
G01X1702714Y1887866D01*
G01X1701339Y1924953D01*
G01X1691696Y1930853D01*
G01X1561992Y1930853D01*
G01X1554554Y1924821D01*
G01X1553068Y1887866D01*
G01X1552092Y1927069D01*
G01X1545348Y1931176D01*
G01X1415425Y1930488D01*
G01X1126394Y1930853D01*
G01X1128666Y1932520D01*
G01X1543968Y1932723D01*
G01X1552092Y1938119D01*
G01X1552076Y1965862D01*
G01X1554389Y1965862D01*
G01X1554389Y1938119D01*
G01X1562790Y1932539D01*
G01X1562790Y1932539D01*
G01X1643969Y1932539D01*
G01X1843802Y1932539D01*
G01X1923483Y1932539D01*
G01X1931086Y1938705D01*
G01X1931086Y1966255D01*
G01X1921781Y1966255D01*
G01X1874188Y1948100D01*
G01X1856436Y1944091D01*
G01X1843802Y1940559D01*
G01X1843802Y1932539D01*
G01X1843802Y1932539D01*
G01X1643969Y1932539D01*
G01X1643969Y1940837D01*
G01X1620959Y1945853D01*
G01X1608367Y1950813D01*
G01X1570404Y1963437D01*
G01X1565845Y1967469D01*
G01X1554389Y1965862D01*
G01X1552076Y1965862D01*
G01X1552075Y1967098D01*
G01X1543636Y1977255D01*
G01X1526233Y1987327D01*
G01X1479739Y2021043D01*
G01X1464231Y2035505D01*
G01X1450711Y2040636D01*
G01X1452017Y2049780D01*
G01X1444137Y2058038D01*
G01X1444137Y2061881D01*
G01X1430601Y2074988D01*
G01X1421131Y2083982D01*
G01X1418623Y2100275D01*
G01X1416243Y2111713D01*
G01X1408534Y2106064D01*
G01X1407027Y2066559D01*
G01X1403396Y2063800D01*
G01X1400004Y2176848D01*
G01X1400442Y2193395D01*
G01X1554389Y2193395D01*
G01X1555028Y2166021D01*
G01X1560430Y2140734D01*
G01X1572836Y2118112D01*
G01X1593923Y2095218D01*
G01X1622149Y2073905D01*
G01X1659382Y2055807D01*
G01X1686463Y2048623D01*
G01X1686463Y2048623D01*
G01X1695525Y2048016D01*
G01X1698552Y2058130D01*
G01X1699045Y2300884D01*
G01X1696218Y2313436D01*
G01X1687833Y2315389D01*
G01X1663050Y2306785D01*
G01X1659302Y2306785D01*
G01X1635930Y2295995D01*
G01X1608499Y2279435D01*
G01X1586376Y2259204D01*
G01X1577310Y2246939D01*
G01X1573170Y2241882D01*
G01X1561326Y2223338D01*
G01X1554389Y2193395D01*
G01X1400442Y2193395D01*
G01X1403405Y2305323D01*
G01X1407064Y2302570D01*
G01X1408534Y2254684D01*
G01X1414468Y2250339D01*
G01X1418800Y2255368D01*
G01X1418870Y2272566D01*
G01X1423785Y2282913D01*
G01X1430355Y2284764D01*
G01X1430355Y2289736D01*
G01X1438881Y2294141D01*
G01X1448665Y2308242D01*
G01X1453324Y2310355D01*
G01X1453324Y2321870D01*
G01X1467106Y2327101D01*
G01X1467106Y2330481D01*
G01X1476526Y2337580D01*
G01X1786088Y2337580D01*
G01X1790114Y2326178D01*
G01X1803606Y2323232D01*
G01X1823745Y2318134D01*
G01X1832937Y2311388D01*
G01X1824972Y2308116D01*
G01X1811379Y2310111D01*
G01X1804426Y2315214D01*
G01X1793530Y2315214D01*
G01X1786379Y2307720D01*
G01X1786670Y2056445D01*
G01X1786670Y2056445D01*
G01X1790651Y2049204D01*
G01X1795430Y2047036D01*
G01X1819685Y2054129D01*
G01X1833466Y2059565D01*
G01X1851842Y2066403D01*
G01X1900501Y2101961D01*
G01X1926171Y2140734D01*
G01X1931086Y2164981D01*
G01X1931085Y2198051D01*
G01X1924330Y2223338D01*
G01X1912984Y2243568D01*
G01X1888593Y2271144D01*
G01X1871080Y2276497D01*
G01X1872514Y2287398D01*
G01X1887576Y2290971D01*
G01X1915007Y2310894D01*
G01X1915007Y2314841D01*
G01X1930979Y2327857D01*
G01X1931086Y2379596D01*
G01X1923314Y2389252D01*
G01X1931086Y2395554D01*
G01X1931086Y2423027D01*
G01X1919760Y2428473D01*
G01X1851129Y2427319D01*
G01X1839049Y2417747D01*
G01X1815091Y2420152D01*
G01X1806029Y2424790D01*
G01X1793832Y2424790D01*
G01X1787528Y2419222D01*
G01X1786088Y2337580D01*
G01X1476526Y2337580D01*
G01X1522970Y2372581D01*
G01X1545611Y2385174D01*
G01X1552092Y2394278D01*
G01X1552092Y2422913D01*
G01X1554389Y2422913D01*
G01X1554389Y2394446D01*
G01X1562706Y2394446D01*
G01X1619954Y2415841D01*
G01X1643676Y2420017D01*
G01X1641215Y2424724D01*
G01X1624446Y2428143D01*
G01X1564599Y2428162D01*
G01X1564599Y2428162D01*
G01X1554389Y2422913D01*
G01X1552092Y2422913D01*
G01X1552092Y2423027D01*
G01X1540958Y2428381D01*
G01X1426910Y2426575D01*
G01X1413128Y2426736D01*
G01X1127160Y2428237D01*
G01X1127160Y2431533D01*
G01X1413128Y2431899D01*
G01X1542397Y2431215D01*
G01X1552092Y2435023D01*
G01X1553068Y2472835D01*
G01X1554491Y2435748D01*
G01X1562158Y2431533D01*
G01X1689692Y2431533D01*
G01X1701393Y2435446D01*
G01X1702391Y2481264D01*
G01X1703728Y2437434D01*
G01X1713386Y2431533D01*
G01X1771886Y2431533D01*
G01X1779344Y2437582D01*
G01X1780637Y2481264D01*
G01X1785231Y2481264D01*
G01X1786523Y2437582D01*
G01X1793982Y2431533D01*
G01X1923317Y2431533D01*
G01X1930984Y2435748D01*
G01X1932407Y2472835D01*
G01X1933383Y2435023D01*
G01X1941873Y2431688D01*
G01X2229113Y2431589D01*
G01X2237726Y2429005D01*
G01X2070050Y2426625D01*
G01X2056268Y2426629D01*
G01X1944420Y2428334D01*
G01X1933383Y2423027D01*
G01X1933383Y2394858D01*
G01X1939935Y2383348D01*
G01X1951846Y2378670D01*
G01X1946016Y2375954D01*
G01X1933245Y2375902D01*
G01X1934531Y2332956D01*
G01X1943144Y2331743D01*
G01X1972431Y2353047D01*
G01X1972431Y2360449D01*
G01X1966688Y2362150D01*
G01X1980470Y2362653D01*
G01X1989657Y2365371D01*
G01X1995151Y2362155D01*
G01X1990804Y2353763D01*
G01X2014924Y2332943D01*
G01X2034448Y2319021D01*
G01X2034448Y2312618D01*
G01X2047081Y2295543D01*
G01X2055968Y2285712D01*
G01X2064804Y2278364D01*
G01X2068398Y2254332D01*
G01X2071275Y2252221D01*
G01X2076941Y2256366D01*
G01X2079238Y2303436D01*
G01X2083832Y2303414D01*
G01X2085098Y2063188D01*
G01X2082548Y2055464D01*
G01X2078089Y2057487D01*
G01X2078089Y2105531D01*
G01X2071574Y2112070D01*
G01X2068228Y2109615D01*
G01X2065021Y2082840D01*
G01X2052991Y2071617D01*
G01X2046823Y2066370D01*
G01X2034448Y2050120D01*
G01X2034448Y2040516D01*
G01X2021028Y2035423D01*
G01X2010623Y2024415D01*
G01X1966688Y1991194D01*
G01X1940239Y1976153D01*
G01X1933383Y1966422D01*
G01X1933383Y1938119D01*
G01X1942316Y1932186D01*
G01X2072347Y1932945D01*
G01X2232749Y1932539D01*
G01X2230367Y1930791D01*
G01X1940806Y1930707D01*
G01X1933548Y1924821D01*
G01X1932061Y1887866D01*
G01X1931086Y1926807D01*
G01X1925573Y1930853D01*
G01X1793530Y1930853D01*
G01X1786379Y1923360D01*
G01X1786379Y1887222D01*
G37*
G36*
G01X1846317Y2252294D02*
G01X1840576Y2249690D01*
G01X1837112Y2251262D01*
G01X1839745Y2256297D01*
G01X1846317Y2252294D01*
G37*
G36*
G01X1852719Y2257897D02*
G01X1848396Y2257897D01*
G01X1848467Y2260425D01*
G01X1852416Y2265000D01*
G01X1855558Y2261268D01*
G01X1852719Y2257897D01*
G37*
G36*
G01X1867232Y2269922D02*
G01X1864157Y2266271D01*
G01X1859481Y2268392D01*
G01X1864398Y2272001D01*
G01X1867232Y2269922D01*
G37*
G36*
G01X1859594Y2295335D02*
G01X1865623Y2293565D01*
G01X1856818Y2293298D01*
G01X1859594Y2295335D01*
G37*
G36*
G01X1849209Y2302824D02*
G01X1840357Y2300463D01*
G01X1836511Y2302108D01*
G01X1840737Y2305209D01*
G01X1849209Y2302824D01*
G37*
G36*
G01X1918117Y2395542D02*
G01X1909265Y2393182D01*
G01X1905419Y2394826D01*
G01X1909645Y2397928D01*
G01X1918117Y2395542D01*
G37*
G36*
G01X1887042Y2406626D02*
G01X1900077Y2403141D01*
G01X1881931Y2402875D01*
G01X1887042Y2406626D01*
G37*
G36*
G01X1872514Y2412491D02*
G01X1863326Y2410085D01*
G01X1857275Y2411751D01*
G01X1861715Y2415010D01*
G01X1872514Y2412491D01*
G37*
G36*
G01X869904Y1301042D02*
G01X864391Y1296996D01*
G01X850380Y1297054D01*
G01X818223Y1302157D01*
G01X769987Y1306896D01*
G01X730940Y1312453D01*
G01X694189Y1320361D01*
G01X674962Y1322287D01*
G01X636765Y1331142D01*
G01X613796Y1337018D01*
G01X590827Y1342828D01*
G01X570154Y1347789D01*
G01X556373Y1352501D01*
G01X531107Y1359714D01*
G01X512731Y1364689D01*
G01X498950Y1370786D01*
G01X487465Y1373142D01*
G01X443823Y1388278D01*
G01X432339Y1392487D01*
G01X423151Y1396251D01*
G01X387319Y1409101D01*
G01X369986Y1415844D01*
G01X351946Y1425959D01*
G01X351441Y1447874D01*
G01X341940Y1468103D01*
G01X334157Y1493328D01*
G01X330749Y1516991D01*
G01X330200Y1559136D01*
G01X334406Y1596224D01*
G01X342033Y1626568D01*
G01X349084Y1651855D01*
G01X353554Y1668713D01*
G01X362499Y1688942D01*
G01X366931Y1704114D01*
G01X381617Y1734459D01*
G01X387520Y1742887D01*
G01X387549Y1747523D01*
G01X398526Y1766489D01*
G01X413217Y1795147D01*
G01X419009Y1801890D01*
G01X424967Y1815376D01*
G01X433487Y1823417D01*
G01X433487Y1827819D01*
G01X456456Y1863295D01*
G01X456456Y1866693D01*
G01X467218Y1884494D01*
G01X479069Y1909781D01*
G01X481919Y1922378D01*
G01X490809Y1936753D01*
G01X490910Y1945656D01*
G01X501967Y1977212D01*
G01X510063Y2029472D01*
G01X511877Y2101961D01*
G01X500436Y2174450D01*
G01X495741Y2183485D01*
G01X488437Y2219588D01*
G01X483729Y2226043D01*
G01X477589Y2246939D01*
G01X464931Y2278969D01*
G01X459093Y2285712D01*
G01X455875Y2299199D01*
G01X445686Y2316057D01*
G01X432917Y2341343D01*
G01X420093Y2361573D01*
G01X394096Y2400346D01*
G01X373586Y2428953D01*
G01X381519Y2433210D01*
G01X390994Y2428186D01*
G01X407072Y2423141D01*
G01X413963Y2419725D01*
G01X425448Y2416363D01*
G01X432339Y2413142D01*
G01X496007Y2389388D01*
G01X508750Y2389388D01*
G01X511520Y2396975D01*
G01X511583Y2488437D01*
G01X518691Y2492767D01*
G01X539464Y2477893D01*
G01X565395Y2454291D01*
G01X583936Y2438877D01*
G01X593074Y2430690D01*
G01X616093Y2409839D01*
G01X649582Y2378431D01*
G01X671219Y2356533D01*
G01X691892Y2334253D01*
G01X708420Y2316057D01*
G01X717158Y2306365D01*
G01X729636Y2292455D01*
G01X739150Y2280655D01*
G01X749315Y2268176D01*
G01X772091Y2238510D01*
G01X789993Y2211537D01*
G01X800636Y2194680D01*
G01X811901Y2176136D01*
G01X817673Y2162650D01*
G01X821054Y2159278D01*
G01X835072Y2127248D01*
G01X838141Y2113878D01*
G01X845209Y2103846D01*
G01X854207Y2041273D01*
G01X851269Y1982270D01*
G01X844718Y1904723D01*
G01X838077Y1886180D01*
G01X832677Y1847407D01*
G01X829099Y1842349D01*
G01X823547Y1817062D01*
G01X814870Y1795147D01*
G01X810178Y1772765D01*
G01X803420Y1763207D01*
G01X800633Y1747945D01*
G01X792040Y1727715D01*
G01X780558Y1700743D01*
G01X775566Y1683885D01*
G01X767135Y1667027D01*
G01X757679Y1645112D01*
G01X752760Y1627242D01*
G01X746245Y1617996D01*
G01X740887Y1596312D01*
G01X736805Y1590714D01*
G01X724645Y1557450D01*
G01X718591Y1535535D01*
G01X711772Y1523625D01*
G01X706472Y1495218D01*
G01X702388Y1489618D01*
G01X692533Y1444502D01*
G01X687992Y1422587D01*
G01X689892Y1356841D01*
G01X696486Y1347030D01*
G01X708472Y1340523D01*
G01X747018Y1337272D01*
G01X804441Y1332083D01*
G01X864870Y1329424D01*
G01X869904Y1327141D01*
G01X869904Y1301042D01*
G37*
G36*
G01X1560815Y4804285D02*
G01X1552285Y4792484D01*
G01X1552092Y4797276D01*
G01X1544489Y4803442D01*
G01X1414276Y4803442D01*
G01X1405089Y4796699D01*
G01X1405082Y4792484D01*
G01X1397049Y4804285D01*
G01X1344220Y4806141D01*
G01X1394246Y4806813D01*
G01X1400349Y4812714D01*
G01X1400495Y4847031D01*
G01X1393276Y4852330D01*
G01X1138343Y4852330D01*
G01X1129457Y4848839D01*
G01X1128596Y4812714D01*
G01X1125141Y4853173D01*
G01X1125367Y4858230D01*
G01X1127332Y4950948D01*
G01X1117463Y4956849D01*
G01X840044Y4956849D01*
G01X840044Y4960220D01*
G01X1118274Y4960220D01*
G01X1127160Y4963711D01*
G01X1128010Y4984664D01*
G01X1129643Y4966121D01*
G01X1137226Y4961906D01*
G01X1391609Y4961906D01*
G01X1400495Y4965396D01*
G01X1400424Y5092555D01*
G01X1398522Y5094769D01*
G01X1556187Y5094769D01*
G01X1559406Y5068954D01*
G01X1568171Y5049674D01*
G01X1568171Y5043212D01*
G01X1556686Y5037689D01*
G01X1556686Y4965396D01*
G01X1556686Y4965396D01*
G01X1566042Y4961721D01*
G01X1602435Y4962105D01*
G01X2032151Y4962105D01*
G01X2037122Y4959850D01*
G01X2072347Y4962243D01*
G01X2078089Y4965691D01*
G01X2078089Y5025444D01*
G01X2069485Y5031158D01*
G01X2066667Y5023437D01*
G01X2066605Y5005243D01*
G01X2050281Y4987193D01*
G01X2046630Y4987193D01*
G01X2038332Y4973687D01*
G01X2032151Y4969922D01*
G01X2032151Y4962105D01*
G01X2032151Y4962105D01*
G01X1602435Y4962105D01*
G01X1663493Y4962749D01*
G01X1679129Y4968649D01*
G01X1691387Y4968649D01*
G01X1713222Y4963189D01*
G01X1782934Y4964955D01*
G01X1817388Y4973196D01*
G01X1837483Y4980732D01*
G01X1867920Y4996123D01*
G01X1888593Y5011677D01*
G01X1902594Y5025123D01*
G01X1914145Y5040295D01*
G01X1926458Y5063896D01*
G01X1930472Y5092555D01*
G01X1923483Y5098455D01*
G01X1565572Y5098455D01*
G01X1556187Y5094769D01*
G01X1398522Y5094769D01*
G01X1396079Y5097612D01*
G01X1322374Y5099298D01*
G01X1322374Y5102670D01*
G01X1395215Y5104355D01*
G01X1402658Y5108902D01*
G01X1399837Y5145086D01*
G01X1403000Y5157458D01*
G01X1409700Y5157458D01*
G01X1415206Y5172567D01*
G01X1418800Y5168416D01*
G01X1418870Y5159572D01*
G01X1409747Y5144435D01*
G01X1406651Y5109762D01*
G01X1415154Y5105198D01*
G01X1544053Y5105306D01*
G01X1551304Y5109413D01*
G01X1547494Y5136385D01*
G01X1550329Y5152948D01*
G01X1564365Y5162357D01*
G01X1568171Y5160630D01*
G01X1568171Y5155666D01*
G01X1559263Y5136259D01*
G01X1556045Y5110198D01*
G01X1564289Y5103513D01*
G01X1919385Y5103513D01*
G01X1931086Y5107425D01*
G01X1931079Y5119528D01*
G01X1924316Y5147733D01*
G01X1920265Y5151558D01*
G01X1917618Y5159469D01*
G01X1920093Y5164201D01*
G01X1930975Y5164201D01*
G01X1932353Y5220675D01*
G01X1933383Y5155320D01*
G01X1938750Y5142172D01*
G01X1932945Y5109603D01*
G01X1941152Y5105198D01*
G01X2049378Y5105532D01*
G01X2074644Y5107727D01*
G01X2076032Y5123531D01*
G01X2066898Y5136672D01*
G01X2062604Y5159987D01*
G01X2066841Y5168416D01*
G01X2076931Y5174118D01*
G01X2079238Y5195388D01*
G01X2083832Y5195388D01*
G01X2085061Y5109613D01*
G01X2092583Y5103513D01*
G01X2259276Y5103513D01*
G01X2261817Y5100494D01*
G01X2254577Y5098455D01*
G01X2093381Y5098455D01*
G01X2084980Y5092875D01*
G01X2084980Y4964266D01*
G01X2090493Y4960220D01*
G01X2300620Y4960220D01*
G01X2303460Y4956849D01*
G01X2093381Y4956849D01*
G01X2084980Y4951269D01*
G01X2084980Y4906275D01*
G01X2078089Y4906275D01*
G01X2078089Y4949693D01*
G01X2071044Y4953984D01*
G01X2056268Y4954887D01*
G01X2032204Y4957274D01*
G01X2019518Y4953346D01*
G01X2005736Y4939726D01*
G01X1957202Y4905432D01*
G01X1939799Y4895739D01*
G01X1933383Y4884468D01*
G01X1933383Y4863089D01*
G01X1939612Y4856836D01*
G01X1933411Y4848115D01*
G01X1932522Y4812714D01*
G01X1929067Y4853173D01*
G01X1929003Y4858230D01*
G01X1931443Y4884230D01*
G01X1920577Y4886231D01*
G01X1877108Y4869663D01*
G01X1865623Y4867114D01*
G01X1856436Y4861015D01*
G01X1824880Y4852330D01*
G01X1565572Y4852330D01*
G01X1556686Y4848839D01*
G01X1556686Y4813335D01*
G01X1561442Y4806813D01*
G01X1589992Y4806231D01*
G01X1560815Y4804285D01*
G37*
G36*
G01X1665725Y4975129D02*
G01X1658553Y4972183D01*
G01X1648260Y4974158D01*
G01X1652821Y4977506D01*
G01X1665725Y4975129D01*
G37*
G36*
G01X1634014Y4985618D02*
G01X1642485Y4983232D01*
G01X1633633Y4980872D01*
G01X1629788Y4982516D01*
G01X1634014Y4985618D01*
G37*
G36*
G01X1628114Y4990865D02*
G01X1623297Y4988680D01*
G01X1618703Y4990764D01*
G01X1618703Y4993737D01*
G01X1622777Y4995585D01*
G01X1628114Y4990865D01*
G37*
G36*
G01X1616356Y4999376D02*
G01X1609962Y4995481D01*
G01X1607581Y4999836D01*
G01X1607219Y5002365D01*
G01X1613838Y5002365D01*
G01X1616356Y4999376D01*
G37*
G36*
G01X1604756Y5008265D02*
G01X1600678Y5003425D01*
G01X1593437Y5007835D01*
G01X1593437Y5010595D01*
G01X1598472Y5012879D01*
G01X1604756Y5008265D01*
G37*
G36*
G01X1588613Y5022689D02*
G01X1593863Y5015489D01*
G01X1589243Y5012099D01*
G01X1584249Y5014365D01*
G01X1584249Y5020710D01*
G01X1588613Y5022689D01*
G37*
G36*
G01X1580019Y5029093D02*
G01X1576865Y5023437D01*
G01X1573002Y5030181D01*
G01X1573913Y5036924D01*
G01X1578507Y5036924D01*
G01X1580019Y5029093D01*
G37*
G36*
G01X1554389Y3291209D02*
G01X1553414Y3253357D01*
G01X1552038Y3290444D01*
G01X1542745Y3296137D01*
G01X1128657Y3296369D01*
G01X1126394Y3298030D01*
G01X1409985Y3298030D01*
G01X1418870Y3301520D01*
G01X1418870Y3401875D01*
G01X1413358Y3405921D01*
G01X1068971Y3405921D01*
G01X1071087Y3407473D01*
G01X1450572Y3407914D01*
G01X1452588Y3415654D01*
G01X1444239Y3423621D01*
G01X1444137Y3427372D01*
G01X1430601Y3440479D01*
G01X1421131Y3449474D01*
G01X1418623Y3465766D01*
G01X1416243Y3477204D01*
G01X1408683Y3471656D01*
G01X1406867Y3448065D01*
G01X1403517Y3448065D01*
G01X1400495Y3509294D01*
G01X1400503Y3570285D01*
G01X1403532Y3668904D01*
G01X1407047Y3668904D01*
G01X1408534Y3620175D01*
G01X1414468Y3615830D01*
G01X1418800Y3620859D01*
G01X1418870Y3638057D01*
G01X1423914Y3648675D01*
G01X1428202Y3648675D01*
G01X1431130Y3654575D01*
G01X1442988Y3665289D01*
G01X1453324Y3677567D01*
G01X1453324Y3687520D01*
G01X1464634Y3691302D01*
G01X1476001Y3703463D01*
G01X1494666Y3718635D01*
G01X1492032Y3727825D01*
G01X1494563Y3730831D01*
G01X1513044Y3727210D01*
G01X1513044Y3719515D01*
G01X1541756Y3699322D01*
G01X1552092Y3699248D01*
G01X1552092Y3741393D01*
G01X1536014Y3741393D01*
G01X1536014Y3743476D01*
G01X1554214Y3756833D01*
G01X1563577Y3754652D01*
G01X1563577Y3752030D01*
G01X1554389Y3745928D01*
G01X1554389Y3693183D01*
G01X1572641Y3684919D01*
G01X1572968Y3676490D01*
G01X1599751Y3655418D01*
G01X1618167Y3655418D01*
G01X1620570Y3662161D01*
G01X1632214Y3662161D01*
G01X1635053Y3658789D01*
G01X1628692Y3658789D01*
G01X1619078Y3651203D01*
G01X1614988Y3639403D01*
G01X1598442Y3637717D01*
G01X1581952Y3619677D01*
G01X1581952Y3617974D01*
G01X1570468Y3607957D01*
G01X1570468Y3603024D01*
G01X1561352Y3589909D01*
G01X1554408Y3558485D01*
G01X1554389Y3535690D01*
G01X1561504Y3503240D01*
G01X1569878Y3491053D01*
G01X1573038Y3483551D01*
G01X1591194Y3463596D01*
G01X1627120Y3437051D01*
G01X1659601Y3420912D01*
G01X1677275Y3417506D01*
G01X1692684Y3412339D01*
G01X1725510Y3408910D01*
G01X1784228Y3410737D01*
G01X1819126Y3418341D01*
G01X1828107Y3409292D01*
G01X1912592Y3409292D01*
G01X1919977Y3419773D01*
G01X1933672Y3410135D01*
G01X2012242Y3409063D01*
G01X2026957Y3414879D01*
G01X2033299Y3412532D01*
G01X2043728Y3408105D01*
G01X2299655Y3407390D01*
G01X2301657Y3405921D01*
G01X2073824Y3405921D01*
G01X2066605Y3400622D01*
G01X2066605Y3314663D01*
G01X2078802Y3302926D01*
G01X2088425Y3298873D01*
G01X2302040Y3297091D01*
G01X2100944Y3296344D01*
G01X2098168Y3286159D01*
G01X2093407Y3284000D01*
G01X2083205Y3293390D01*
G01X2053972Y3295037D01*
G01X1565162Y3296390D01*
G01X1554389Y3291209D01*
G37*
G36*
G01X1070325Y944688D02*
G01X1063995Y939109D01*
G01X1061698Y902487D01*
G01X1057104Y902489D01*
G01X1054807Y940451D01*
G01X1051090Y944665D01*
G01X850380Y945472D01*
G01X1050824Y946386D01*
G01X1056393Y956255D01*
G01X1054507Y1048341D01*
G01X1050870Y1054242D01*
G01X850380Y1055048D01*
G01X1049743Y1055964D01*
G01X1055809Y1061828D01*
G01X1056018Y1075314D01*
G01X1058774Y1082862D01*
G01X1062846Y1081015D01*
G01X1062846Y1063421D01*
G01X1070022Y1055902D01*
G01X2287764Y1056010D01*
G01X2290173Y1054242D01*
G01X2074644Y1054190D01*
G01X2067753Y1050996D01*
G01X2066411Y951791D01*
G01X2073824Y946351D01*
G01X2302040Y945597D01*
G01X2065456Y943264D01*
G01X2056268Y943378D01*
G01X1070325Y944688D01*
G37*
G36*
G01X1279591Y3830790D02*
G01X1276461Y3828492D01*
G01X1276461Y3860865D01*
G01X1271579Y3870288D01*
G01X1266124Y3872833D01*
G01X1138824Y3872885D01*
G01X1129457Y3865506D01*
G01X1128651Y3836640D01*
G01X1125063Y3868670D01*
G01X1125377Y3873728D01*
G01X1127326Y3973189D01*
G01X1117463Y3979090D01*
G01X843489Y3979327D01*
G01X852677Y3982224D01*
G01X1118274Y3982461D01*
G01X1127160Y3985952D01*
G01X1128029Y4006905D01*
G01X1129683Y3987594D01*
G01X1139667Y3982461D01*
G01X1266251Y3982461D01*
G01X1276461Y3987710D01*
G01X1276461Y4007947D01*
G01X1281054Y4005863D01*
G01X1281054Y3986246D01*
G01X1287088Y3982570D01*
G01X2284879Y3982513D01*
G01X2297446Y3979933D01*
G01X2071028Y3978247D01*
G01X2066461Y3973189D01*
G01X2067401Y3870356D01*
G01X2053972Y3871674D01*
G01X1445285Y3873008D01*
G01X1416036Y3869346D01*
G01X1413434Y3871255D01*
G01X1418870Y3875245D01*
G01X1418870Y3973620D01*
G01X1411283Y3978247D01*
G01X1288188Y3979244D01*
G01X1280629Y3970776D01*
G01X1283176Y3873728D01*
G01X1283266Y3868670D01*
G01X1279591Y3830790D01*
G37*
G36*
G01X493922Y3742236D02*
G01X451512Y3711892D01*
G01X444856Y3718552D01*
G01X446120Y3962065D01*
G01X452090Y3966446D01*
G01X777700Y3967397D01*
G01X792826Y3962867D01*
G01X705673Y3897873D01*
G01X690182Y3893114D01*
G01X549482Y3893007D01*
G01X541443Y3888528D01*
G01X541120Y3781009D01*
G01X537997Y3775391D01*
G01X493922Y3742236D01*
G37*
G36*
G01X776878Y2878431D02*
G01X772026Y2874875D01*
G01X740127Y2882905D01*
G01X724049Y2888306D01*
G01X680407Y2900512D01*
G01X675813Y2903090D01*
G01X663058Y2905327D01*
G01X639062Y2913274D01*
G01X627578Y2915740D01*
G01X613254Y2922099D01*
G01X606441Y2922099D01*
G01X584841Y2930527D01*
G01X576868Y2930527D01*
G01X558670Y2937524D01*
G01X540294Y2942052D01*
G01X510434Y2950950D01*
G01X501247Y2953860D01*
G01X474146Y2962601D01*
G01X468087Y2968458D01*
G01X468028Y2993429D01*
G01X553507Y2993429D01*
G01X581639Y2986489D01*
G01X609202Y2979414D01*
G01X618390Y2976112D01*
G01X651103Y2967615D01*
G01X651103Y2967615D01*
G01X660987Y2967615D01*
G01X659735Y3029146D01*
G01X649252Y3030238D01*
G01X629573Y3023246D01*
G01X622754Y3023246D01*
G01X618390Y3020063D01*
G01X583936Y3009453D01*
G01X562417Y3004514D01*
G01X553507Y2993429D01*
G01X468028Y2993429D01*
G01X467967Y3019032D01*
G01X472751Y3031675D01*
G01X477975Y3031675D01*
G01X498950Y3038782D01*
G01X524216Y3047279D01*
G01X551779Y3056536D01*
G01X586233Y3067264D01*
G01X604608Y3073608D01*
G01X627578Y3080926D01*
G01X650547Y3088627D01*
G01X694189Y3102758D01*
G01X704363Y3107536D01*
G01X710201Y3107536D01*
G01X733237Y3115700D01*
G01X758503Y3124011D01*
G01X773113Y3126296D01*
G01X778027Y3119558D01*
G01X777976Y3081406D01*
G01X775227Y3069209D01*
G01X740127Y3057358D01*
G01X727055Y3055131D01*
G01X713713Y3044410D01*
G01X713713Y2957720D01*
G01X717918Y2949601D01*
G01X743543Y2940696D01*
G01X764379Y2936846D01*
G01X778458Y2927193D01*
G01X776878Y2878431D01*
G37*
G36*
G01X778027Y3204789D02*
G01X778027Y3162589D01*
G01X770424Y3156424D01*
G01X474190Y3156424D01*
G01X468087Y3162324D01*
G01X468485Y3196040D01*
G01X471387Y3205967D01*
G01X524216Y3239467D01*
G01X556211Y3260100D01*
G01X575897Y3274233D01*
G01X575897Y3280519D01*
G01X545201Y3300559D01*
G01X503543Y3327712D01*
G01X471386Y3347413D01*
G01X468485Y3356190D01*
G01X467941Y3388904D01*
G01X473272Y3397492D01*
G01X772695Y3397492D01*
G01X778027Y3388904D01*
G01X778027Y3347331D01*
G01X770436Y3342703D01*
G01X597734Y3341704D01*
G01X593877Y3338873D01*
G01X616093Y3322311D01*
G01X662032Y3292644D01*
G01X679259Y3281131D01*
G01X679259Y3272712D01*
G01X666626Y3263252D01*
G01X618390Y3233062D01*
G01X603472Y3223306D01*
G01X594635Y3212313D01*
G01X601539Y3210369D01*
G01X769626Y3210369D01*
G01X778027Y3204789D01*
G37*
G36*
G01X768356Y3442165D02*
G01X474461Y3442165D01*
G01X467542Y3448908D01*
G01X468532Y3506225D01*
G01X525404Y3506225D01*
G01X529675Y3498908D01*
G01X529675Y3498908D01*
G01X554076Y3496709D01*
G01X713489Y3497796D01*
G01X719455Y3502185D01*
G01X719455Y3550056D01*
G01X706756Y3577185D01*
G01X684243Y3594508D01*
G01X655141Y3605687D01*
G01X588530Y3605687D01*
G01X561535Y3595572D01*
G01X539366Y3577380D01*
G01X526843Y3555113D01*
G01X525404Y3506225D01*
G01X468532Y3506225D01*
G01X469610Y3568600D01*
G01X479426Y3590111D01*
G01X479426Y3594255D01*
G01X493705Y3614116D01*
G01X509586Y3631877D01*
G01X536023Y3648025D01*
G01X576346Y3662483D01*
G01X609202Y3665918D01*
G01X664618Y3663949D01*
G01X689595Y3655950D01*
G01X701080Y3652067D01*
G01X716861Y3645392D01*
G01X737113Y3630974D01*
G01X752406Y3613614D01*
G01X764600Y3594696D01*
G01X776080Y3558485D01*
G01X778615Y3448908D01*
G01X768356Y3442165D01*
G37*
G36*
G01X793396Y3705149D02*
G01X659107Y3705149D01*
G01X571773Y3769209D01*
G01X571303Y3771093D01*
G01X577818Y3777638D01*
G01X694978Y3778734D01*
G01X698783Y3784381D01*
G01X701080Y3873451D01*
G01X706694Y3874820D01*
G01X787854Y3816411D01*
G01X800996Y3803262D01*
G01X800996Y3709776D01*
G01X793396Y3705149D01*
G37*
G36*
G01X819470Y2691145D02*
G01X824703Y2682716D01*
G01X819470Y2674287D01*
G01X425810Y2674287D01*
G01X417409Y2679867D01*
G01X417409Y2683342D01*
G01X427397Y2691145D01*
G01X819470Y2691145D01*
G37*
G36*
G01X2032151Y3687448D02*
G01X2032151Y3680599D01*
G01X2024936Y3678567D01*
G01X2006884Y3691504D01*
G01X2006884Y3699248D01*
G01X1999994Y3699248D01*
G01X2000285Y3711892D01*
G01X2004389Y3704407D01*
G01X2027617Y3687448D01*
G01X2032151Y3687448D01*
G37*
G36*
G01X1695650Y3681028D02*
G01X1677147Y3680705D01*
G01X1669281Y3673961D01*
G01X1655454Y3673961D01*
G01X1655454Y3680789D01*
G01X1669236Y3682812D01*
G01X1669236Y3685221D01*
G01X1680936Y3689134D01*
G01X1700244Y3689115D01*
G01X1718620Y3685154D01*
G01X1695650Y3681028D01*
G37*
G36*
G01X1805460Y3689134D02*
G01X1829483Y3680792D01*
G01X1832174Y3675647D01*
G01X1814434Y3675647D01*
G01X1811790Y3680705D01*
G01X1799542Y3680705D01*
G01X1769665Y3684745D01*
G01X1785231Y3688877D01*
G01X1805460Y3689134D01*
G37*
G36*
G01X2060862Y4518134D02*
G01X2067110Y4510957D01*
G01X2061834Y4496628D01*
G01X2057786Y4496628D01*
G01X2049985Y4513866D01*
G01X2043664Y4522757D01*
G01X2043635Y4530145D01*
G01X2048065Y4532154D01*
G01X2060862Y4518134D01*
G37*
G36*
G01X2052823Y4306546D02*
G01X2046379Y4302621D01*
G01X2043998Y4306976D01*
G01X2043635Y4309229D01*
G01X2046424Y4314562D01*
G01X2052823Y4314562D01*
G01X2052849Y4323834D01*
G01X2057799Y4336919D01*
G01X2065220Y4331473D01*
G01X2064759Y4319521D01*
G01X2059151Y4314562D01*
G01X2052823Y4314562D01*
G01X2052823Y4306546D01*
G37*
G36*
G01X2063782Y3447223D02*
G01X2050671Y3438794D01*
G01X2046223Y3430365D01*
G01X2045932Y3444495D01*
G01X2050225Y3446442D01*
G01X2057864Y3465729D01*
G01X2066431Y3457964D01*
G01X2063782Y3447223D01*
G37*
G36*
G01X2075767Y4475555D02*
G01X2075792Y4455127D01*
G01X2069276Y4448587D01*
G01X2066128Y4458697D01*
G01X2062896Y4468730D01*
G01X2065716Y4482298D01*
G01X2070735Y4488857D01*
G01X2075767Y4475555D01*
G37*
G36*
G01X2075792Y3503477D02*
G01X2075792Y3487342D01*
G01X2070628Y3476468D01*
G01X2066112Y3479783D01*
G01X2062942Y3491053D01*
G01X2065998Y3504539D01*
G01X2070725Y3512968D01*
G01X2075792Y3503477D01*
G37*
G36*
G01X2085290Y3533198D02*
G01X2082261Y3514957D01*
G01X2078077Y3519712D01*
G01X2078729Y3570285D01*
G01X2082392Y3577028D01*
G01X2082752Y3568600D01*
G01X2085290Y3533198D01*
G37*
G36*
G01X2075792Y4373787D02*
G01X2075792Y4357210D01*
G01X2070751Y4346596D01*
G01X2066677Y4348444D01*
G01X2062731Y4359236D01*
G01X2065029Y4372513D01*
G01X2070784Y4380655D01*
G01X2075792Y4373787D01*
G37*
G36*
G01X2075792Y3585289D02*
G01X2070235Y3581210D01*
G01X2064471Y3588829D01*
G01X2064471Y3610744D01*
G01X2070512Y3618742D01*
G01X2075792Y3603351D01*
G01X2075792Y3585289D01*
G37*
G36*
G01X1890656Y3439746D02*
G01X1888057Y3437839D01*
G01X1869069Y3440067D01*
G01X1869139Y3448908D01*
G01X1872514Y3452280D01*
G01X1888290Y3456436D01*
G01X1889335Y3455652D01*
G01X1890656Y3439746D01*
G37*
G36*
G01X2084754Y4411495D02*
G01X2081771Y4382837D01*
G01X2078649Y4392952D01*
G01X2078597Y4444399D01*
G01X2082683Y4446253D01*
G01X2082782Y4436782D01*
G01X2084754Y4411495D01*
G37*
G36*
G01X1776043Y5244084D02*
G01X1742737Y5241543D01*
G01X1709432Y5244084D01*
G01X1727807Y5246611D01*
G01X1757668Y5246611D01*
G01X1776043Y5244084D01*
G37*
G36*
G01X2064308Y3644890D02*
G01X2064308Y3630544D01*
G01X2057606Y3626462D01*
G01X2055299Y3634345D01*
G01X2053356Y3641089D01*
G01X2052823Y3646790D01*
G01X2057618Y3648965D01*
G01X2064308Y3644890D01*
G37*
G36*
G01X2064595Y5187291D02*
G01X2057724Y5182248D01*
G01X2053237Y5193702D01*
G01X2052823Y5200928D01*
G01X2059378Y5202774D01*
G01X2065002Y5197800D01*
G01X2064595Y5187291D01*
G37*
G36*
G01X1933703Y4451438D02*
G01X1933258Y4383026D01*
G01X1931086Y4381432D01*
G01X1931086Y4453359D01*
G01X1933703Y4451438D01*
G37*
G36*
G01X1707135Y3794124D02*
G01X1742737Y3796618D01*
G01X1778340Y3794124D01*
G01X1707135Y3794124D01*
G37*
G36*
G01X1438394Y2040907D02*
G01X1423105Y2038418D01*
G01X1406555Y2040697D01*
G01X1413128Y2043750D01*
G01X1429206Y2043564D01*
G01X1438394Y2040907D01*
G37*
G36*
G01X2080998Y2040796D02*
G01X2066246Y2038418D01*
G01X2049696Y2040697D01*
G01X2056268Y2043750D01*
G01X2074644Y2043750D01*
G01X2080998Y2040796D01*
G37*
G36*
G01X1694956Y5235442D02*
G01X1678698Y5233204D01*
G01X1665958Y5235551D01*
G01X1674978Y5238139D01*
G01X1688760Y5238324D01*
G01X1694956Y5235442D01*
G37*
G36*
G01X2052823Y5202974D02*
G01X2046315Y5202974D01*
G01X2043998Y5207189D01*
G01X2043635Y5214213D01*
G01X2046658Y5216431D01*
G01X2052823Y5212676D01*
G01X2052823Y5202974D01*
G37*
G36*
G01X2053635Y3650394D02*
G01X2050724Y3648258D01*
G01X2044369Y3650048D01*
G01X2046614Y3661275D01*
G01X2053635Y3650394D01*
G37*
G36*
G01X1640327Y3625098D02*
G01X1634976Y3621171D01*
G01X1627891Y3625486D01*
G01X1627891Y3628246D01*
G01X1632926Y3630530D01*
G01X1640327Y3625098D01*
G37*
G36*
G01X1651812Y3616669D02*
G01X1646461Y3612742D01*
G01X1639376Y3617057D01*
G01X1639376Y3619817D01*
G01X1644410Y3622101D01*
G01X1651812Y3616669D01*
G37*
G36*
G01X2111198Y3279510D02*
G01X2105847Y3275583D01*
G01X2098762Y3279899D01*
G01X2098762Y3282659D01*
G01X2103796Y3284943D01*
G01X2111198Y3279510D01*
G37*
G36*
G01X1628843Y3633527D02*
G01X1623492Y3629599D01*
G01X1616406Y3633915D01*
G01X1616406Y3636675D01*
G01X1621441Y3638959D01*
G01X1628843Y3633527D01*
G37*
G36*
G01X1663296Y3608240D02*
G01X1657946Y3604313D01*
G01X1650860Y3608628D01*
G01X1650860Y3611388D01*
G01X1655895Y3613672D01*
G01X1663296Y3608240D01*
G37*
G36*
G01X1932074Y3585457D02*
G01X1933528Y3545841D01*
G01X1932074Y3506225D01*
G01X1932074Y3585457D01*
G37*
G36*
G01X1938830Y3751251D02*
G01X1932482Y3748372D01*
G01X1924195Y3751627D01*
G01X1924195Y3754486D01*
G01X1933214Y3756217D01*
G01X1938830Y3751251D01*
G37*
G36*
G01X1898658Y3766680D02*
G01X1885913Y3766680D01*
G01X1882755Y3768998D01*
G01X1884400Y3772580D01*
G01X1897780Y3771398D01*
G01X1901301Y3769819D01*
G01X1898658Y3766680D01*
G37*
G36*
G01X1674978Y3599665D02*
G01X1668241Y3596608D01*
G01X1662345Y3600199D01*
G01X1662345Y3602959D01*
G01X1667380Y3605243D01*
G01X1674978Y3599665D01*
G37*
G36*
G01X1814331Y5235472D02*
G01X1805650Y5233806D01*
G01X1791020Y5235382D01*
G01X1793541Y5238376D01*
G01X1808200Y5238324D01*
G01X1814331Y5235472D01*
G37*
G36*
G01X1836794Y4544758D02*
G01X1830823Y4542306D01*
G01X1820154Y4544353D01*
G01X1828226Y4548686D01*
G01X1836794Y4544758D01*
G37*
G36*
G01X2121788Y3272296D02*
G01X2116528Y3267644D01*
G01X2110246Y3271470D01*
G01X2110246Y3274230D01*
G01X2115041Y3276405D01*
G01X2121788Y3272296D01*
G37*
G36*
G01X1920395Y3760349D02*
G01X1910454Y3758033D01*
G01X1905820Y3760136D01*
G01X1905820Y3763109D01*
G01X1909323Y3764698D01*
G01X1920395Y3760349D01*
G37*
G36*
G01X1771631Y5346119D02*
G01X1811820Y5346700D01*
G01X1814708Y5344581D01*
G01X1769535Y5344581D01*
G01X1771631Y5346119D01*
G37*
G36*
G01X1442272Y5212897D02*
G01X1439227Y5203993D01*
G01X1435019Y5208875D01*
G01X1435019Y5212246D01*
G01X1438968Y5216821D01*
G01X1442272Y5212897D01*
G37*
G36*
G01X1924627Y3493390D02*
G01X1921582Y3484486D01*
G01X1917375Y3489367D01*
G01X1917375Y3492739D01*
G01X1921324Y3497313D01*
G01X1924627Y3493390D01*
G37*
G36*
G01X2039474Y3425959D02*
G01X2036429Y3417054D01*
G01X2032221Y3421936D01*
G01X2032221Y3425307D01*
G01X2036170Y3429882D01*
G01X2039474Y3425959D01*
G37*
G36*
G01X1954055Y3741393D02*
G01X1943336Y3741393D01*
G01X1940273Y3743641D01*
G01X1940273Y3748136D01*
G01X1942354Y3748136D01*
G01X1954055Y3744224D01*
G01X1954055Y3741393D01*
G37*
G36*
G01X1663365Y5228080D02*
G01X1657644Y5225485D01*
G01X1642821Y5227128D01*
G01X1656603Y5229931D01*
G01X1663365Y5228080D01*
G37*
G36*
G01X1617426Y5329227D02*
G01X1611706Y5326632D01*
G01X1596882Y5328275D01*
G01X1610664Y5331078D01*
G01X1617426Y5329227D01*
G37*
G36*
G01X1602625Y5191736D02*
G01X1599879Y5189720D01*
G01X1593437Y5191534D01*
G01X1593437Y5193081D01*
G01X1598192Y5199603D01*
G01X1602625Y5199603D01*
G01X1602625Y5191736D01*
G37*
G36*
G01X1981618Y3719478D02*
G01X1990806Y3719478D01*
G01X1990515Y3710206D01*
G01X1986360Y3717792D01*
G01X1981618Y3717792D01*
G01X1981618Y3719478D01*
G37*
G36*
G01X1970134Y3727907D02*
G01X1979321Y3727907D01*
G01X1979030Y3718635D01*
G01X1974875Y3726221D01*
G01X1970134Y3726221D01*
G01X1970134Y3727907D01*
G37*
G36*
G01X1628181Y5210814D02*
G01X1620964Y5207849D01*
G01X1616183Y5210018D01*
G01X1621610Y5214816D01*
G01X1628181Y5210814D01*
G37*
G36*
G01X1467959Y3751251D02*
G01X1461583Y3748359D01*
G01X1457918Y3750021D01*
G01X1457918Y3756565D01*
G01X1461949Y3756565D01*
G01X1467959Y3751251D01*
G37*
G36*
G01X1647415Y5337142D02*
G01X1633633Y5335067D01*
G01X1629788Y5336532D01*
G01X1634117Y5339710D01*
G01X1647415Y5337142D01*
G37*
G36*
G01X1913202Y3475038D02*
G01X1910446Y3469767D01*
G01X1905820Y3471865D01*
G01X1905890Y3475881D01*
G01X1910166Y3480844D01*
G01X1913202Y3475038D01*
G37*
G36*
G01X1872114Y3778079D02*
G01X1864870Y3775104D01*
G01X1857275Y3777242D01*
G01X1861715Y3780501D01*
G01X1872114Y3778079D01*
G37*
G36*
G01X1913007Y5175971D02*
G01X1909734Y5168416D01*
G01X1906142Y5175159D01*
G01X1905820Y5177488D01*
G01X1910096Y5179428D01*
G01X1913007Y5175971D01*
G37*
G36*
G01X1603085Y3770276D02*
G01X1600437Y3767132D01*
G01X1587695Y3768924D01*
G01X1600615Y3772089D01*
G01X1603085Y3770276D01*
G37*
G36*
G01X2039338Y4294303D02*
G01X2036414Y4287541D01*
G01X2032151Y4289474D01*
G01X2032221Y4293490D01*
G01X2036170Y4298064D01*
G01X2039338Y4294303D01*
G37*
G36*
G01X1651880Y3668723D02*
G01X1645758Y3665946D01*
G01X1636555Y3667712D01*
G01X1644248Y3670872D01*
G01X1651880Y3668723D01*
G37*
G36*
G01X1430285Y5193702D02*
G01X1430285Y5186959D01*
G01X1425831Y5181902D01*
G01X1425831Y5198760D01*
G01X1430285Y5193702D01*
G37*
G36*
G01X2039498Y5226915D02*
G01X2035934Y5218989D01*
G01X2032874Y5227418D01*
G01X2034966Y5230241D01*
G01X2039498Y5226915D01*
G37*
G36*
G01X1857659Y5218379D02*
G01X1852949Y5216243D01*
G01X1843736Y5218389D01*
G01X1846370Y5221518D01*
G01X1855016Y5221518D01*
G01X1857659Y5218379D01*
G37*
G36*
G01X2007447Y2369159D02*
G01X2004963Y2369159D01*
G01X1997697Y2367112D01*
G01X1997767Y2370002D01*
G01X2001548Y2374376D01*
G01X2007447Y2369159D01*
G37*
G36*
G01X1490638Y5260291D02*
G01X1488154Y5260291D01*
G01X1480887Y5258245D01*
G01X1480958Y5261134D01*
G01X1484738Y5265508D01*
G01X1490638Y5260291D01*
G37*
G36*
G01X1513607Y5277149D02*
G01X1511123Y5277149D01*
G01X1503857Y5275103D01*
G01X1503927Y5277992D01*
G01X1507708Y5282366D01*
G01X1513607Y5277149D01*
G37*
G36*
G01X2018932Y2377588D02*
G01X2016448Y2377588D01*
G01X2009181Y2375541D01*
G01X2009252Y2378431D01*
G01X2013032Y2382805D01*
G01X2018932Y2377588D01*
G37*
G36*
G01X2030416Y2386017D02*
G01X2027933Y2386017D01*
G01X2020666Y2383970D01*
G01X2020736Y2386860D01*
G01X2024517Y2391234D01*
G01X2030416Y2386017D01*
G37*
G36*
G01X1502122Y5268720D02*
G01X1499639Y5268720D01*
G01X1492372Y5266674D01*
G01X1492442Y5269563D01*
G01X1496223Y5273937D01*
G01X1502122Y5268720D01*
G37*
G36*
G01X1959797Y3736788D02*
G01X1966688Y3734916D01*
G01X1954055Y3734650D01*
G01X1954055Y3740120D01*
G01X1959797Y3736788D01*
G37*
G36*
G01X1464818Y5236379D02*
G01X1462195Y5233264D01*
G01X1458534Y5234924D01*
G01X1460925Y5244102D01*
G01X1464818Y5236379D01*
G37*
G36*
G01X1844262Y3424689D02*
G01X1841501Y3421409D01*
G01X1831385Y3423351D01*
G01X1841549Y3426680D01*
G01X1844262Y3424689D01*
G37*
G36*
G01X1580115Y3761847D02*
G01X1577354Y3758568D01*
G01X1567238Y3760509D01*
G01X1577402Y3763838D01*
G01X1580115Y3761847D01*
G37*
G36*
G01X1430430Y4562141D02*
G01X1428260Y4559564D01*
G01X1413128Y4561345D01*
G01X1426910Y4563458D01*
G01X1430430Y4562141D01*
G37*
G36*
G01X2073570Y4857154D02*
G01X2071401Y4854578D01*
G01X2056268Y4856359D01*
G01X2070050Y4858471D01*
G01X2073570Y4857154D01*
G37*
G36*
G01X1579655Y5177488D02*
G01X1579585Y5170101D01*
G01X1575132Y5165044D01*
G01X1575062Y5179572D01*
G01X1579655Y5177488D01*
G37*
G36*
G01X2016682Y5252089D02*
G01X2013282Y5245962D01*
G01X2009756Y5252705D01*
G01X2011997Y5255528D01*
G01X2016682Y5252089D01*
G37*
G36*
G01X1685537Y3591658D02*
G01X1680720Y3589473D01*
G01X1676126Y3591557D01*
G01X1676126Y3594530D01*
G01X1680200Y3596378D01*
G01X1685537Y3591658D01*
G37*
G36*
G01X1777414Y3524226D02*
G01X1772598Y3522041D01*
G01X1768004Y3524125D01*
G01X1768004Y3527099D01*
G01X1772077Y3528946D01*
G01X1777414Y3524226D01*
G37*
G36*
G01X2007108Y5260591D02*
G01X2002291Y5258406D01*
G01X1997697Y5260490D01*
G01X1997697Y5263464D01*
G01X2001770Y5265311D01*
G01X2007108Y5260591D01*
G37*
G36*
G01X1478814Y3743379D02*
G01X1473997Y3741194D01*
G01X1469403Y3743278D01*
G01X1469403Y3746252D01*
G01X1473476Y3748099D01*
G01X1478814Y3743379D01*
G37*
G36*
G01X1708507Y3574800D02*
G01X1703690Y3572615D01*
G01X1699096Y3574699D01*
G01X1699096Y3577672D01*
G01X1703169Y3579520D01*
G01X1708507Y3574800D01*
G37*
G36*
G01X1719991Y3566371D02*
G01X1715174Y3564186D01*
G01X1710580Y3566270D01*
G01X1710580Y3569243D01*
G01X1714654Y3571091D01*
G01X1719991Y3566371D01*
G37*
G36*
G01X1742961Y3549513D02*
G01X1738144Y3547328D01*
G01X1733550Y3549412D01*
G01X1733550Y3552386D01*
G01X1737623Y3554233D01*
G01X1742961Y3549513D01*
G37*
G36*
G01X1754445Y3541084D02*
G01X1749628Y3538899D01*
G01X1745034Y3540983D01*
G01X1745034Y3543957D01*
G01X1749108Y3545804D01*
G01X1754445Y3541084D01*
G37*
G36*
G01X1903746Y5184731D02*
G01X1898929Y5182546D01*
G01X1894335Y5184630D01*
G01X1894335Y5187603D01*
G01X1898408Y5189451D01*
G01X1903746Y5184731D01*
G37*
G36*
G01X1984138Y5277449D02*
G01X1979321Y5275264D01*
G01X1974727Y5277348D01*
G01X1974727Y5280322D01*
G01X1978801Y5282169D01*
G01X1984138Y5277449D01*
G37*
G36*
G01X1800384Y3507368D02*
G01X1795567Y3505183D01*
G01X1790973Y3507267D01*
G01X1790973Y3510241D01*
G01X1795046Y3512088D01*
G01X1800384Y3507368D01*
G37*
G36*
G01X1731476Y3557942D02*
G01X1726659Y3555757D01*
G01X1722065Y3557841D01*
G01X1722065Y3560814D01*
G01X1726138Y3562662D01*
G01X1731476Y3557942D01*
G37*
G36*
G01X1823353Y3490510D02*
G01X1818536Y3488325D01*
G01X1813942Y3490409D01*
G01X1813942Y3493383D01*
G01X1818016Y3495230D01*
G01X1823353Y3490510D01*
G37*
G36*
G01X1869292Y3456795D02*
G01X1864475Y3454610D01*
G01X1859881Y3456693D01*
G01X1859881Y3459667D01*
G01X1863954Y3461515D01*
G01X1869292Y3456795D01*
G37*
G36*
G01X1915230Y3423079D02*
G01X1910413Y3420894D01*
G01X1905820Y3422978D01*
G01X1905820Y3425951D01*
G01X1909893Y3427799D01*
G01X1915230Y3423079D01*
G37*
G36*
G01X1490298Y3734950D02*
G01X1485481Y3732765D01*
G01X1480887Y3734849D01*
G01X1480887Y3737823D01*
G01X1484961Y3739670D01*
G01X1490298Y3734950D01*
G37*
G36*
G01X1697022Y3583229D02*
G01X1692205Y3581044D01*
G01X1687611Y3583128D01*
G01X1687611Y3586101D01*
G01X1691684Y3587949D01*
G01X1697022Y3583229D01*
G37*
G36*
G01X1765930Y3532655D02*
G01X1761113Y3530470D01*
G01X1756519Y3532554D01*
G01X1756519Y3535528D01*
G01X1760592Y3537375D01*
G01X1765930Y3532655D01*
G37*
G36*
G01X1788899Y3515797D02*
G01X1784082Y3513612D01*
G01X1779488Y3515696D01*
G01X1779488Y3518670D01*
G01X1783562Y3520517D01*
G01X1788899Y3515797D01*
G37*
G36*
G01X1972654Y5285878D02*
G01X1967837Y5283693D01*
G01X1963243Y5285777D01*
G01X1963243Y5288751D01*
G01X1967316Y5290598D01*
G01X1972654Y5285878D01*
G37*
G36*
G01X1995623Y5269020D02*
G01X1990806Y5266835D01*
G01X1986212Y5268919D01*
G01X1986212Y5271893D01*
G01X1990285Y5273740D01*
G01X1995623Y5269020D01*
G37*
G36*
G01X1811868Y3498939D02*
G01X1807052Y3496754D01*
G01X1802458Y3498838D01*
G01X1802458Y3501812D01*
G01X1806531Y3503659D01*
G01X1811868Y3498939D01*
G37*
G36*
G01X1834838Y3482081D02*
G01X1830021Y3479896D01*
G01X1825427Y3481980D01*
G01X1825427Y3484954D01*
G01X1829500Y3486802D01*
G01X1834838Y3482081D01*
G37*
G36*
G01X1846322Y3473652D02*
G01X1841505Y3471468D01*
G01X1836912Y3473551D01*
G01X1836912Y3476525D01*
G01X1840985Y3478373D01*
G01X1846322Y3473652D01*
G37*
G36*
G01X1857807Y3465224D02*
G01X1852990Y3463039D01*
G01X1848396Y3465122D01*
G01X1848396Y3468096D01*
G01X1852470Y3469944D01*
G01X1857807Y3465224D01*
G37*
G36*
G01X1903746Y3431508D02*
G01X1898929Y3429323D01*
G01X1894335Y3431407D01*
G01X1894335Y3434380D01*
G01X1898408Y3436228D01*
G01X1903746Y3431508D01*
G37*
G36*
G01X1642163Y5219411D02*
G01X1635930Y5216512D01*
G01X1630188Y5216461D01*
G01X1630188Y5219938D01*
G01X1636859Y5221817D01*
G01X1642163Y5219411D01*
G37*
G36*
G01X1857584Y4299589D02*
G01X1852770Y4297406D01*
G01X1845808Y4299366D01*
G01X1848667Y4302762D01*
G01X1857584Y4302762D01*
G01X1857584Y4299589D01*
G37*
G36*
G01X2028167Y5238603D02*
G01X2025292Y5233105D01*
G01X2021097Y5235008D01*
G01X2023578Y5241970D01*
G01X2028167Y5238603D01*
G37*
G36*
G01X1926521Y5311153D02*
G01X1920750Y5309728D01*
G01X1912762Y5311248D01*
G01X1915278Y5314236D01*
G01X1923924Y5314236D01*
G01X1926521Y5311153D01*
G37*
G36*
G01X1828982Y5229859D02*
G01X1842654Y5226865D01*
G01X1824508Y5226575D01*
G01X1828982Y5229859D01*
G37*
G36*
G01X1919601Y4370868D02*
G01X1924075Y4367584D01*
G01X1919996Y4357550D01*
G01X1919601Y4370868D01*
G37*
G36*
G01X1415535Y2321869D02*
G01X1429206Y2318875D01*
G01X1411061Y2318585D01*
G01X1415535Y2321869D01*
G37*
G36*
G01X1415535Y3687360D02*
G01X1429206Y3684366D01*
G01X1411061Y3684076D01*
G01X1415535Y3687360D01*
G37*
G36*
G01X2058676Y2321869D02*
G01X2072347Y2318875D01*
G01X2054201Y2318585D01*
G01X2058676Y2321869D01*
G37*
G36*
G01X2058676Y3687360D02*
G01X2072347Y3684366D01*
G01X2054201Y3684076D01*
G01X2058676Y3687360D01*
G37*
G36*
G01X2039290Y3668877D02*
G01X2036427Y3665478D01*
G01X2032582Y3667222D01*
G01X2035120Y3674346D01*
G01X2039290Y3668877D01*
G37*
G36*
G01X1453892Y5228407D02*
G01X1450780Y5222455D01*
G01X1446625Y5227390D01*
G01X1450951Y5230565D01*
G01X1453892Y5228407D01*
G37*
G36*
G01X1591579Y5189876D02*
G01X1589992Y5183867D01*
G01X1583811Y5182356D01*
G01X1585398Y5188366D01*
G01X1591579Y5189876D01*
G37*
G36*
G01X1827995Y4294333D02*
G01X1841505Y4294333D01*
G01X1841505Y4290961D01*
G01X1825156Y4290961D01*
G01X1827995Y4294333D01*
G37*
G36*
G01X1672681Y5345188D02*
G01X1694502Y5346451D01*
G01X1716323Y5345188D01*
G01X1672681Y5345188D01*
G37*
G36*
G01X1818153Y3787190D02*
G01X1839591Y3787190D01*
G01X1842271Y3785224D01*
G01X1815474Y3785224D01*
G01X1818153Y3787190D01*
G37*
G36*
G01X1536504Y5295271D02*
G01X1530491Y5292544D01*
G01X1526426Y5294388D01*
G01X1531020Y5297759D01*
G01X1536504Y5295271D01*
G37*
G36*
G01X1570958Y5312129D02*
G01X1564945Y5309402D01*
G01X1560880Y5311245D01*
G01X1565474Y5314617D01*
G01X1570958Y5312129D01*
G37*
G36*
G01X1869559Y5210982D02*
G01X1863546Y5208254D01*
G01X1859481Y5210098D01*
G01X1864075Y5213470D01*
G01X1869559Y5210982D01*
G37*
G36*
G01X1901334Y4335274D02*
G01X1898289Y4329452D01*
G01X1894526Y4333921D01*
G01X1898852Y4337096D01*
G01X1901334Y4335274D01*
G37*
G36*
G01X1525020Y5286842D02*
G01X1518787Y5283944D01*
G01X1515341Y5283892D01*
G01X1515341Y5287065D01*
G01X1519935Y5289149D01*
G01X1525020Y5286842D01*
G37*
G36*
G01X1958724Y5295460D02*
G01X1956205Y5292468D01*
G01X1949152Y5294455D01*
G01X1953655Y5297759D01*
G01X1958724Y5295460D01*
G37*
G36*
G01X1403594Y1511934D02*
G01X1405353Y1497605D01*
G01X1403594Y1483276D01*
G01X1403594Y1511934D01*
G37*
G36*
G01X2034771Y4546359D02*
G01X2038719Y4539615D01*
G01X2039041Y4535401D01*
G01X2034448Y4535401D01*
G01X2034771Y4546359D01*
G37*
G36*
G01X1869144Y4527205D02*
G01X1864475Y4525087D01*
G01X1859881Y4527171D01*
G01X1859881Y4530344D01*
G01X1866501Y4530344D01*
G01X1869144Y4527205D01*
G37*
G36*
G01X1604922Y5202561D02*
G01X1611276Y5206432D01*
G01X1613965Y5201288D01*
G01X1604922Y5201288D01*
G01X1604922Y5202561D01*
G37*
G36*
G01X1575062Y5320597D02*
G01X1589045Y5322103D01*
G01X1591411Y5319294D01*
G01X1575062Y5319294D01*
G01X1575062Y5320597D01*
G37*
G36*
G01X1871366Y4309112D02*
G01X1871366Y4308212D01*
G01X1862178Y4306449D01*
G01X1862178Y4310875D01*
G01X1871366Y4309112D01*
G37*
G36*
G01X1875228Y5330782D02*
G01X1881702Y5327774D01*
G01X1869069Y5327723D01*
G01X1869069Y5329048D01*
G01X1875228Y5330782D01*
G37*
G36*
G01X1954055Y2371947D02*
G01X1967837Y2370462D01*
G01X1967837Y2369159D01*
G01X1954055Y2369159D01*
G01X1954055Y2371947D01*
G37*
G36*
G01X1885147Y4326363D02*
G01X1888945Y4326363D01*
G01X1886923Y4316248D01*
G01X1885147Y4316248D01*
G01X1885147Y4326363D01*
G37*
G36*
G01X1896632Y3466609D02*
G01X1900430Y3466609D01*
G01X1898407Y3456494D01*
G01X1896632Y3456494D01*
G01X1896632Y3466609D01*
G37*
G36*
G01X1873662Y5206346D02*
G01X1875397Y5206346D01*
G01X1881116Y5201288D01*
G01X1873662Y5201288D01*
G01X1873662Y5206346D01*
G37*
G36*
G01X1878331Y3651813D02*
G01X1875642Y3648620D01*
G01X1871291Y3650593D01*
G01X1873980Y3653787D01*
G01X1878331Y3651813D01*
G37*
G36*
G01X1878331Y4519996D02*
G01X1875642Y4516802D01*
G01X1871291Y4518776D01*
G01X1873980Y4521970D01*
G01X1878331Y4519996D01*
G37*
G36*
G01X1889816Y3643384D02*
G01X1887127Y3640191D01*
G01X1882775Y3642164D01*
G01X1885465Y3645358D01*
G01X1889816Y3643384D01*
G37*
G36*
G01X1889816Y4511567D02*
G01X1887127Y4508373D01*
G01X1882775Y4510347D01*
G01X1885465Y4513541D01*
G01X1889816Y4511567D01*
G37*
G36*
G01X1471700Y5255433D02*
G01X1475862Y5253545D01*
G01X1473461Y5246805D01*
G01X1471700Y5246805D01*
G01X1471700Y5255433D01*
G37*
G36*
G01X1542905Y5303729D02*
G01X1554389Y5305340D01*
G01X1554389Y5302436D01*
G01X1542905Y5302436D01*
G01X1542905Y5303729D01*
G37*
G36*
G01X1835763Y5336611D02*
G01X1846099Y5338072D01*
G01X1856436Y5336611D01*
G01X1835763Y5336611D01*
G37*
G36*
G01X1649712Y3785683D02*
G01X1660048Y3787144D01*
G01X1670384Y3785683D01*
G01X1649712Y3785683D01*
G37*
G36*
G01X1920134Y3610744D02*
G01X1922225Y3604883D01*
G01X1920227Y3597258D01*
G01X1920134Y3610744D01*
G37*
G36*
G01X1522232Y3735943D02*
G01X1531420Y3737706D01*
G01X1531420Y3734650D01*
G01X1522232Y3734650D01*
G01X1522232Y3735943D01*
G37*
G36*
G01X1898658Y4505057D02*
G01X1901301Y4501918D01*
G01X1896632Y4499800D01*
G01X1896632Y4505057D01*
G01X1898658Y4505057D01*
G37*
G36*
G01X1450756Y3763308D02*
G01X1453399Y3760170D01*
G01X1448730Y3758052D01*
G01X1448730Y3763308D01*
G01X1450756Y3763308D01*
G37*
G36*
G01X1910142Y3620016D02*
G01X1912785Y3616878D01*
G01X1908116Y3614760D01*
G01X1908116Y3620016D01*
G01X1910142Y3620016D01*
G37*
G36*
G01X1885147Y5198116D02*
G01X1889741Y5196032D01*
G01X1889741Y5192860D01*
G01X1885147Y5192860D01*
G01X1885147Y5198116D01*
G37*
G36*
G01X1620913Y3778740D02*
G01X1629039Y3777186D01*
G01X1615258Y3777061D01*
G01X1620913Y3778740D01*
G37*
G36*
G01X1848109Y4537438D02*
G01X1854139Y4535667D01*
G01X1845334Y4535401D01*
G01X1848109Y4537438D01*
G37*
G36*
G01X1898642Y5321331D02*
G01X1904671Y5319560D01*
G01X1895866Y5319294D01*
G01X1898642Y5321331D01*
G37*
G36*
G01X1852703Y3433245D02*
G01X1858732Y3431474D01*
G01X1849928Y3431208D01*
G01X1852703Y3433245D01*
G37*
G04 Image End*

G04 Text Start*
G54D10*
G01X791411Y3642251D02*
G01X788363Y3648601D01*
G01X782013Y3654697D01*
G01X775917Y3657745D01*
G01X763471Y3657745D01*
G01X757375Y3654697D01*
G01X751025Y3648601D01*
G01X747977Y3642251D01*
G01X744929Y3633107D01*
G01X744929Y3617613D01*
G01X747977Y3608215D01*
G01X751025Y3602119D01*
G01X757375Y3595769D01*
G01X763471Y3592721D01*
G01X775917Y3592721D01*
G01X782013Y3595769D01*
G01X788363Y3602119D01*
G01X791411Y3608215D01*
G01X821637Y3645299D02*
G01X827733Y3648601D01*
G01X836877Y3657745D01*
G01X836877Y3592721D01*
G01X897837Y3657745D02*
G01X867103Y3614565D01*
G01X913331Y3614565D01*
G01X897837Y3657745D02*
G01X897837Y3592721D01*
G01X1904350Y1002822D02*
G01X1969374Y1002822D01*
G01X1904350Y1002822D02*
G01X1904350Y1024412D01*
G01X1907398Y1033810D01*
G01X1913494Y1039906D01*
G01X1919844Y1042954D01*
G01X1928988Y1046256D01*
G01X1944482Y1046256D01*
G01X1953880Y1042954D01*
G01X1959976Y1039906D01*
G01X1966326Y1033810D01*
G01X1969374Y1024412D01*
G01X1969374Y1002822D01*
G01X1916796Y1076482D02*
G01X1913494Y1082578D01*
G01X1904350Y1091722D01*
G01X1969374Y1091722D01*
G01X1817713Y3310519D02*
G01X1882737Y3310519D01*
G01X1817713Y3310519D02*
G01X1817713Y3332109D01*
G01X1820761Y3341507D01*
G01X1826857Y3347603D01*
G01X1833207Y3350651D01*
G01X1842351Y3353953D01*
G01X1857845Y3353953D01*
G01X1867243Y3350651D01*
G01X1873339Y3347603D01*
G01X1879689Y3341507D01*
G01X1882737Y3332109D01*
G01X1882737Y3310519D01*
G01X1817713Y3421263D02*
G01X1817713Y3390275D01*
G01X1845399Y3387227D01*
G01X1842351Y3390275D01*
G01X1839303Y3399419D01*
G01X1839303Y3408817D01*
G01X1842351Y3418215D01*
G01X1848701Y3424311D01*
G01X1857845Y3427359D01*
G01X1864195Y3427359D01*
G01X1873339Y3424311D01*
G01X1879689Y3418215D01*
G01X1882737Y3408817D01*
G01X1882737Y3399419D01*
G01X1879689Y3390275D01*
G01X1876387Y3387227D01*
G01X1870291Y3384179D01*
G01X1324510Y519720D02*
G01X1324510Y470190D01*
G01X1321462Y461046D01*
G01X1318414Y457744D01*
G01X1312064Y454696D01*
G01X1305968Y454696D01*
G01X1299618Y457744D01*
G01X1296570Y461046D01*
G01X1293522Y470190D01*
G01X1293522Y476540D01*
G01X1354736Y519720D02*
G01X1354736Y454696D01*
G01X1354736Y519720D02*
G01X1382422Y519720D01*
G01X1391820Y516672D01*
G01X1394868Y513624D01*
G01X1397916Y507274D01*
G01X1397916Y498130D01*
G01X1394868Y492034D01*
G01X1391820Y488732D01*
G01X1382422Y485684D01*
G01X1354736Y485684D01*
G01X1428142Y507274D02*
G01X1434238Y510576D01*
G01X1443382Y519720D01*
G01X1443382Y454696D01*
G01X843280Y83566D02*
G01X843280Y148590D01*
G01X843280Y148590D02*
G01X806196Y148590D01*
G01X775970Y96012D02*
G01X769874Y92710D01*
G01X760730Y83566D01*
G01X760730Y148590D01*
G01X1971210Y379247D02*
G01X1971210Y444271D01*
G01X1971210Y444271D02*
G01X1934126Y444271D01*
G01X1900852Y394741D02*
G01X1900852Y391693D01*
G01X1897804Y385343D01*
G01X1894756Y382295D01*
G01X1888660Y379247D01*
G01X1876214Y379247D01*
G01X1869864Y382295D01*
G01X1866816Y385343D01*
G01X1863768Y391693D01*
G01X1863768Y397789D01*
G01X1866816Y403885D01*
G01X1873166Y413283D01*
G01X1903900Y444271D01*
G01X1860720Y444271D01*
G01X2006199Y4428741D02*
G01X1941175Y4428741D01*
G01X1941175Y4428741D02*
G01X1941175Y4391657D01*
G01X2006199Y4361431D02*
G01X1941175Y4361431D01*
G01X2006199Y4361431D02*
G01X2006199Y4321299D01*
G01X1975211Y4361431D02*
G01X1975211Y4336793D01*
G01X1941175Y4361431D02*
G01X1941175Y4321299D01*
G01X2006199Y4291073D02*
G01X1941175Y4291073D01*
G01X2006199Y4291073D02*
G01X2006199Y4269483D01*
G01X2003151Y4260339D01*
G01X1997055Y4253989D01*
G01X1990705Y4250941D01*
G01X1981561Y4247893D01*
G01X1966067Y4247893D01*
G01X1956669Y4250941D01*
G01X1950573Y4253989D01*
G01X1944223Y4260339D01*
G01X1941175Y4269483D01*
G01X1941175Y4291073D01*
G01X2006199Y4186933D02*
G01X1963019Y4217667D01*
G01X1963019Y4171439D01*
G01X2006199Y4186933D02*
G01X1941175Y4186933D01*
G01X712267Y2404093D02*
G01X715315Y2397997D01*
G01X721411Y2391647D01*
G01X727761Y2388599D01*
G01X736905Y2385551D01*
G01X752399Y2385551D01*
G01X761797Y2388599D01*
G01X767893Y2391647D01*
G01X774243Y2397997D01*
G01X777291Y2404093D01*
G01X777291Y2416539D01*
G01X774243Y2422635D01*
G01X767893Y2428985D01*
G01X761797Y2432033D01*
G01X752399Y2435081D01*
G01X736905Y2435081D01*
G01X727761Y2432033D01*
G01X721411Y2428985D01*
G01X715315Y2422635D01*
G01X712267Y2416539D01*
G01X712267Y2404093D01*
G01X764845Y2413491D02*
G01X783387Y2432033D01*
G01X724713Y2465307D02*
G01X721411Y2471403D01*
G01X712267Y2480547D01*
G01X777291Y2480547D01*
G01X407591Y2212614D02*
G01X407591Y2147590D01*
G01X407591Y2212614D02*
G01X435531Y2212614D01*
G01X444675Y2209566D01*
G01X447723Y2206518D01*
G01X451025Y2200168D01*
G01X451025Y2194072D01*
G01X447723Y2187976D01*
G01X444675Y2184928D01*
G01X435531Y2181626D01*
G01X407591Y2181626D01*
G01X429181Y2181626D02*
G01X451025Y2147590D01*
G01X481251Y2200168D02*
G01X487347Y2203470D01*
G01X496491Y2212614D01*
G01X496491Y2147590D01*
G01X557451Y2212614D02*
G01X526717Y2169434D01*
G01X572945Y2169434D01*
G01X557451Y2212614D02*
G01X557451Y2147590D01*
G01X1114786Y2820591D02*
G01X1179810Y2820591D01*
G01X1114786Y2820591D02*
G01X1114786Y2848531D01*
G01X1117834Y2857675D01*
G01X1120882Y2860723D01*
G01X1127232Y2864025D01*
G01X1133328Y2864025D01*
G01X1139424Y2860723D01*
G01X1142472Y2857675D01*
G01X1145774Y2848531D01*
G01X1145774Y2820591D01*
G01X1145774Y2842181D02*
G01X1179810Y2864025D01*
G01X1127232Y2894251D02*
G01X1123930Y2900347D01*
G01X1114786Y2909491D01*
G01X1179810Y2909491D01*
G01X1114786Y2954957D02*
G01X1117834Y2945813D01*
G01X1123930Y2942765D01*
G01X1130280Y2942765D01*
G01X1136376Y2945813D01*
G01X1139424Y2951909D01*
G01X1142472Y2964355D01*
G01X1145774Y2973753D01*
G01X1151870Y2979849D01*
G01X1157966Y2982897D01*
G01X1167364Y2982897D01*
G01X1173460Y2979849D01*
G01X1176762Y2976801D01*
G01X1179810Y2967403D01*
G01X1179810Y2954957D01*
G01X1176762Y2945813D01*
G01X1173460Y2942765D01*
G01X1167364Y2939717D01*
G01X1157966Y2939717D01*
G01X1151870Y2942765D01*
G01X1145774Y2948861D01*
G01X1142472Y2958259D01*
G01X1139424Y2970451D01*
G01X1136376Y2976801D01*
G01X1130280Y2979849D01*
G01X1123930Y2979849D01*
G01X1117834Y2976801D01*
G01X1114786Y2967403D01*
G01X1114786Y2954957D01*
G01X1679214Y3097609D02*
G01X1614190Y3097609D01*
G01X1679214Y3097609D02*
G01X1679214Y3069669D01*
G01X1676166Y3060525D01*
G01X1673118Y3057477D01*
G01X1666768Y3054175D01*
G01X1660672Y3054175D01*
G01X1654576Y3057477D01*
G01X1651528Y3060525D01*
G01X1648226Y3069669D01*
G01X1648226Y3097609D01*
G01X1648226Y3076019D02*
G01X1614190Y3054175D01*
G01X1666768Y3023949D02*
G01X1670070Y3017853D01*
G01X1679214Y3008709D01*
G01X1614190Y3008709D01*
G01X1657624Y2938351D02*
G01X1648226Y2941399D01*
G01X1642130Y2947749D01*
G01X1639082Y2956893D01*
G01X1639082Y2959941D01*
G01X1642130Y2969339D01*
G01X1648226Y2975435D01*
G01X1657624Y2978483D01*
G01X1660672Y2978483D01*
G01X1670070Y2975435D01*
G01X1676166Y2969339D01*
G01X1679214Y2959941D01*
G01X1679214Y2956893D01*
G01X1676166Y2947749D01*
G01X1670070Y2941399D01*
G01X1657624Y2938351D01*
G01X1642130Y2938351D01*
G01X1626636Y2941399D01*
G01X1617238Y2947749D01*
G01X1614190Y2956893D01*
G01X1614190Y2963243D01*
G01X1617238Y2972387D01*
G01X1623588Y2975435D01*
G01X444163Y4044130D02*
G01X437813Y4050226D01*
G01X428669Y4053274D01*
G01X416223Y4053274D01*
G01X406825Y4050226D01*
G01X400729Y4044130D01*
G01X400729Y4037780D01*
G01X403777Y4031684D01*
G01X406825Y4028636D01*
G01X413175Y4025588D01*
G01X431717Y4019238D01*
G01X437813Y4016190D01*
G01X440861Y4013142D01*
G01X444163Y4006792D01*
G01X444163Y3997648D01*
G01X437813Y3991298D01*
G01X428669Y3988250D01*
G01X416223Y3988250D01*
G01X406825Y3991298D01*
G01X400729Y3997648D01*
G01X474389Y4053274D02*
G01X489629Y3988250D01*
G01X505123Y4053274D02*
G01X489629Y3988250D01*
G01X505123Y4053274D02*
G01X520617Y3988250D01*
G01X536111Y4053274D02*
G01X520617Y3988250D01*
G01X566337Y4040828D02*
G01X572433Y4044130D01*
G01X581577Y4053274D01*
G01X581577Y3988250D01*
G01X444163Y4539430D02*
G01X437813Y4545526D01*
G01X428669Y4548574D01*
G01X416223Y4548574D01*
G01X406825Y4545526D01*
G01X400729Y4539430D01*
G01X400729Y4533080D01*
G01X403777Y4526984D01*
G01X406825Y4523936D01*
G01X413175Y4520888D01*
G01X431717Y4514538D01*
G01X437813Y4511490D01*
G01X440861Y4508442D01*
G01X444163Y4502092D01*
G01X444163Y4492948D01*
G01X437813Y4486598D01*
G01X428669Y4483550D01*
G01X416223Y4483550D01*
G01X406825Y4486598D01*
G01X400729Y4492948D01*
G01X474389Y4548574D02*
G01X489629Y4483550D01*
G01X505123Y4548574D02*
G01X489629Y4483550D01*
G01X505123Y4548574D02*
G01X520617Y4483550D01*
G01X536111Y4548574D02*
G01X520617Y4483550D01*
G01X569385Y4533080D02*
G01X569385Y4536128D01*
G01X572433Y4542478D01*
G01X575481Y4545526D01*
G01X581577Y4548574D01*
G01X594023Y4548574D01*
G01X600373Y4545526D01*
G01X603421Y4542478D01*
G01X606469Y4536128D01*
G01X606469Y4530032D01*
G01X603421Y4523936D01*
G01X597071Y4514538D01*
G01X566337Y4483550D01*
G01X609517Y4483550D01*
G01X728980Y769366D02*
G01X728980Y815848D01*
G01X725932Y824992D01*
G01X719582Y831342D01*
G01X710438Y834390D01*
G01X704088Y834390D01*
G01X694944Y831342D01*
G01X688848Y824992D01*
G01X685546Y815848D01*
G01X685546Y769366D01*
G01X624586Y769366D02*
G01X655320Y812546D01*
G01X609092Y812546D01*
G01X624586Y769366D02*
G01X624586Y834390D01*
G01X1363624Y4703475D02*
G01X1363624Y4749957D01*
G01X1360576Y4759101D01*
G01X1354226Y4765451D01*
G01X1345082Y4768499D01*
G01X1338732Y4768499D01*
G01X1329588Y4765451D01*
G01X1323492Y4759101D01*
G01X1320190Y4749957D01*
G01X1320190Y4703475D01*
G01X1252880Y4703475D02*
G01X1283868Y4703475D01*
G01X1286916Y4731161D01*
G01X1283868Y4728113D01*
G01X1274724Y4725065D01*
G01X1265326Y4725065D01*
G01X1255928Y4728113D01*
G01X1249832Y4734463D01*
G01X1246784Y4743607D01*
G01X1246784Y4749957D01*
G01X1249832Y4759101D01*
G01X1255928Y4765451D01*
G01X1265326Y4768499D01*
G01X1274724Y4768499D01*
G01X1283868Y4765451D01*
G01X1286916Y4762149D01*
G01X1289964Y4756053D01*
G01X2582824Y4703475D02*
G01X2582824Y4749957D01*
G01X2579776Y4759101D01*
G01X2573426Y4765451D01*
G01X2564282Y4768499D01*
G01X2557932Y4768499D01*
G01X2548788Y4765451D01*
G01X2542692Y4759101D01*
G01X2539390Y4749957D01*
G01X2539390Y4703475D01*
G01X2472080Y4712619D02*
G01X2475128Y4706523D01*
G01X2484526Y4703475D01*
G01X2490622Y4703475D01*
G01X2500020Y4706523D01*
G01X2506116Y4715921D01*
G01X2509164Y4731161D01*
G01X2509164Y4746655D01*
G01X2506116Y4759101D01*
G01X2500020Y4765451D01*
G01X2490622Y4768499D01*
G01X2487574Y4768499D01*
G01X2478430Y4765451D01*
G01X2472080Y4759101D01*
G01X2469032Y4749957D01*
G01X2469032Y4746655D01*
G01X2472080Y4737511D01*
G01X2478430Y4731161D01*
G01X2487574Y4728113D01*
G01X2490622Y4728113D01*
G01X2500020Y4731161D01*
G01X2506116Y4737511D01*
G01X2509164Y4746655D01*
G01X2187280Y2276328D02*
G01X2230714Y2211304D01*
G01X2230714Y2276328D02*
G01X2187280Y2211304D01*
G01X2260940Y2263882D02*
G01X2267036Y2267184D01*
G01X2276180Y2276328D01*
G01X2276180Y2211304D01*
G01X1600322Y1093230D02*
G01X1606738Y1090325D01*
G01X1615521Y1089737D01*
G01X1622150Y1091320D01*
G01X1631684Y1099321D01*
G01X1634395Y1105574D01*
G01X1635341Y1114325D01*
G01X1633594Y1121149D01*
G01X1630051Y1130113D01*
G01X1620092Y1141982D01*
G01X1611716Y1147222D01*
G01X1605463Y1149933D01*
G01X1596517Y1150715D01*
G01X1589888Y1149132D01*
G01X1580353Y1141132D01*
G01X1577643Y1134878D01*
G01X1576860Y1125932D01*
G01X1578444Y1119303D01*
G01X1582457Y1058014D02*
G01X1556384Y1036136D01*
G01X1554751Y1066928D01*
G01X1547746Y1061051D01*
G01X1540922Y1059304D01*
G01X1536465Y1059874D01*
G01X1528252Y1064919D01*
G01X1524171Y1069784D01*
G01X1520628Y1078748D01*
G01X1521216Y1087531D01*
G01X1526456Y1095906D01*
G01X1533655Y1101947D01*
G01X1542619Y1105490D01*
G01X1547077Y1104920D01*
G01X1553330Y1102209D01*
G01X2263122Y1789621D02*
G01X2260074Y1795971D01*
G01X2253724Y1802067D01*
G01X2247628Y1805115D01*
G01X2235182Y1805115D01*
G01X2229086Y1802067D01*
G01X2222736Y1795971D01*
G01X2219688Y1789621D01*
G01X2216640Y1780477D01*
G01X2216640Y1764983D01*
G01X2219688Y1755585D01*
G01X2222736Y1749489D01*
G01X2229086Y1743139D01*
G01X2235182Y1740091D01*
G01X2247628Y1740091D01*
G01X2253724Y1743139D01*
G01X2260074Y1749489D01*
G01X2263122Y1755585D01*
G01X2296396Y1789621D02*
G01X2296396Y1792669D01*
G01X2299444Y1799019D01*
G01X2302492Y1802067D01*
G01X2308588Y1805115D01*
G01X2321034Y1805115D01*
G01X2327384Y1802067D01*
G01X2330432Y1799019D01*
G01X2333480Y1792669D01*
G01X2333480Y1786573D01*
G01X2330432Y1780477D01*
G01X2324082Y1771079D01*
G01X2293348Y1740091D01*
G01X2336528Y1740091D01*
G01X2385296Y1805115D02*
G01X2375898Y1802067D01*
G01X2369802Y1792669D01*
G01X2366754Y1777429D01*
G01X2366754Y1768031D01*
G01X2369802Y1752537D01*
G01X2375898Y1743139D01*
G01X2385296Y1740091D01*
G01X2391392Y1740091D01*
G01X2400790Y1743139D01*
G01X2406886Y1752537D01*
G01X2409934Y1768031D01*
G01X2409934Y1777429D01*
G01X2406886Y1792669D01*
G01X2400790Y1802067D01*
G01X2391392Y1805115D01*
G01X2385296Y1805115D01*
G01X1838960Y2416302D02*
G01X1832610Y2413254D01*
G01X1826514Y2406904D01*
G01X1823466Y2400808D01*
G01X1823466Y2388362D01*
G01X1826514Y2382266D01*
G01X1832610Y2375916D01*
G01X1838960Y2372868D01*
G01X1848104Y2369820D01*
G01X1863598Y2369820D01*
G01X1872996Y2372868D01*
G01X1879092Y2375916D01*
G01X1885442Y2382266D01*
G01X1888490Y2388362D01*
G01X1888490Y2400808D01*
G01X1885442Y2406904D01*
G01X1879092Y2413254D01*
G01X1872996Y2416302D01*
G01X1823466Y2461768D02*
G01X1826514Y2452624D01*
G01X1832610Y2449576D01*
G01X1838960Y2449576D01*
G01X1845056Y2452624D01*
G01X1848104Y2458720D01*
G01X1851152Y2471166D01*
G01X1854454Y2480564D01*
G01X1860550Y2486660D01*
G01X1866646Y2489708D01*
G01X1876044Y2489708D01*
G01X1882140Y2486660D01*
G01X1885442Y2483612D01*
G01X1888490Y2474214D01*
G01X1888490Y2461768D01*
G01X1885442Y2452624D01*
G01X1882140Y2449576D01*
G01X1876044Y2446528D01*
G01X1866646Y2446528D01*
G01X1860550Y2449576D01*
G01X1854454Y2455672D01*
G01X1851152Y2465070D01*
G01X1848104Y2477262D01*
G01X1845056Y2483612D01*
G01X1838960Y2486660D01*
G01X1832610Y2486660D01*
G01X1826514Y2483612D01*
G01X1823466Y2474214D01*
G01X1823466Y2461768D01*
G01X2410201Y2612824D02*
G01X2407153Y2619174D01*
G01X2400803Y2625270D01*
G01X2394707Y2628318D01*
G01X2382261Y2628318D01*
G01X2376165Y2625270D01*
G01X2369815Y2619174D01*
G01X2366767Y2612824D01*
G01X2363719Y2603680D01*
G01X2363719Y2588186D01*
G01X2366767Y2578788D01*
G01X2369815Y2572692D01*
G01X2376165Y2566342D01*
G01X2382261Y2563294D01*
G01X2394707Y2563294D01*
G01X2400803Y2566342D01*
G01X2407153Y2572692D01*
G01X2410201Y2578788D01*
G01X2440427Y2615872D02*
G01X2446523Y2619174D01*
G01X2455667Y2628318D01*
G01X2455667Y2563294D01*
G01X2504435Y2628318D02*
G01X2495037Y2625270D01*
G01X2488941Y2615872D01*
G01X2485893Y2600632D01*
G01X2485893Y2591234D01*
G01X2488941Y2575740D01*
G01X2495037Y2566342D01*
G01X2504435Y2563294D01*
G01X2510531Y2563294D01*
G01X2519929Y2566342D01*
G01X2526025Y2575740D01*
G01X2529073Y2591234D01*
G01X2529073Y2600632D01*
G01X2526025Y2615872D01*
G01X2519929Y2625270D01*
G01X2510531Y2628318D01*
G01X2504435Y2628318D01*
G01X2491999Y2200476D02*
G01X2495047Y2194126D01*
G01X2501397Y2188030D01*
G01X2507493Y2184982D01*
G01X2519939Y2184982D01*
G01X2526035Y2188030D01*
G01X2532385Y2194126D01*
G01X2535433Y2200476D01*
G01X2538481Y2209620D01*
G01X2538481Y2225114D01*
G01X2535433Y2234512D01*
G01X2532385Y2240608D01*
G01X2526035Y2246958D01*
G01X2519939Y2250006D01*
G01X2507493Y2250006D01*
G01X2501397Y2246958D01*
G01X2495047Y2240608D01*
G01X2491999Y2234512D01*
G01X2461773Y2197428D02*
G01X2455677Y2194126D01*
G01X2446533Y2184982D01*
G01X2446533Y2250006D01*
G01X2379223Y2194126D02*
G01X2382271Y2188030D01*
G01X2391669Y2184982D01*
G01X2397765Y2184982D01*
G01X2407163Y2188030D01*
G01X2413259Y2197428D01*
G01X2416307Y2212668D01*
G01X2416307Y2228162D01*
G01X2413259Y2240608D01*
G01X2407163Y2246958D01*
G01X2397765Y2250006D01*
G01X2394717Y2250006D01*
G01X2385573Y2246958D01*
G01X2379223Y2240608D01*
G01X2376175Y2231464D01*
G01X2376175Y2228162D01*
G01X2379223Y2219018D01*
G01X2385573Y2212668D01*
G01X2394717Y2209620D01*
G01X2397765Y2209620D01*
G01X2407163Y2212668D01*
G01X2413259Y2219018D01*
G01X2416307Y2228162D01*
G01X835660Y320802D02*
G01X829310Y317754D01*
G01X823214Y311404D01*
G01X820166Y305308D01*
G01X820166Y292862D01*
G01X823214Y286766D01*
G01X829310Y280416D01*
G01X835660Y277368D01*
G01X844804Y274320D01*
G01X860298Y274320D01*
G01X869696Y277368D01*
G01X875792Y280416D01*
G01X882142Y286766D01*
G01X885190Y292862D01*
G01X885190Y305308D01*
G01X882142Y311404D01*
G01X875792Y317754D01*
G01X869696Y320802D01*
G01X832612Y351028D02*
G01X829310Y357124D01*
G01X820166Y366268D01*
G01X885190Y366268D01*
G01X841756Y436626D02*
G01X851154Y433578D01*
G01X857250Y427228D01*
G01X860298Y418084D01*
G01X860298Y415036D01*
G01X857250Y405638D01*
G01X851154Y399542D01*
G01X841756Y396494D01*
G01X838708Y396494D01*
G01X829310Y399542D01*
G01X823214Y405638D01*
G01X820166Y415036D01*
G01X820166Y418084D01*
G01X823214Y427228D01*
G01X829310Y433578D01*
G01X841756Y436626D01*
G01X857250Y436626D01*
G01X872744Y433578D01*
G01X882142Y427228D01*
G01X885190Y418084D01*
G01X885190Y411734D01*
G01X882142Y402590D01*
G01X875792Y399542D01*
G01X1355369Y1327306D02*
G01X1361785Y1324400D01*
G01X1370568Y1323812D01*
G01X1377197Y1325396D01*
G01X1386731Y1333396D01*
G01X1389442Y1339649D01*
G01X1390388Y1348401D01*
G01X1388641Y1355224D01*
G01X1385098Y1364188D01*
G01X1375139Y1376057D01*
G01X1366763Y1381297D01*
G01X1360510Y1384008D01*
G01X1351564Y1384791D01*
G01X1344935Y1383207D01*
G01X1335400Y1375207D01*
G01X1332690Y1368954D01*
G01X1331907Y1360008D01*
G01X1333491Y1353379D01*
G01X1329879Y1305917D02*
G01X1331838Y1303583D01*
G01X1333585Y1296759D01*
G01X1333210Y1292465D01*
G01X1330499Y1286211D01*
G01X1320965Y1278211D01*
G01X1314141Y1276465D01*
G01X1309847Y1276840D01*
G01X1303430Y1279745D01*
G01X1299512Y1284415D01*
G01X1297928Y1291044D01*
G01X1296752Y1302325D01*
G01X1300377Y1345819D01*
G01X1267299Y1318063D01*
G01X860801Y237924D02*
G01X857753Y244274D01*
G01X851403Y250370D01*
G01X845307Y253418D01*
G01X832861Y253418D01*
G01X826765Y250370D01*
G01X820415Y244274D01*
G01X817367Y237924D01*
G01X814319Y228780D01*
G01X814319Y213286D01*
G01X817367Y203888D01*
G01X820415Y197792D01*
G01X826765Y191442D01*
G01X832861Y188394D01*
G01X845307Y188394D01*
G01X851403Y191442D01*
G01X857753Y197792D01*
G01X860801Y203888D01*
G01X894075Y237924D02*
G01X894075Y240972D01*
G01X897123Y247322D01*
G01X900171Y250370D01*
G01X906267Y253418D01*
G01X918713Y253418D01*
G01X925063Y250370D01*
G01X928111Y247322D01*
G01X931159Y240972D01*
G01X931159Y234876D01*
G01X928111Y228780D01*
G01X921761Y219382D01*
G01X891027Y188394D01*
G01X934207Y188394D01*
G01X1001517Y244274D02*
G01X998469Y250370D01*
G01X989071Y253418D01*
G01X982975Y253418D01*
G01X973577Y250370D01*
G01X967481Y240972D01*
G01X964433Y225732D01*
G01X964433Y210238D01*
G01X967481Y197792D01*
G01X973577Y191442D01*
G01X982975Y188394D01*
G01X986023Y188394D01*
G01X995167Y191442D01*
G01X1001517Y197792D01*
G01X1004565Y206936D01*
G01X1004565Y210238D01*
G01X1001517Y219382D01*
G01X995167Y225732D01*
G01X986023Y228780D01*
G01X982975Y228780D01*
G01X973577Y225732D01*
G01X967481Y219382D01*
G01X964433Y210238D01*
G01X1216660Y384302D02*
G01X1210310Y381254D01*
G01X1204214Y374904D01*
G01X1201166Y368808D01*
G01X1201166Y356362D01*
G01X1204214Y350266D01*
G01X1210310Y343916D01*
G01X1216660Y340868D01*
G01X1225804Y337820D01*
G01X1241298Y337820D01*
G01X1250696Y340868D01*
G01X1256792Y343916D01*
G01X1263142Y350266D01*
G01X1266190Y356362D01*
G01X1266190Y368808D01*
G01X1263142Y374904D01*
G01X1256792Y381254D01*
G01X1250696Y384302D01*
G01X1216660Y417576D02*
G01X1213612Y417576D01*
G01X1207262Y420624D01*
G01X1204214Y423672D01*
G01X1201166Y429768D01*
G01X1201166Y442214D01*
G01X1204214Y448564D01*
G01X1207262Y451612D01*
G01X1213612Y454660D01*
G01X1219708Y454660D01*
G01X1225804Y451612D01*
G01X1235202Y445262D01*
G01X1266190Y414528D01*
G01X1266190Y457708D01*
G01X1201166Y531114D02*
G01X1266190Y500126D01*
G01X1201166Y487934D02*
G01X1201166Y531114D01*
G01X377698Y2829560D02*
G01X380746Y2823210D01*
G01X387096Y2817114D01*
G01X393192Y2814066D01*
G01X405638Y2814066D01*
G01X411734Y2817114D01*
G01X418084Y2823210D01*
G01X421132Y2829560D01*
G01X424180Y2838704D01*
G01X424180Y2854198D01*
G01X421132Y2863596D01*
G01X418084Y2869692D01*
G01X411734Y2876042D01*
G01X405638Y2879090D01*
G01X393192Y2879090D01*
G01X387096Y2876042D01*
G01X380746Y2869692D01*
G01X377698Y2863596D01*
G01X344424Y2829560D02*
G01X344424Y2826512D01*
G01X341376Y2820162D01*
G01X338328Y2817114D01*
G01X332232Y2814066D01*
G01X319786Y2814066D01*
G01X313436Y2817114D01*
G01X310388Y2820162D01*
G01X307340Y2826512D01*
G01X307340Y2832608D01*
G01X310388Y2838704D01*
G01X316738Y2848102D01*
G01X347472Y2879090D01*
G01X304292Y2879090D01*
G01X258826Y2814066D02*
G01X267970Y2817114D01*
G01X271018Y2823210D01*
G01X271018Y2829560D01*
G01X267970Y2835656D01*
G01X261874Y2838704D01*
G01X249428Y2841752D01*
G01X240030Y2845054D01*
G01X233934Y2851150D01*
G01X230886Y2857246D01*
G01X230886Y2866644D01*
G01X233934Y2872740D01*
G01X236982Y2876042D01*
G01X246380Y2879090D01*
G01X258826Y2879090D01*
G01X267970Y2876042D01*
G01X271018Y2872740D01*
G01X274066Y2866644D01*
G01X274066Y2857246D01*
G01X271018Y2851150D01*
G01X264922Y2845054D01*
G01X255524Y2841752D01*
G01X243332Y2838704D01*
G01X236982Y2835656D01*
G01X233934Y2829560D01*
G01X233934Y2823210D01*
G01X236982Y2817114D01*
G01X246380Y2814066D01*
G01X258826Y2814066D01*
G01X2168543Y2176456D02*
G01X2174959Y2173551D01*
G01X2183742Y2172963D01*
G01X2190371Y2174546D01*
G01X2199905Y2182546D01*
G01X2202616Y2188800D01*
G01X2203562Y2197551D01*
G01X2201815Y2204375D01*
G01X2198272Y2213339D01*
G01X2188313Y2225208D01*
G01X2179937Y2230448D01*
G01X2173684Y2233158D01*
G01X2164738Y2233941D01*
G01X2158109Y2232358D01*
G01X2148574Y2224357D01*
G01X2145864Y2218104D01*
G01X2145081Y2209158D01*
G01X2146665Y2202529D01*
G01X2131804Y2125403D02*
G01X2127592Y2178236D01*
G01X2092179Y2148521D01*
G01X2131804Y2125403D02*
G01X2090007Y2175214D01*
G01X1127501Y237924D02*
G01X1124453Y244274D01*
G01X1118103Y250370D01*
G01X1112007Y253418D01*
G01X1099561Y253418D01*
G01X1093465Y250370D01*
G01X1087115Y244274D01*
G01X1084067Y237924D01*
G01X1081019Y228780D01*
G01X1081019Y213286D01*
G01X1084067Y203888D01*
G01X1087115Y197792D01*
G01X1093465Y191442D01*
G01X1099561Y188394D01*
G01X1112007Y188394D01*
G01X1118103Y191442D01*
G01X1124453Y197792D01*
G01X1127501Y203888D01*
G01X1194811Y253418D02*
G01X1163823Y253418D01*
G01X1160775Y225732D01*
G01X1163823Y228780D01*
G01X1172967Y231828D01*
G01X1182365Y231828D01*
G01X1191763Y228780D01*
G01X1197859Y222430D01*
G01X1200907Y213286D01*
G01X1200907Y206936D01*
G01X1197859Y197792D01*
G01X1191763Y191442D01*
G01X1182365Y188394D01*
G01X1172967Y188394D01*
G01X1163823Y191442D01*
G01X1160775Y194744D01*
G01X1157727Y200840D01*
G01X1768676Y225801D02*
G01X1762326Y222753D01*
G01X1756230Y216403D01*
G01X1753182Y210307D01*
G01X1753182Y197861D01*
G01X1756230Y191765D01*
G01X1762326Y185415D01*
G01X1768676Y182367D01*
G01X1777820Y179319D01*
G01X1793314Y179319D01*
G01X1802712Y182367D01*
G01X1808808Y185415D01*
G01X1815158Y191765D01*
G01X1818206Y197861D01*
G01X1818206Y210307D01*
G01X1815158Y216403D01*
G01X1808808Y222753D01*
G01X1802712Y225801D01*
G01X1768676Y259075D02*
G01X1765628Y259075D01*
G01X1759278Y262123D01*
G01X1756230Y265171D01*
G01X1753182Y271267D01*
G01X1753182Y283713D01*
G01X1756230Y290063D01*
G01X1759278Y293111D01*
G01X1765628Y296159D01*
G01X1771724Y296159D01*
G01X1777820Y293111D01*
G01X1787218Y286761D01*
G01X1818206Y256027D01*
G01X1818206Y299207D01*
G01X1774772Y369565D02*
G01X1784170Y366517D01*
G01X1790266Y360167D01*
G01X1793314Y351023D01*
G01X1793314Y347975D01*
G01X1790266Y338577D01*
G01X1784170Y332481D01*
G01X1774772Y329433D01*
G01X1771724Y329433D01*
G01X1762326Y332481D01*
G01X1756230Y338577D01*
G01X1753182Y347975D01*
G01X1753182Y351023D01*
G01X1756230Y360167D01*
G01X1762326Y366517D01*
G01X1774772Y369565D01*
G01X1790266Y369565D01*
G01X1805760Y366517D01*
G01X1815158Y360167D01*
G01X1818206Y351023D01*
G01X1818206Y344673D01*
G01X1815158Y335529D01*
G01X1808808Y332481D01*
G01X2510589Y1247249D02*
G01X2513637Y1240899D01*
G01X2519987Y1234803D01*
G01X2526083Y1231755D01*
G01X2538529Y1231755D01*
G01X2544625Y1234803D01*
G01X2550975Y1240899D01*
G01X2554023Y1247249D01*
G01X2557071Y1256393D01*
G01X2557071Y1271887D01*
G01X2554023Y1281285D01*
G01X2550975Y1287381D01*
G01X2544625Y1293731D01*
G01X2538529Y1296779D01*
G01X2526083Y1296779D01*
G01X2519987Y1293731D01*
G01X2513637Y1287381D01*
G01X2510589Y1281285D01*
G01X2443279Y1240899D02*
G01X2446327Y1234803D01*
G01X2455725Y1231755D01*
G01X2461821Y1231755D01*
G01X2471219Y1234803D01*
G01X2477315Y1244201D01*
G01X2480363Y1259441D01*
G01X2480363Y1274935D01*
G01X2477315Y1287381D01*
G01X2471219Y1293731D01*
G01X2461821Y1296779D01*
G01X2458773Y1296779D01*
G01X2449629Y1293731D01*
G01X2443279Y1287381D01*
G01X2440231Y1278237D01*
G01X2440231Y1274935D01*
G01X2443279Y1265791D01*
G01X2449629Y1259441D01*
G01X2458773Y1256393D01*
G01X2461821Y1256393D01*
G01X2471219Y1259441D01*
G01X2477315Y1265791D01*
G01X2480363Y1274935D01*
G01X2453749Y2226511D02*
G01X2447399Y2223463D01*
G01X2441303Y2217113D01*
G01X2438255Y2211017D01*
G01X2438255Y2198571D01*
G01X2441303Y2192475D01*
G01X2447399Y2186125D01*
G01X2453749Y2183077D01*
G01X2462893Y2180029D01*
G01X2478387Y2180029D01*
G01X2487785Y2183077D01*
G01X2493881Y2186125D01*
G01X2500231Y2192475D01*
G01X2503279Y2198571D01*
G01X2503279Y2211017D01*
G01X2500231Y2217113D01*
G01X2493881Y2223463D01*
G01X2487785Y2226511D01*
G01X2459845Y2296869D02*
G01X2469243Y2293821D01*
G01X2475339Y2287471D01*
G01X2478387Y2278327D01*
G01X2478387Y2275279D01*
G01X2475339Y2265881D01*
G01X2469243Y2259785D01*
G01X2459845Y2256737D01*
G01X2456797Y2256737D01*
G01X2447399Y2259785D01*
G01X2441303Y2265881D01*
G01X2438255Y2275279D01*
G01X2438255Y2278327D01*
G01X2441303Y2287471D01*
G01X2447399Y2293821D01*
G01X2459845Y2296869D01*
G01X2475339Y2296869D01*
G01X2490833Y2293821D01*
G01X2500231Y2287471D01*
G01X2503279Y2278327D01*
G01X2503279Y2271977D01*
G01X2500231Y2262833D01*
G01X2493881Y2259785D01*
G01X683278Y2490280D02*
G01X686326Y2483930D01*
G01X692676Y2477834D01*
G01X698772Y2474786D01*
G01X711218Y2474786D01*
G01X717314Y2477834D01*
G01X723664Y2483930D01*
G01X726712Y2490280D01*
G01X729760Y2499424D01*
G01X729760Y2514918D01*
G01X726712Y2524316D01*
G01X723664Y2530412D01*
G01X717314Y2536762D01*
G01X711218Y2539810D01*
G01X698772Y2539810D01*
G01X692676Y2536762D01*
G01X686326Y2530412D01*
G01X683278Y2524316D01*
G01X646956Y2474786D02*
G01X612920Y2474786D01*
G01X631462Y2499424D01*
G01X622318Y2499424D01*
G01X615968Y2502472D01*
G01X612920Y2505774D01*
G01X609872Y2514918D01*
G01X609872Y2521268D01*
G01X612920Y2530412D01*
G01X619016Y2536762D01*
G01X628414Y2539810D01*
G01X637812Y2539810D01*
G01X646956Y2536762D01*
G01X650004Y2533460D01*
G01X653052Y2527364D01*
G01X561104Y2474786D02*
G01X570502Y2477834D01*
G01X576598Y2487232D01*
G01X579646Y2502472D01*
G01X579646Y2511870D01*
G01X576598Y2527364D01*
G01X570502Y2536762D01*
G01X561104Y2539810D01*
G01X555008Y2539810D01*
G01X545610Y2536762D01*
G01X539514Y2527364D01*
G01X536466Y2511870D01*
G01X536466Y2502472D01*
G01X539514Y2487232D01*
G01X545610Y2477834D01*
G01X555008Y2474786D01*
G01X561104Y2474786D01*
G01X693166Y109220D02*
G01X758190Y109220D01*
G01X693166Y109220D02*
G01X693166Y137160D01*
G01X696214Y146304D01*
G01X699262Y149352D01*
G01X705612Y152654D01*
G01X711708Y152654D01*
G01X717804Y149352D01*
G01X720852Y146304D01*
G01X724154Y137160D01*
G01X724154Y109220D01*
G01X724154Y130810D02*
G01X758190Y152654D01*
G01X708660Y185928D02*
G01X705612Y185928D01*
G01X699262Y188976D01*
G01X696214Y192024D01*
G01X693166Y198120D01*
G01X693166Y210566D01*
G01X696214Y216916D01*
G01X699262Y219964D01*
G01X705612Y223012D01*
G01X711708Y223012D01*
G01X717804Y219964D01*
G01X727202Y213614D01*
G01X758190Y182880D01*
G01X758190Y226060D01*
G01X693166Y262382D02*
G01X693166Y296418D01*
G01X717804Y277876D01*
G01X717804Y287020D01*
G01X720852Y293370D01*
G01X724154Y296418D01*
G01X733298Y299466D01*
G01X739648Y299466D01*
G01X748792Y296418D01*
G01X755142Y290322D01*
G01X758190Y280924D01*
G01X758190Y271526D01*
G01X755142Y262382D01*
G01X751840Y259334D01*
G01X745744Y256286D01*
G01X868934Y1592580D02*
G01X803910Y1592580D01*
G01X868934Y1592580D02*
G01X868934Y1564640D01*
G01X865886Y1555496D01*
G01X862838Y1552448D01*
G01X856488Y1549146D01*
G01X850392Y1549146D01*
G01X844296Y1552448D01*
G01X841248Y1555496D01*
G01X837946Y1564640D01*
G01X837946Y1592580D01*
G01X837946Y1570990D02*
G01X803910Y1549146D01*
G01X853440Y1515872D02*
G01X856488Y1515872D01*
G01X862838Y1512824D01*
G01X865886Y1509776D01*
G01X868934Y1503680D01*
G01X868934Y1491234D01*
G01X865886Y1484884D01*
G01X862838Y1481836D01*
G01X856488Y1478788D01*
G01X850392Y1478788D01*
G01X844296Y1481836D01*
G01X834898Y1488186D01*
G01X803910Y1518920D01*
G01X803910Y1475740D01*
G01X868934Y1414780D02*
G01X825754Y1445514D01*
G01X825754Y1399286D01*
G01X868934Y1414780D02*
G01X803910Y1414780D01*
G01X566166Y109220D02*
G01X631190Y109220D01*
G01X566166Y109220D02*
G01X566166Y137160D01*
G01X569214Y146304D01*
G01X572262Y149352D01*
G01X578612Y152654D01*
G01X584708Y152654D01*
G01X590804Y149352D01*
G01X593852Y146304D01*
G01X597154Y137160D01*
G01X597154Y109220D01*
G01X597154Y130810D02*
G01X631190Y152654D01*
G01X581660Y185928D02*
G01X578612Y185928D01*
G01X572262Y188976D01*
G01X569214Y192024D01*
G01X566166Y198120D01*
G01X566166Y210566D01*
G01X569214Y216916D01*
G01X572262Y219964D01*
G01X578612Y223012D01*
G01X584708Y223012D01*
G01X590804Y219964D01*
G01X600202Y213614D01*
G01X631190Y182880D01*
G01X631190Y226060D01*
G01X566166Y293370D02*
G01X566166Y262382D01*
G01X593852Y259334D01*
G01X590804Y262382D01*
G01X587756Y271526D01*
G01X587756Y280924D01*
G01X590804Y290322D01*
G01X597154Y296418D01*
G01X606298Y299466D01*
G01X612648Y299466D01*
G01X621792Y296418D01*
G01X628142Y290322D01*
G01X631190Y280924D01*
G01X631190Y271526D01*
G01X628142Y262382D01*
G01X624840Y259334D01*
G01X618744Y256286D01*
G01X957834Y1592580D02*
G01X892810Y1592580D01*
G01X957834Y1592580D02*
G01X957834Y1564640D01*
G01X954786Y1555496D01*
G01X951738Y1552448D01*
G01X945388Y1549146D01*
G01X939292Y1549146D01*
G01X933196Y1552448D01*
G01X930148Y1555496D01*
G01X926846Y1564640D01*
G01X926846Y1592580D01*
G01X926846Y1570990D02*
G01X892810Y1549146D01*
G01X942340Y1515872D02*
G01X945388Y1515872D01*
G01X951738Y1512824D01*
G01X954786Y1509776D01*
G01X957834Y1503680D01*
G01X957834Y1491234D01*
G01X954786Y1484884D01*
G01X951738Y1481836D01*
G01X945388Y1478788D01*
G01X939292Y1478788D01*
G01X933196Y1481836D01*
G01X923798Y1488186D01*
G01X892810Y1518920D01*
G01X892810Y1475740D01*
G01X948690Y1408430D02*
G01X954786Y1411478D01*
G01X957834Y1420876D01*
G01X957834Y1426972D01*
G01X954786Y1436370D01*
G01X945388Y1442466D01*
G01X930148Y1445514D01*
G01X914654Y1445514D01*
G01X902208Y1442466D01*
G01X895858Y1436370D01*
G01X892810Y1426972D01*
G01X892810Y1423924D01*
G01X895858Y1414780D01*
G01X902208Y1408430D01*
G01X911352Y1405382D01*
G01X914654Y1405382D01*
G01X923798Y1408430D01*
G01X930148Y1414780D01*
G01X933196Y1423924D01*
G01X933196Y1426972D01*
G01X930148Y1436370D01*
G01X923798Y1442466D01*
G01X914654Y1445514D01*
G01X401066Y96520D02*
G01X466090Y96520D01*
G01X401066Y96520D02*
G01X401066Y124460D01*
G01X404114Y133604D01*
G01X407162Y136652D01*
G01X413512Y139954D01*
G01X419608Y139954D01*
G01X425704Y136652D01*
G01X428752Y133604D01*
G01X432054Y124460D01*
G01X432054Y96520D01*
G01X432054Y118110D02*
G01X466090Y139954D01*
G01X416560Y173228D02*
G01X413512Y173228D01*
G01X407162Y176276D01*
G01X404114Y179324D01*
G01X401066Y185420D01*
G01X401066Y197866D01*
G01X404114Y204216D01*
G01X407162Y207264D01*
G01X413512Y210312D01*
G01X419608Y210312D01*
G01X425704Y207264D01*
G01X435102Y200914D01*
G01X466090Y170180D01*
G01X466090Y213360D01*
G01X401066Y286766D02*
G01X466090Y255778D01*
G01X401066Y243586D02*
G01X401066Y286766D01*
G01X2064576Y1574114D02*
G01X2064576Y1509090D01*
G01X2064576Y1574114D02*
G01X2092516Y1574114D01*
G01X2101660Y1571066D01*
G01X2104708Y1568018D01*
G01X2108010Y1561668D01*
G01X2108010Y1555572D01*
G01X2104708Y1549476D01*
G01X2101660Y1546428D01*
G01X2092516Y1543126D01*
G01X2064576Y1543126D01*
G01X2086166Y1543126D02*
G01X2108010Y1509090D01*
G01X2141284Y1558620D02*
G01X2141284Y1561668D01*
G01X2144332Y1568018D01*
G01X2147380Y1571066D01*
G01X2153476Y1574114D01*
G01X2165922Y1574114D01*
G01X2172272Y1571066D01*
G01X2175320Y1568018D01*
G01X2178368Y1561668D01*
G01X2178368Y1555572D01*
G01X2175320Y1549476D01*
G01X2168970Y1540078D01*
G01X2138236Y1509090D01*
G01X2181416Y1509090D01*
G01X2226882Y1574114D02*
G01X2217738Y1571066D01*
G01X2214690Y1564970D01*
G01X2214690Y1558620D01*
G01X2217738Y1552524D01*
G01X2223834Y1549476D01*
G01X2236280Y1546428D01*
G01X2245678Y1543126D01*
G01X2251774Y1537030D01*
G01X2254822Y1530934D01*
G01X2254822Y1521536D01*
G01X2251774Y1515440D01*
G01X2248726Y1512138D01*
G01X2239328Y1509090D01*
G01X2226882Y1509090D01*
G01X2217738Y1512138D01*
G01X2214690Y1515440D01*
G01X2211642Y1521536D01*
G01X2211642Y1530934D01*
G01X2214690Y1537030D01*
G01X2220786Y1543126D01*
G01X2230184Y1546428D01*
G01X2242376Y1549476D01*
G01X2248726Y1552524D01*
G01X2251774Y1558620D01*
G01X2251774Y1564970D01*
G01X2248726Y1571066D01*
G01X2239328Y1574114D01*
G01X2226882Y1574114D01*
G01X471091Y1933214D02*
G01X471091Y1868190D01*
G01X471091Y1933214D02*
G01X499031Y1933214D01*
G01X508175Y1930166D01*
G01X511223Y1927118D01*
G01X514525Y1920768D01*
G01X514525Y1914672D01*
G01X511223Y1908576D01*
G01X508175Y1905528D01*
G01X499031Y1902226D01*
G01X471091Y1902226D01*
G01X492681Y1902226D02*
G01X514525Y1868190D01*
G01X550847Y1933214D02*
G01X584883Y1933214D01*
G01X566341Y1908576D01*
G01X575485Y1908576D01*
G01X581835Y1905528D01*
G01X584883Y1902226D01*
G01X587931Y1893082D01*
G01X587931Y1886732D01*
G01X584883Y1877588D01*
G01X578787Y1871238D01*
G01X569389Y1868190D01*
G01X559991Y1868190D01*
G01X550847Y1871238D01*
G01X547799Y1874540D01*
G01X544751Y1880636D01*
G01X624253Y1933214D02*
G01X658289Y1933214D01*
G01X639747Y1908576D01*
G01X648891Y1908576D01*
G01X655241Y1905528D01*
G01X658289Y1902226D01*
G01X661337Y1893082D01*
G01X661337Y1886732D01*
G01X658289Y1877588D01*
G01X652193Y1871238D01*
G01X642795Y1868190D01*
G01X633397Y1868190D01*
G01X624253Y1871238D01*
G01X621205Y1874540D01*
G01X618157Y1880636D01*
G01X684609Y2156186D02*
G01X684609Y2221210D01*
G01X684609Y2156186D02*
G01X656669Y2156186D01*
G01X647525Y2159234D01*
G01X644477Y2162282D01*
G01X641175Y2168632D01*
G01X641175Y2174728D01*
G01X644477Y2180824D01*
G01X647525Y2183872D01*
G01X656669Y2187174D01*
G01X684609Y2187174D01*
G01X663019Y2187174D02*
G01X641175Y2221210D01*
G01X604853Y2156186D02*
G01X570817Y2156186D01*
G01X589359Y2180824D01*
G01X580215Y2180824D01*
G01X573865Y2183872D01*
G01X570817Y2187174D01*
G01X567769Y2196318D01*
G01X567769Y2202668D01*
G01X570817Y2211812D01*
G01X576913Y2218162D01*
G01X586311Y2221210D01*
G01X595709Y2221210D01*
G01X604853Y2218162D01*
G01X607901Y2214860D01*
G01X610949Y2208764D01*
G01X506809Y2156186D02*
G01X537543Y2199366D01*
G01X491315Y2199366D01*
G01X506809Y2156186D02*
G01X506809Y2221210D01*
G01X1663014Y4082225D02*
G01X1597990Y4082225D01*
G01X1663014Y4082225D02*
G01X1663014Y4054285D01*
G01X1659966Y4045141D01*
G01X1656918Y4042093D01*
G01X1650568Y4038791D01*
G01X1644472Y4038791D01*
G01X1638376Y4042093D01*
G01X1635328Y4045141D01*
G01X1632026Y4054285D01*
G01X1632026Y4082225D01*
G01X1632026Y4060635D02*
G01X1597990Y4038791D01*
G01X1663014Y4002469D02*
G01X1663014Y3968433D01*
G01X1638376Y3986975D01*
G01X1638376Y3977831D01*
G01X1635328Y3971481D01*
G01X1632026Y3968433D01*
G01X1622882Y3965385D01*
G01X1616532Y3965385D01*
G01X1607388Y3968433D01*
G01X1601038Y3974529D01*
G01X1597990Y3983927D01*
G01X1597990Y3993325D01*
G01X1601038Y4002469D01*
G01X1604340Y4005517D01*
G01X1610436Y4008565D01*
G01X1653870Y3898075D02*
G01X1659966Y3901123D01*
G01X1663014Y3910521D01*
G01X1663014Y3916617D01*
G01X1659966Y3926015D01*
G01X1650568Y3932111D01*
G01X1635328Y3935159D01*
G01X1619834Y3935159D01*
G01X1607388Y3932111D01*
G01X1601038Y3926015D01*
G01X1597990Y3916617D01*
G01X1597990Y3913569D01*
G01X1601038Y3904425D01*
G01X1607388Y3898075D01*
G01X1616532Y3895027D01*
G01X1619834Y3895027D01*
G01X1628978Y3898075D01*
G01X1635328Y3904425D01*
G01X1638376Y3913569D01*
G01X1638376Y3916617D01*
G01X1635328Y3926015D01*
G01X1628978Y3932111D01*
G01X1619834Y3935159D01*
G01X1375474Y4085283D02*
G01X1310450Y4085283D01*
G01X1375474Y4085283D02*
G01X1375474Y4057343D01*
G01X1372426Y4048199D01*
G01X1369378Y4045151D01*
G01X1363028Y4041849D01*
G01X1356932Y4041849D01*
G01X1350836Y4045151D01*
G01X1347788Y4048199D01*
G01X1344486Y4057343D01*
G01X1344486Y4085283D01*
G01X1344486Y4063693D02*
G01X1310450Y4041849D01*
G01X1375474Y4005527D02*
G01X1375474Y3971491D01*
G01X1350836Y3990033D01*
G01X1350836Y3980889D01*
G01X1347788Y3974539D01*
G01X1344486Y3971491D01*
G01X1335342Y3968443D01*
G01X1328992Y3968443D01*
G01X1319848Y3971491D01*
G01X1313498Y3977587D01*
G01X1310450Y3986985D01*
G01X1310450Y3996383D01*
G01X1313498Y4005527D01*
G01X1316800Y4008575D01*
G01X1322896Y4011623D01*
G01X1375474Y3895037D02*
G01X1310450Y3926025D01*
G01X1375474Y3938217D02*
G01X1375474Y3895037D01*
G01X2026920Y4602734D02*
G01X2026920Y4537710D01*
G01X2026920Y4602734D02*
G01X2054860Y4602734D01*
G01X2064004Y4599686D01*
G01X2067052Y4596638D01*
G01X2070354Y4590288D01*
G01X2070354Y4584192D01*
G01X2067052Y4578096D01*
G01X2064004Y4575048D01*
G01X2054860Y4571746D01*
G01X2026920Y4571746D01*
G01X2048510Y4571746D02*
G01X2070354Y4537710D01*
G01X2106676Y4602734D02*
G01X2140712Y4602734D01*
G01X2122170Y4578096D01*
G01X2131314Y4578096D01*
G01X2137664Y4575048D01*
G01X2140712Y4571746D01*
G01X2143760Y4562602D01*
G01X2143760Y4556252D01*
G01X2140712Y4547108D01*
G01X2134616Y4540758D01*
G01X2125218Y4537710D01*
G01X2115820Y4537710D01*
G01X2106676Y4540758D01*
G01X2103628Y4544060D01*
G01X2100580Y4550156D01*
G01X2211070Y4602734D02*
G01X2180082Y4602734D01*
G01X2177034Y4575048D01*
G01X2180082Y4578096D01*
G01X2189226Y4581144D01*
G01X2198624Y4581144D01*
G01X2208022Y4578096D01*
G01X2214118Y4571746D01*
G01X2217166Y4562602D01*
G01X2217166Y4556252D01*
G01X2214118Y4547108D01*
G01X2208022Y4540758D01*
G01X2198624Y4537710D01*
G01X2189226Y4537710D01*
G01X2180082Y4540758D01*
G01X2177034Y4544060D01*
G01X2173986Y4550156D01*
G01X2413889Y4573397D02*
G01X2478913Y4573397D01*
G01X2413889Y4573397D02*
G01X2413889Y4601337D01*
G01X2416937Y4610481D01*
G01X2419985Y4613529D01*
G01X2426335Y4616831D01*
G01X2432431Y4616831D01*
G01X2438527Y4613529D01*
G01X2441575Y4610481D01*
G01X2444877Y4601337D01*
G01X2444877Y4573397D01*
G01X2444877Y4594987D02*
G01X2478913Y4616831D01*
G01X2413889Y4653153D02*
G01X2413889Y4687189D01*
G01X2438527Y4668647D01*
G01X2438527Y4677791D01*
G01X2441575Y4684141D01*
G01X2444877Y4687189D01*
G01X2454021Y4690237D01*
G01X2460371Y4690237D01*
G01X2469515Y4687189D01*
G01X2475865Y4681093D01*
G01X2478913Y4671695D01*
G01X2478913Y4662297D01*
G01X2475865Y4653153D01*
G01X2472563Y4650105D01*
G01X2466467Y4647057D01*
G01X2426335Y4720463D02*
G01X2423033Y4726559D01*
G01X2413889Y4735703D01*
G01X2478913Y4735703D01*
G01X420291Y4828814D02*
G01X420291Y4763790D01*
G01X420291Y4828814D02*
G01X448231Y4828814D01*
G01X457375Y4825766D01*
G01X460423Y4822718D01*
G01X463725Y4816368D01*
G01X463725Y4810272D01*
G01X460423Y4804176D01*
G01X457375Y4801128D01*
G01X448231Y4797826D01*
G01X420291Y4797826D01*
G01X441881Y4797826D02*
G01X463725Y4763790D01*
G01X500047Y4828814D02*
G01X534083Y4828814D01*
G01X515541Y4804176D01*
G01X524685Y4804176D01*
G01X531035Y4801128D01*
G01X534083Y4797826D01*
G01X537131Y4788682D01*
G01X537131Y4782332D01*
G01X534083Y4773188D01*
G01X527987Y4766838D01*
G01X518589Y4763790D01*
G01X509191Y4763790D01*
G01X500047Y4766838D01*
G01X496999Y4770140D01*
G01X493951Y4776236D01*
G01X570405Y4813320D02*
G01X570405Y4816368D01*
G01X573453Y4822718D01*
G01X576501Y4825766D01*
G01X582597Y4828814D01*
G01X595043Y4828814D01*
G01X601393Y4825766D01*
G01X604441Y4822718D01*
G01X607489Y4816368D01*
G01X607489Y4810272D01*
G01X604441Y4804176D01*
G01X598091Y4794778D01*
G01X567357Y4763790D01*
G01X610537Y4763790D01*
G01X797286Y4484291D02*
G01X862310Y4484291D01*
G01X797286Y4484291D02*
G01X797286Y4512231D01*
G01X800334Y4521375D01*
G01X803382Y4524423D01*
G01X809732Y4527725D01*
G01X815828Y4527725D01*
G01X821924Y4524423D01*
G01X824972Y4521375D01*
G01X828274Y4512231D01*
G01X828274Y4484291D01*
G01X828274Y4505881D02*
G01X862310Y4527725D01*
G01X812780Y4560999D02*
G01X809732Y4560999D01*
G01X803382Y4564047D01*
G01X800334Y4567095D01*
G01X797286Y4573191D01*
G01X797286Y4585637D01*
G01X800334Y4591987D01*
G01X803382Y4595035D01*
G01X809732Y4598083D01*
G01X815828Y4598083D01*
G01X821924Y4595035D01*
G01X831322Y4588685D01*
G01X862310Y4557951D01*
G01X862310Y4601131D01*
G01X818876Y4671489D02*
G01X828274Y4668441D01*
G01X834370Y4662091D01*
G01X837418Y4652947D01*
G01X837418Y4649899D01*
G01X834370Y4640501D01*
G01X828274Y4634405D01*
G01X818876Y4631357D01*
G01X815828Y4631357D01*
G01X806430Y4634405D01*
G01X800334Y4640501D01*
G01X797286Y4649899D01*
G01X797286Y4652947D01*
G01X800334Y4662091D01*
G01X806430Y4668441D01*
G01X818876Y4671489D01*
G01X834370Y4671489D01*
G01X849864Y4668441D01*
G01X859262Y4662091D01*
G01X862310Y4652947D01*
G01X862310Y4646597D01*
G01X859262Y4637453D01*
G01X852912Y4634405D01*
G01X1305286Y4484291D02*
G01X1370310Y4484291D01*
G01X1305286Y4484291D02*
G01X1305286Y4512231D01*
G01X1308334Y4521375D01*
G01X1311382Y4524423D01*
G01X1317732Y4527725D01*
G01X1323828Y4527725D01*
G01X1329924Y4524423D01*
G01X1332972Y4521375D01*
G01X1336274Y4512231D01*
G01X1336274Y4484291D01*
G01X1336274Y4505881D02*
G01X1370310Y4527725D01*
G01X1305286Y4564047D02*
G01X1305286Y4598083D01*
G01X1329924Y4579541D01*
G01X1329924Y4588685D01*
G01X1332972Y4595035D01*
G01X1336274Y4598083D01*
G01X1345418Y4601131D01*
G01X1351768Y4601131D01*
G01X1360912Y4598083D01*
G01X1367262Y4591987D01*
G01X1370310Y4582589D01*
G01X1370310Y4573191D01*
G01X1367262Y4564047D01*
G01X1363960Y4560999D01*
G01X1357864Y4557951D01*
G01X1305286Y4649899D02*
G01X1308334Y4640501D01*
G01X1317732Y4634405D01*
G01X1332972Y4631357D01*
G01X1342370Y4631357D01*
G01X1357864Y4634405D01*
G01X1367262Y4640501D01*
G01X1370310Y4649899D01*
G01X1370310Y4655995D01*
G01X1367262Y4665393D01*
G01X1357864Y4671489D01*
G01X1342370Y4674537D01*
G01X1332972Y4674537D01*
G01X1317732Y4671489D01*
G01X1308334Y4665393D01*
G01X1305286Y4655995D01*
G01X1305286Y4649899D01*
G01X2791475Y3347780D02*
G01X2744993Y3347780D01*
G01X2735849Y3344732D01*
G01X2729499Y3338382D01*
G01X2726451Y3329238D01*
G01X2726451Y3322888D01*
G01X2729499Y3313744D01*
G01X2735849Y3307648D01*
G01X2744993Y3304346D01*
G01X2791475Y3304346D01*
G01X2791475Y3258880D02*
G01X2788427Y3268024D01*
G01X2782331Y3271072D01*
G01X2775981Y3271072D01*
G01X2769885Y3268024D01*
G01X2766837Y3261928D01*
G01X2763789Y3249482D01*
G01X2760487Y3240084D01*
G01X2754391Y3233988D01*
G01X2748295Y3230940D01*
G01X2738897Y3230940D01*
G01X2732801Y3233988D01*
G01X2729499Y3237036D01*
G01X2726451Y3246434D01*
G01X2726451Y3258880D01*
G01X2729499Y3268024D01*
G01X2732801Y3271072D01*
G01X2738897Y3274120D01*
G01X2748295Y3274120D01*
G01X2754391Y3271072D01*
G01X2760487Y3264976D01*
G01X2763789Y3255578D01*
G01X2766837Y3243386D01*
G01X2769885Y3237036D01*
G01X2775981Y3233988D01*
G01X2782331Y3233988D01*
G01X2788427Y3237036D01*
G01X2791475Y3246434D01*
G01X2791475Y3258880D01*
G01X425099Y3422406D02*
G01X425099Y3375924D01*
G01X428147Y3366780D01*
G01X434497Y3360430D01*
G01X443641Y3357382D01*
G01X449991Y3357382D01*
G01X459135Y3360430D01*
G01X465231Y3366780D01*
G01X468533Y3375924D01*
G01X468533Y3422406D01*
G01X541939Y3422406D02*
G01X510951Y3357382D01*
G01X498759Y3422406D02*
G01X541939Y3422406D01*
G01X1080567Y2416793D02*
G01X1083615Y2410697D01*
G01X1089711Y2404347D01*
G01X1096061Y2401299D01*
G01X1105205Y2398251D01*
G01X1120699Y2398251D01*
G01X1130097Y2401299D01*
G01X1136193Y2404347D01*
G01X1142543Y2410697D01*
G01X1145591Y2416793D01*
G01X1145591Y2429239D01*
G01X1142543Y2435335D01*
G01X1136193Y2441685D01*
G01X1130097Y2444733D01*
G01X1120699Y2447781D01*
G01X1105205Y2447781D01*
G01X1096061Y2444733D01*
G01X1089711Y2441685D01*
G01X1083615Y2435335D01*
G01X1080567Y2429239D01*
G01X1080567Y2416793D01*
G01X1133145Y2426191D02*
G01X1151687Y2444733D01*
G01X1096061Y2481055D02*
G01X1093013Y2481055D01*
G01X1086663Y2484103D01*
G01X1083615Y2487151D01*
G01X1080567Y2493247D01*
G01X1080567Y2505693D01*
G01X1083615Y2512043D01*
G01X1086663Y2515091D01*
G01X1093013Y2518139D01*
G01X1099109Y2518139D01*
G01X1105205Y2515091D01*
G01X1114603Y2508741D01*
G01X1145591Y2478007D01*
G01X1145591Y2521187D01*
G01X1120140Y3070098D02*
G01X1126490Y3073146D01*
G01X1132586Y3079496D01*
G01X1135634Y3085592D01*
G01X1135634Y3098038D01*
G01X1132586Y3104134D01*
G01X1126490Y3110484D01*
G01X1120140Y3113532D01*
G01X1110996Y3116580D01*
G01X1095502Y3116580D01*
G01X1086104Y3113532D01*
G01X1080008Y3110484D01*
G01X1073658Y3104134D01*
G01X1070610Y3098038D01*
G01X1070610Y3085592D01*
G01X1073658Y3079496D01*
G01X1080008Y3073146D01*
G01X1086104Y3070098D01*
G01X1120140Y3036824D02*
G01X1123188Y3036824D01*
G01X1129538Y3033776D01*
G01X1132586Y3030728D01*
G01X1135634Y3024632D01*
G01X1135634Y3012186D01*
G01X1132586Y3005836D01*
G01X1129538Y3002788D01*
G01X1123188Y2999740D01*
G01X1117092Y2999740D01*
G01X1110996Y3002788D01*
G01X1101598Y3009138D01*
G01X1070610Y3039872D01*
G01X1070610Y2996692D01*
G01X1135634Y2929382D02*
G01X1135634Y2960370D01*
G01X1107948Y2963418D01*
G01X1110996Y2960370D01*
G01X1114044Y2951226D01*
G01X1114044Y2941828D01*
G01X1110996Y2932430D01*
G01X1104646Y2926334D01*
G01X1095502Y2923286D01*
G01X1089152Y2923286D01*
G01X1080008Y2926334D01*
G01X1073658Y2932430D01*
G01X1070610Y2941828D01*
G01X1070610Y2951226D01*
G01X1073658Y2960370D01*
G01X1076960Y2963418D01*
G01X1083056Y2966466D01*
G01X1276194Y1088669D02*
G01X1279100Y1095085D01*
G01X1279688Y1103868D01*
G01X1278104Y1110497D01*
G01X1270104Y1120031D01*
G01X1263851Y1122742D01*
G01X1255099Y1123688D01*
G01X1248276Y1121941D01*
G01X1239312Y1118398D01*
G01X1227443Y1108439D01*
G01X1222203Y1100063D01*
G01X1219492Y1093810D01*
G01X1218709Y1084864D01*
G01X1220293Y1078235D01*
G01X1228293Y1068700D01*
G01X1234546Y1065990D01*
G01X1243492Y1065207D01*
G01X1250121Y1066791D01*
G01X1335248Y1042396D02*
G01X1265518Y1024337D01*
G01X1307492Y1075473D02*
G01X1335248Y1042396D01*
G01X1544320Y4602734D02*
G01X1544320Y4537710D01*
G01X1544320Y4537710D02*
G01X1581404Y4537710D01*
G01X1611630Y4602734D02*
G01X1611630Y4537710D01*
G01X1611630Y4602734D02*
G01X1651762Y4602734D01*
G01X1611630Y4571746D02*
G01X1636268Y4571746D01*
G01X1611630Y4537710D02*
G01X1651762Y4537710D01*
G01X1681988Y4602734D02*
G01X1681988Y4537710D01*
G01X1681988Y4602734D02*
G01X1703578Y4602734D01*
G01X1712722Y4599686D01*
G01X1719072Y4593590D01*
G01X1722120Y4587240D01*
G01X1725168Y4578096D01*
G01X1725168Y4562602D01*
G01X1722120Y4553204D01*
G01X1719072Y4547108D01*
G01X1712722Y4540758D01*
G01X1703578Y4537710D01*
G01X1681988Y4537710D01*
G01X1761490Y4602734D02*
G01X1795526Y4602734D01*
G01X1776984Y4578096D01*
G01X1786128Y4578096D01*
G01X1792478Y4575048D01*
G01X1795526Y4571746D01*
G01X1798574Y4562602D01*
G01X1798574Y4556252D01*
G01X1795526Y4547108D01*
G01X1789430Y4540758D01*
G01X1780032Y4537710D01*
G01X1770634Y4537710D01*
G01X1761490Y4540758D01*
G01X1758442Y4544060D01*
G01X1755394Y4550156D01*
G01X2142119Y3770287D02*
G01X2142119Y3705263D01*
G01X2142119Y3770287D02*
G01X2163709Y3770287D01*
G01X2173107Y3767239D01*
G01X2179203Y3761143D01*
G01X2182251Y3754793D01*
G01X2185553Y3745649D01*
G01X2185553Y3730155D01*
G01X2182251Y3720757D01*
G01X2179203Y3714661D01*
G01X2173107Y3708311D01*
G01X2163709Y3705263D01*
G01X2142119Y3705263D01*
G01X2246513Y3770287D02*
G01X2215779Y3727107D01*
G01X2262007Y3727107D01*
G01X2246513Y3770287D02*
G01X2246513Y3705263D01*
G01X976427Y2330400D02*
G01X926616Y2288604D01*
G01X976427Y2330400D02*
G01X994386Y2308997D01*
G01X997929Y2300033D01*
G01X997553Y2295739D01*
G01X994812Y2289128D01*
G01X990142Y2285210D01*
G01X983349Y2283821D01*
G01X979055Y2284196D01*
G01X970648Y2289079D01*
G01X952689Y2310482D01*
G01X966566Y2293943D02*
G01X954534Y2255332D01*
G01X1033571Y2262299D02*
G01X1025358Y2267345D01*
G01X1018729Y2265761D01*
G01X1013865Y2261679D01*
G01X1011154Y2255426D01*
G01X1012738Y2248797D01*
G01X1018403Y2237304D01*
G01X1021914Y2227982D01*
G01X1021163Y2219394D01*
G01X1018452Y2213140D01*
G01X1011253Y2207099D01*
G01X1004624Y2205516D01*
G01X1000135Y2205728D01*
G01X991760Y2210968D01*
G01X983759Y2220503D01*
G01X980217Y2229466D01*
G01X980787Y2233924D01*
G01X983498Y2240177D01*
G01X990697Y2246218D01*
G01X997326Y2247802D01*
G01X1005914Y2247050D01*
G01X1014484Y2241973D01*
G01X1024656Y2234593D01*
G01X1031073Y2231688D01*
G01X1037702Y2233271D01*
G01X1042566Y2237353D01*
G01X1045277Y2243606D01*
G01X1041571Y2252765D01*
G01X1033571Y2262299D01*
G04 Text End*

G04 PolygonModel Start*
G54D11*
G01X860981Y3396143D02*
G01X780984Y3396143D01*
G01X917026Y3396097D02*
G01X997024Y3396097D01*
G01X860981Y3538111D02*
G01X780984Y3538111D01*
G01X917026Y3538063D02*
G01X997024Y3538063D01*
G01X750009Y3427125D02*
G01X750009Y3507130D01*
G01X1028002Y3507077D02*
G01X1028002Y3427075D01*
G01X997019Y3538063D02*
G02X1028002Y3507077I0J-30983D01*
G01X1028002Y3427080D02*
G02X997019Y3396097I-30983J0D01*
G01X780989Y3396143D02*
G02X750009Y3427125I3J30983D01*
G01X750009Y3507123D02*
G02X780989Y3538111I30983J5D01*
G54D12*
G01X2081332Y1155103D02*
G01X2106732Y1155103D01*
G01X2094032Y1167803D02*
G01X2094032Y1154798D01*
G01X2094032Y1154798D02*
G01X2106732Y1129703D01*
G01X2106732Y1129703D02*
G01X2081332Y1129703D01*
G01X2081332Y1129703D02*
G01X2093732Y1154880D01*
G01X2094032Y1142403D02*
G01X2094032Y1155408D01*
G01X2094032Y1155408D02*
G01X2081332Y1180503D01*
G01X2081332Y1180503D02*
G01X2106732Y1180503D01*
G01X2106732Y1180503D02*
G01X2094339Y1155327D01*
G54D11*
G01X2163983Y1070188D02*
G01X2163983Y1240191D01*
G01X2023984Y1070188D02*
G01X2023984Y1240191D01*
G01X2197496Y3650653D02*
G01X2497496Y3650653D01*
G01X2198832Y3462685D02*
G01X2498832Y3462685D01*
G01X2273300Y3556000D02*
G01X2425700Y3556000D01*
G01X2298700Y3606800D02*
G01X2298700Y3505200D01*
G01X2400300Y3515360D02*
G01X2298700Y3556000D01*
G01X2400300Y3596640D02*
G01X2400300Y3515360D01*
G01X2298700Y3556000D02*
G01X2400300Y3596640D01*
G01X1937347Y3365896D02*
G01X1937347Y3665896D01*
G01X2125315Y3367232D02*
G01X2125315Y3667232D01*
G01X2032000Y3441700D02*
G01X2032000Y3594100D01*
G01X1981200Y3467100D02*
G01X2082800Y3467100D01*
G01X2072640Y3568700D02*
G01X2032000Y3467100D01*
G01X1991360Y3568700D02*
G01X2072640Y3568700D01*
G01X2032000Y3467100D02*
G01X1991360Y3568700D01*
G01X1515900Y375087D02*
G01X1615900Y375087D01*
G01X1615900Y375087D02*
G01X1615900Y374452D01*
G01X1355900Y374452D02*
G01X1355900Y375087D01*
G01X1355900Y375087D02*
G01X1450901Y375087D01*
G01X1450901Y375087D02*
G01X1450901Y400086D01*
G01X1450901Y400086D02*
G01X1515900Y400086D01*
G01X1515900Y400086D02*
G01X1515900Y375087D01*
G01X1559014Y101638D02*
G01X1612900Y101638D01*
G01X1612900Y101638D02*
G01X1612900Y108224D01*
G01X1358900Y108224D02*
G01X1358900Y101638D01*
G01X1358900Y101638D02*
G01X1412786Y101638D01*
G54D10*
G01X723900Y154036D02*
G01X739310Y138801D01*
G01X739310Y138801D02*
G01X739310Y37158D01*
G01X739310Y37158D02*
G01X723900Y23901D01*
G01X469900Y23901D02*
G01X454485Y39002D01*
G01X454485Y39002D02*
G01X454485Y140645D01*
G01X454485Y140645D02*
G01X469900Y153901D01*
G54D13*
G01X724101Y23901D02*
G01X647901Y23901D01*
G01X469694Y153901D02*
G01X545894Y153901D01*
G01X724101Y153901D02*
G01X647901Y153901D01*
G01X469694Y23901D02*
G01X545894Y23901D01*
G54D10*
G01X1955800Y623936D02*
G01X1971210Y608701D01*
G01X1971210Y608701D02*
G01X1971210Y507058D01*
G01X1971210Y507058D02*
G01X1955800Y493801D01*
G01X1701800Y493801D02*
G01X1686385Y508902D01*
G01X1686385Y508902D02*
G01X1686385Y610545D01*
G01X1686385Y610545D02*
G01X1701800Y623801D01*
G54D13*
G01X1956001Y493801D02*
G01X1879801Y493801D01*
G01X1701594Y623801D02*
G01X1777794Y623801D01*
G01X1956001Y623801D02*
G01X1879801Y623801D01*
G01X1701594Y493801D02*
G01X1777794Y493801D01*
G54D14*
G01X1466245Y4257860D02*
G01X1466245Y4258851D01*
G01X1466245Y4258851D02*
G01X1499248Y4291861D01*
G01X1534249Y4257860D02*
G01X1533248Y4257860D01*
G01X1533248Y4257860D02*
G01X1499248Y4291861D01*
G01X1534249Y4257860D02*
G01X1466245Y4257860D01*
G01X1574251Y4255856D02*
G01X1574251Y4140850D01*
G01X1424239Y4255856D02*
G01X1424239Y4140850D01*
G01X1574246Y4140850D02*
G01X1426248Y4140850D01*
G01X1424010Y4293857D02*
G01X1424010Y4398869D01*
G01X1464020Y4428863D02*
G01X1454018Y4428863D01*
G01X1454018Y4428863D02*
G01X1424010Y4398869D01*
G01X1534013Y4428863D02*
G01X1464020Y4428863D01*
G01X1534013Y4428863D02*
G01X1544028Y4428863D01*
G01X1544028Y4428863D02*
G01X1574023Y4398869D01*
G01X1574023Y4293857D02*
G01X1574023Y4398869D01*
G01X1499248Y4257860D02*
G01X1499248Y4291861D01*
G01X1237653Y4257858D02*
G01X1237653Y4258854D01*
G01X1237653Y4258854D02*
G01X1270658Y4291858D01*
G01X1305657Y4257858D02*
G01X1304658Y4257858D01*
G01X1304658Y4257858D02*
G01X1270658Y4291858D01*
G01X1305657Y4257858D02*
G01X1237653Y4257858D01*
G01X1345664Y4255854D02*
G01X1345664Y4140853D01*
G01X1195652Y4255854D02*
G01X1195652Y4140853D01*
G01X1345654Y4140853D02*
G01X1197661Y4140853D01*
G01X1195421Y4293855D02*
G01X1195421Y4398866D01*
G01X1235428Y4428861D02*
G01X1225426Y4428861D01*
G01X1225426Y4428861D02*
G01X1195421Y4398866D01*
G01X1305423Y4428861D02*
G01X1235428Y4428861D01*
G01X1305423Y4428861D02*
G01X1315438Y4428861D01*
G01X1315438Y4428861D02*
G01X1345433Y4398866D01*
G01X1345433Y4293855D02*
G01X1345433Y4398866D01*
G01X1270658Y4257858D02*
G01X1270658Y4291858D01*
G54D11*
G01X2534900Y4516699D02*
G01X2534900Y4436699D01*
G01X2554910Y4216624D02*
G01X2594915Y4216624D01*
G01X2594915Y4216624D02*
G01X2594902Y4176624D01*
G01X2594902Y4176624D02*
G01X2554910Y4216624D01*
G01X2224900Y3666701D02*
G01X2224900Y3726701D01*
G01X2194900Y3696701D02*
G01X2254900Y3696701D01*
G01X2124913Y4326649D02*
G01X2151888Y4326649D01*
G01X2297938Y4326649D02*
G01X2451862Y4326649D01*
G01X2597912Y4326649D02*
G01X2624912Y4326649D01*
G01X2124913Y3826650D02*
G01X2151888Y3826650D01*
G01X2297938Y3826650D02*
G01X2451862Y3826650D01*
G01X2597912Y3826650D02*
G01X2624912Y3826650D01*
G01X2124913Y3826650D02*
G01X2124913Y4326649D01*
G01X2624912Y3826650D02*
G01X2624912Y4326649D01*
G54D14*
G01X1783753Y4257858D02*
G01X1783753Y4258854D01*
G01X1783753Y4258854D02*
G01X1816758Y4291858D01*
G01X1851757Y4257858D02*
G01X1850758Y4257858D01*
G01X1850758Y4257858D02*
G01X1816758Y4291858D01*
G01X1851757Y4257858D02*
G01X1783753Y4257858D01*
G01X1891764Y4255854D02*
G01X1891764Y4140853D01*
G01X1741752Y4255854D02*
G01X1741752Y4140853D01*
G01X1891754Y4140853D02*
G01X1743761Y4140853D01*
G01X1741521Y4293855D02*
G01X1741521Y4398866D01*
G01X1781528Y4428861D02*
G01X1771526Y4428861D01*
G01X1771526Y4428861D02*
G01X1741521Y4398866D01*
G01X1851523Y4428861D02*
G01X1781528Y4428861D01*
G01X1851523Y4428861D02*
G01X1861538Y4428861D01*
G01X1861538Y4428861D02*
G01X1891533Y4398866D01*
G01X1891533Y4293855D02*
G01X1891533Y4398866D01*
G01X1816758Y4257858D02*
G01X1816758Y4291858D01*
G54D11*
G01X1123899Y2581910D02*
G01X1123899Y2500401D01*
G01X1123899Y2500401D02*
G01X1057910Y2500401D01*
G01X897890Y2500401D02*
G01X831901Y2500401D01*
G01X831901Y2500401D02*
G01X897890Y2500401D01*
G01X897890Y2500401D02*
G01X831901Y2500401D01*
G01X831901Y2500401D02*
G01X831901Y2581910D01*
G54D15*
G01X1007897Y2655392D02*
G01X947903Y2655392D01*
G54D11*
G01X1492199Y2594610D02*
G01X1492199Y2513101D01*
G01X1492199Y2513101D02*
G01X1426210Y2513101D01*
G01X1266190Y2513101D02*
G01X1200201Y2513101D01*
G01X1200201Y2513101D02*
G01X1266190Y2513101D01*
G01X1266190Y2513101D02*
G01X1200201Y2513101D01*
G01X1200201Y2513101D02*
G01X1200201Y2594610D01*
G54D15*
G01X1376197Y2668092D02*
G01X1316203Y2668092D01*
G54D10*
G01X903891Y2033088D02*
G01X965527Y1959633D01*
G01X965527Y1959633D02*
G01X1066737Y2044559D01*
G01X1066737Y2044559D02*
G01X1005102Y2118013D01*
G01X849098Y2098387D02*
G01X787463Y2171841D01*
G01X787463Y2171841D02*
G01X888673Y2256767D01*
G01X888673Y2256767D02*
G01X950309Y2183312D01*
G01X588721Y1965940D02*
G01X684609Y1965940D01*
G01X684609Y1965940D02*
G01X684609Y2098060D01*
G01X684609Y2098060D02*
G01X588721Y2098060D01*
G01X503479Y1965940D02*
G01X407591Y1965940D01*
G01X407591Y1965940D02*
G01X407591Y2098060D01*
G01X407591Y2098060D02*
G01X503479Y2098060D01*
G01X1361460Y3001721D02*
G01X1361460Y3097609D01*
G01X1361460Y3097609D02*
G01X1229340Y3097609D01*
G01X1229340Y3097609D02*
G01X1229340Y3001721D01*
G01X1361460Y2916479D02*
G01X1361460Y2820591D01*
G01X1361460Y2820591D02*
G01X1229340Y2820591D01*
G01X1229340Y2820591D02*
G01X1229340Y2916479D01*
G01X1432540Y2916479D02*
G01X1432540Y2820591D01*
G01X1432540Y2820591D02*
G01X1564660Y2820591D01*
G01X1564660Y2820591D02*
G01X1564660Y2916479D01*
G01X1432540Y3001721D02*
G01X1432540Y3097609D01*
G01X1432540Y3097609D02*
G01X1564660Y3097609D01*
G01X1564660Y3097609D02*
G01X1564660Y3001721D01*
G54D13*
G01X470479Y3938720D02*
G01X470479Y3895613D01*
G01X470479Y3630480D02*
G01X470479Y3673587D01*
G01X875721Y3673587D02*
G01X875721Y3630480D01*
G01X875721Y3938720D02*
G01X875721Y3895613D01*
G54D10*
G01X875721Y3938720D02*
G01X470479Y3938720D01*
G01X875721Y3630480D02*
G01X470479Y3630480D01*
G54D13*
G01X470479Y4434020D02*
G01X470479Y4390913D01*
G01X470479Y4125780D02*
G01X470479Y4168887D01*
G01X875721Y4168887D02*
G01X875721Y4125780D01*
G01X875721Y4434020D02*
G01X875721Y4390913D01*
G54D10*
G01X875721Y4434020D02*
G01X470479Y4434020D01*
G01X875721Y4125780D02*
G01X470479Y4125780D01*
G01X1103974Y1768462D02*
G01X1056336Y1816100D01*
G01X1056336Y1816100D02*
G01X1103974Y1863738D01*
G01X1609728Y2274215D02*
G01X1562089Y2321854D01*
G01X1562089Y2321854D02*
G01X1514453Y2274217D01*
G01X1514453Y1357983D02*
G01X1562089Y1310346D01*
G01X1562089Y1310346D02*
G01X1609728Y1357985D01*
G01X2020206Y1863737D02*
G01X2067843Y1816100D01*
G01X2067843Y1816100D02*
G01X2020206Y1768463D01*
G01X929521Y1148240D02*
G01X929521Y705960D01*
G01X929521Y705960D02*
G01X391279Y705960D01*
G01X391279Y705960D02*
G01X391279Y1148240D01*
G01X391279Y1148240D02*
G01X929521Y1148240D01*
G54D13*
G01X439001Y5448219D02*
G01X439001Y5455625D01*
G01X439001Y5045220D02*
G01X439001Y5237058D01*
G01X1338997Y5237058D02*
G01X1338997Y5045217D01*
G01X1338997Y5455625D02*
G01X1338997Y5448219D01*
G54D14*
G01X1338974Y5493258D02*
G01X1338974Y5602732D01*
G01X1338974Y5602732D02*
G01X936384Y5602732D01*
G01X936384Y5602732D02*
G01X439052Y5602732D01*
G01X439052Y5602732D02*
G01X439052Y5493258D01*
G01X1338997Y5499692D02*
G01X1338997Y5455625D01*
G01X439001Y5493187D02*
G01X439001Y5455625D01*
G01X439001Y5282227D02*
G01X439001Y5299796D01*
G54D13*
G01X1658201Y5448219D02*
G01X1658201Y5455625D01*
G01X1658201Y5045220D02*
G01X1658201Y5237058D01*
G01X2558197Y5237058D02*
G01X2558197Y5045217D01*
G01X2558197Y5455625D02*
G01X2558197Y5448219D01*
G54D14*
G01X2558174Y5493258D02*
G01X2558174Y5602732D01*
G01X2558174Y5602732D02*
G01X2155584Y5602732D01*
G01X2155584Y5602732D02*
G01X1658252Y5602732D01*
G01X1658252Y5602732D02*
G01X1658252Y5493258D01*
G01X2558197Y5499692D02*
G01X2558197Y5455625D01*
G01X1658201Y5493187D02*
G01X1658201Y5455625D01*
G01X1658201Y5282227D02*
G01X1658201Y5299796D01*
G54D11*
G01X710989Y2982732D02*
G01X750237Y2982732D01*
G01X450235Y3282734D02*
G01X450235Y3243539D01*
G01X450235Y3022313D02*
G01X450235Y2982732D01*
G01X750237Y2982732D02*
G01X750237Y3022313D01*
G01X750237Y3243539D02*
G01X750237Y3282734D01*
G01X450235Y3282734D02*
G01X489763Y3282734D01*
G01X710837Y3282734D02*
G01X750237Y3282734D01*
G01X450235Y2982732D02*
G01X489763Y2982732D01*
G54D10*
G01X1996679Y3086039D02*
G01X2676921Y3086039D01*
G01X2676921Y3086039D02*
G01X2676921Y2806761D01*
G01X2676921Y2806761D02*
G01X1996679Y2806761D01*
G01X1996679Y2806761D02*
G01X1996679Y3086039D01*
G01X2210140Y1826052D02*
G01X2210140Y2161774D01*
G01X2210140Y2161774D02*
G01X2615860Y2161774D01*
G01X2615860Y2161774D02*
G01X2615860Y1826052D01*
G01X2615860Y1826052D02*
G01X2210140Y1826052D01*
G01X2187280Y1968911D02*
G01X2187280Y1803192D01*
G01X2187280Y1803192D02*
G01X2373000Y1803192D01*
G01X1560442Y1189356D02*
G01X1522140Y1157217D01*
G01X1517817Y1263868D02*
G01X1562324Y1210827D01*
G01X1458043Y1233605D02*
G01X1496345Y1265745D01*
G01X1385959Y1172842D02*
G01X1424262Y1204981D01*
G01X1488356Y1128597D02*
G01X1450053Y1096457D01*
G01X1428584Y1098330D02*
G01X1384076Y1151373D01*
G01X1450055Y1096455D02*
G02X1428585Y1098334I-9796J11675D01*
G01X1384078Y1151375D02*
G02X1385956Y1172846I11675J9796D01*
G01X1496345Y1265745D02*
G02X1517815Y1263866I9796J-11675D01*
G01X1562322Y1210825D02*
G02X1560444Y1189354I-11675J-9796D01*
G01X1867946Y2391661D02*
G01X1867946Y2441661D01*
G01X1952424Y2376419D02*
G01X1883184Y2376419D01*
G01X1967664Y2441661D02*
G01X1967664Y2391661D01*
G01X1967451Y2535939D02*
G01X1967451Y2485939D01*
G01X1867738Y2485939D02*
G01X1867738Y2535939D01*
G01X1882973Y2551181D02*
G01X1952216Y2551181D01*
G01X1867736Y2535939D02*
G02X1882976Y2551179I15240J0D01*
G01X1952216Y2551179D02*
G02X1967456Y2535939I0J-15240D01*
G01X1967664Y2391661D02*
G02X1952424Y2376421I-15240J0D01*
G01X1883184Y2376421D02*
G02X1867944Y2391661I0J15240D01*
G01X2378961Y2513554D02*
G01X2428961Y2513554D01*
G01X2363719Y2429076D02*
G01X2363719Y2498316D01*
G01X2428961Y2413836D02*
G01X2378961Y2413836D01*
G01X2523239Y2414049D02*
G01X2473239Y2414049D01*
G01X2473239Y2513762D02*
G01X2523239Y2513762D01*
G01X2538481Y2498527D02*
G01X2538481Y2429284D01*
G01X2523239Y2513764D02*
G02X2538479Y2498524I0J-15240D01*
G01X2538479Y2429284D02*
G02X2523239Y2414044I-15240J0D01*
G01X2378961Y2413836D02*
G02X2363721Y2429076I0J15240D01*
G01X2363721Y2498316D02*
G02X2378961Y2513556I15240J0D01*
G01X2523239Y2299746D02*
G01X2473239Y2299746D01*
G01X2538481Y2384224D02*
G01X2538481Y2314984D01*
G01X2473239Y2399464D02*
G01X2523239Y2399464D01*
G01X2378961Y2399251D02*
G01X2428961Y2399251D01*
G01X2428961Y2299538D02*
G01X2378961Y2299538D01*
G01X2363719Y2314773D02*
G01X2363719Y2384016D01*
G01X2378961Y2299536D02*
G02X2363721Y2314776I0J15240D01*
G01X2363721Y2384016D02*
G02X2378961Y2399256I15240J0D01*
G01X2523239Y2399464D02*
G02X2538479Y2384224I0J-15240D01*
G01X2538479Y2314984D02*
G02X2523239Y2299744I-15240J0D01*
G01X895038Y633118D02*
G01X895038Y492117D01*
G01X1075759Y492117D02*
G01X1075759Y633118D01*
G01X1060519Y648358D02*
G01X910278Y648358D01*
G01X895038Y270878D02*
G01X895038Y411879D01*
G01X1075759Y411879D02*
G01X1075759Y270878D01*
G01X1060519Y255638D02*
G01X910278Y255638D01*
G01X1075759Y633118D02*
G03X1060519Y648358I-15240J0D01*
G01X910278Y648358D02*
G03X895038Y633118I0J-15240D01*
G01X1075759Y270878D02*
G02X1060519Y255638I-15240J0D01*
G01X910278Y255638D02*
G02X895038Y270878I0J15240D01*
G01X2594120Y1690561D02*
G01X2453119Y1690561D01*
G01X2453119Y1509840D02*
G01X2594120Y1509840D01*
G01X2609360Y1525080D02*
G01X2609360Y1675321D01*
G01X2231880Y1690561D02*
G01X2372881Y1690561D01*
G01X2372881Y1509840D02*
G01X2231880Y1509840D01*
G01X2216640Y1525080D02*
G01X2216640Y1675321D01*
G01X2594120Y1509840D02*
G03X2609360Y1525080I0J15240D01*
G01X2609360Y1675321D02*
G03X2594120Y1690561I-15240J0D01*
G01X2231880Y1509840D02*
G02X2216640Y1525080I0J15240D01*
G01X2216640Y1675321D02*
G02X2231880Y1690561I15240J0D01*
G01X1484242Y1278256D02*
G01X1445940Y1246117D01*
G01X1441617Y1352768D02*
G01X1486124Y1299727D01*
G01X1381843Y1322505D02*
G01X1420145Y1354645D01*
G01X1309759Y1261742D02*
G01X1348062Y1293881D01*
G01X1412156Y1217497D02*
G01X1373853Y1185357D01*
G01X1352384Y1187230D02*
G01X1307876Y1240273D01*
G01X1373855Y1185355D02*
G02X1352385Y1187234I-9796J11675D01*
G01X1307878Y1240275D02*
G02X1309756Y1261746I11675J9796D01*
G01X1420145Y1354645D02*
G02X1441615Y1352766I9796J-11675D01*
G01X1486122Y1299725D02*
G02X1484244Y1278254I-11675J-9796D01*
G01X1495987Y952323D02*
G01X1400534Y1066080D01*
G01X1233137Y925617D02*
G01X1328590Y811860D01*
G01X1350061Y809982D02*
G01X1494109Y930852D01*
G01X1186010Y1321740D02*
G01X1281463Y1207983D01*
G01X1114066Y1067520D02*
G01X1018613Y1181277D01*
G01X1020491Y1202748D02*
G01X1164539Y1323618D01*
G01X1328590Y811860D02*
G03X1350061Y809982I11675J9796D01*
G01X1494109Y930852D02*
G03X1495987Y952323I-9796J11675D01*
G01X1018613Y1181277D02*
G02X1020491Y1202748I11675J9796D01*
G01X1164539Y1323618D02*
G02X1186010Y1321740I9796J-11675D01*
G01X1040354Y3094739D02*
G01X1040354Y3044739D01*
G01X955876Y3109981D02*
G01X1025116Y3109981D01*
G01X940636Y3044739D02*
G01X940636Y3094739D01*
G01X940849Y2950461D02*
G01X940849Y3000461D01*
G01X1040562Y3000461D02*
G01X1040562Y2950461D01*
G01X1025327Y2935219D02*
G01X956084Y2935219D01*
G01X1040564Y2950461D02*
G02X1025324Y2935221I-15240J0D01*
G01X956084Y2935221D02*
G02X940844Y2950461I0J15240D01*
G01X940636Y3094739D02*
G02X955876Y3109979I15240J0D01*
G01X1025116Y3109979D02*
G02X1040356Y3094739I0J-15240D01*
G01X829561Y138654D02*
G01X879561Y138654D01*
G01X814319Y54176D02*
G01X814319Y123416D01*
G01X879561Y38936D02*
G01X829561Y38936D01*
G01X973839Y39149D02*
G01X923839Y39149D01*
G01X923839Y138862D02*
G01X973839Y138862D01*
G01X989081Y123627D02*
G01X989081Y54384D01*
G01X973839Y138864D02*
G02X989079Y123624I0J-15240D01*
G01X989079Y54384D02*
G02X973839Y39144I-15240J0D01*
G01X829561Y38936D02*
G02X814321Y54176I0J15240D01*
G01X814321Y123416D02*
G02X829561Y138656I15240J0D01*
G01X1080546Y372361D02*
G01X1080546Y422361D01*
G01X1165024Y357119D02*
G01X1095784Y357119D01*
G01X1180264Y422361D02*
G01X1180264Y372361D01*
G01X1180051Y516639D02*
G01X1180051Y466639D01*
G01X1080338Y466639D02*
G01X1080338Y516639D01*
G01X1095573Y531881D02*
G01X1164816Y531881D01*
G01X1080336Y516639D02*
G02X1095576Y531879I15240J0D01*
G01X1164816Y531879D02*
G02X1180056Y516639I0J-15240D01*
G01X1180264Y372361D02*
G02X1165024Y357121I-15240J0D01*
G01X1095784Y357121D02*
G02X1080544Y372361I0J15240D01*
G01X618239Y2795046D02*
G01X568239Y2795046D01*
G01X633481Y2879524D02*
G01X633481Y2810284D01*
G01X568239Y2894764D02*
G01X618239Y2894764D01*
G01X473961Y2894551D02*
G01X523961Y2894551D01*
G01X523961Y2794838D02*
G01X473961Y2794838D01*
G01X458719Y2810073D02*
G01X458719Y2879316D01*
G01X473961Y2794836D02*
G02X458721Y2810076I0J15240D01*
G01X458721Y2879316D02*
G02X473961Y2894556I15240J0D01*
G01X618239Y2894764D02*
G02X633479Y2879524I0J-15240D01*
G01X633479Y2810284D02*
G02X618239Y2795044I-15240J0D01*
G54D11*
G01X1957053Y2320267D02*
G01X2018335Y2371688D01*
G01X1914091Y2284277D02*
G01X1852809Y2232855D01*
G01X2048308Y2211513D02*
G01X2109590Y2262934D01*
G01X2005344Y2175525D02*
G01X1944063Y2124103D01*
G01X2061978Y2367864D02*
G01X2113405Y2306577D01*
G01X1900415Y2127927D02*
G01X1848991Y2189213D01*
G01X1944067Y2124107D02*
G02X1900415Y2127927I-19915J23734D01*
G01X1848994Y2189209D02*
G02X1852813Y2232859I23734J19915D01*
G01X2018331Y2371685D02*
G02X2061978Y2367864I19913J-23736D01*
G01X2113400Y2306583D02*
G02X2109586Y2262931I-23731J-19919D01*
G54D10*
G01X1096261Y138654D02*
G01X1146261Y138654D01*
G01X1081019Y54176D02*
G01X1081019Y123416D01*
G01X1146261Y38936D02*
G01X1096261Y38936D01*
G01X1240539Y39149D02*
G01X1190539Y39149D01*
G01X1190539Y138862D02*
G01X1240539Y138862D01*
G01X1255781Y123627D02*
G01X1255781Y54384D01*
G01X1240539Y138864D02*
G02X1255779Y123624I0J-15240D01*
G01X1255779Y54384D02*
G02X1240539Y39144I-15240J0D01*
G01X1096261Y38936D02*
G02X1081021Y54176I0J15240D01*
G01X1081021Y123416D02*
G02X1096261Y138656I15240J0D01*
G01X1867946Y194561D02*
G01X1867946Y244561D01*
G01X1952424Y179319D02*
G01X1883184Y179319D01*
G01X1967664Y244561D02*
G01X1967664Y194561D01*
G01X1967451Y338839D02*
G01X1967451Y288839D01*
G01X1867738Y288839D02*
G01X1867738Y338839D01*
G01X1882973Y354081D02*
G01X1952216Y354081D01*
G01X1867736Y338839D02*
G02X1882976Y354079I15240J0D01*
G01X1952216Y354079D02*
G02X1967456Y338839I0J-15240D01*
G01X1967664Y194561D02*
G02X1952424Y179321I-15240J0D01*
G01X1883184Y179321D02*
G02X1867944Y194561I0J15240D01*
G54D11*
G01X2441019Y1493357D02*
G01X2521016Y1493357D01*
G01X2384974Y1493403D02*
G01X2304976Y1493403D01*
G01X2441019Y1351389D02*
G01X2521016Y1351389D01*
G01X2384974Y1351437D02*
G01X2304976Y1351437D01*
G01X2551991Y1462375D02*
G01X2551991Y1382370D01*
G01X2273999Y1382423D02*
G01X2273999Y1462425D01*
G01X2304981Y1351437D02*
G02X2273999Y1382423I0J30983D01*
G01X2273999Y1462420D02*
G02X2304981Y1493403I30983J0D01*
G01X2521011Y1493357D02*
G02X2551991Y1462375I-3J-30983D01*
G01X2551991Y1382377D02*
G02X2521011Y1351389I-30983J-5D01*
G01X2699857Y2296081D02*
G01X2699857Y2216084D01*
G01X2699903Y2352126D02*
G01X2699903Y2432124D01*
G01X2557889Y2296081D02*
G01X2557889Y2216084D01*
G01X2557937Y2352126D02*
G01X2557937Y2432124D01*
G01X2668875Y2185109D02*
G01X2588870Y2185109D01*
G01X2588923Y2463102D02*
G01X2668925Y2463102D01*
G01X2557937Y2432119D02*
G02X2588923Y2463102I30983J0D01*
G01X2668920Y2463102D02*
G02X2699903Y2432119I0J-30983D01*
G01X2699857Y2216089D02*
G02X2668875Y2185109I-30983J3D01*
G01X2588877Y2185109D02*
G02X2557889Y2216089I-5J30983D01*
G54D10*
G01X352280Y2589340D02*
G01X493281Y2589340D01*
G01X493281Y2770061D02*
G01X352280Y2770061D01*
G01X337040Y2754821D02*
G01X337040Y2604580D01*
G01X714520Y2589340D02*
G01X573519Y2589340D01*
G01X573519Y2770061D02*
G01X714520Y2770061D01*
G01X729760Y2754821D02*
G01X729760Y2604580D01*
G01X352280Y2770061D02*
G03X337040Y2754821I0J-15240D01*
G01X337040Y2604580D02*
G03X352280Y2589340I15240J0D01*
G01X714520Y2770061D02*
G02X729760Y2754821I0J-15240D01*
G01X729760Y2604580D02*
G02X714520Y2589340I-15240J0D01*
G01X773760Y371079D02*
G01X773760Y299276D01*
G01X773760Y299276D02*
G01X674040Y299276D01*
G01X674040Y299276D02*
G01X674040Y371079D01*
G01X773760Y416321D02*
G01X773760Y488125D01*
G01X773760Y488125D02*
G01X674040Y488125D01*
G01X674040Y488125D02*
G01X674040Y416321D01*
G01X547040Y1495821D02*
G01X547040Y1567625D01*
G01X547040Y1567625D02*
G01X646760Y1567625D01*
G01X646760Y1567625D02*
G01X646760Y1495821D01*
G01X547040Y1450579D02*
G01X547040Y1378776D01*
G01X547040Y1378776D02*
G01X646760Y1378776D01*
G01X646760Y1378776D02*
G01X646760Y1450579D01*
G01X646760Y371079D02*
G01X646760Y299276D01*
G01X646760Y299276D02*
G01X547040Y299276D01*
G01X547040Y299276D02*
G01X547040Y371079D01*
G01X646760Y416321D02*
G01X646760Y488125D01*
G01X646760Y488125D02*
G01X547040Y488125D01*
G01X547040Y488125D02*
G01X547040Y416321D01*
G01X674040Y1495821D02*
G01X674040Y1567625D01*
G01X674040Y1567625D02*
G01X773760Y1567625D01*
G01X773760Y1567625D02*
G01X773760Y1495821D01*
G01X674040Y1450579D02*
G01X674040Y1378776D01*
G01X674040Y1378776D02*
G01X773760Y1378776D01*
G01X773760Y1378776D02*
G01X773760Y1450579D01*
G01X519760Y371079D02*
G01X519760Y299276D01*
G01X519760Y299276D02*
G01X420040Y299276D01*
G01X420040Y299276D02*
G01X420040Y371079D01*
G01X519760Y416321D02*
G01X519760Y488125D01*
G01X519760Y488125D02*
G01X420040Y488125D01*
G01X420040Y488125D02*
G01X420040Y416321D01*
G01X2136379Y1359840D02*
G01X2064576Y1359840D01*
G01X2064576Y1359840D02*
G01X2064576Y1459560D01*
G01X2064576Y1459560D02*
G01X2136379Y1459560D01*
G01X2181621Y1359840D02*
G01X2253425Y1359840D01*
G01X2253425Y1359840D02*
G01X2253425Y1459560D01*
G01X2253425Y1459560D02*
G01X2181621Y1459560D01*
G01X1043960Y4665421D02*
G01X1043960Y4761309D01*
G01X1043960Y4761309D02*
G01X911840Y4761309D01*
G01X911840Y4761309D02*
G01X911840Y4665421D01*
G01X1043960Y4580179D02*
G01X1043960Y4484291D01*
G01X1043960Y4484291D02*
G01X911840Y4484291D01*
G01X911840Y4484291D02*
G01X911840Y4580179D01*
G01X1551960Y4665421D02*
G01X1551960Y4761309D01*
G01X1551960Y4761309D02*
G01X1419840Y4761309D01*
G01X1419840Y4761309D02*
G01X1419840Y4665421D01*
G01X1551960Y4580179D02*
G01X1551960Y4484291D01*
G01X1551960Y4484291D02*
G01X1419840Y4484291D01*
G01X1419840Y4484291D02*
G01X1419840Y4580179D01*
G01X2265121Y4645640D02*
G01X2361009Y4645640D01*
G01X2361009Y4645640D02*
G01X2361009Y4777760D01*
G01X2361009Y4777760D02*
G01X2265121Y4777760D01*
G01X2179879Y4645640D02*
G01X2083991Y4645640D01*
G01X2083991Y4645640D02*
G01X2083991Y4777760D01*
G01X2083991Y4777760D02*
G01X2179879Y4777760D01*
G01X601421Y4582140D02*
G01X697309Y4582140D01*
G01X697309Y4582140D02*
G01X697309Y4714260D01*
G01X697309Y4714260D02*
G01X601421Y4714260D01*
G01X516179Y4582140D02*
G01X420291Y4582140D01*
G01X420291Y4582140D02*
G01X420291Y4714260D01*
G01X420291Y4714260D02*
G01X516179Y4714260D01*
G01X652221Y1686540D02*
G01X748109Y1686540D01*
G01X748109Y1686540D02*
G01X748109Y1818660D01*
G01X748109Y1818660D02*
G01X652221Y1818660D01*
G01X566979Y1686540D02*
G01X471091Y1686540D01*
G01X471091Y1686540D02*
G01X471091Y1818660D01*
G01X471091Y1818660D02*
G01X566979Y1818660D01*
G01X503479Y2402860D02*
G01X407591Y2402860D01*
G01X407591Y2402860D02*
G01X407591Y2270740D01*
G01X407591Y2270740D02*
G01X503479Y2270740D01*
G01X588721Y2402860D02*
G01X684609Y2402860D01*
G01X684609Y2402860D02*
G01X684609Y2270740D01*
G01X684609Y2270740D02*
G01X588721Y2270740D01*
G01X2098279Y4407840D02*
G01X2026476Y4407840D01*
G01X2026476Y4407840D02*
G01X2026476Y4507560D01*
G01X2026476Y4507560D02*
G01X2098279Y4507560D01*
G01X2143521Y4407840D02*
G01X2215325Y4407840D01*
G01X2215325Y4407840D02*
G01X2215325Y4507560D01*
G01X2215325Y4507560D02*
G01X2143521Y4507560D01*
G01X1448740Y4010421D02*
G01X1448740Y4082225D01*
G01X1448740Y4082225D02*
G01X1548460Y4082225D01*
G01X1548460Y4082225D02*
G01X1548460Y4010421D01*
G01X1448740Y3965179D02*
G01X1448740Y3893376D01*
G01X1448740Y3893376D02*
G01X1548460Y3893376D01*
G01X1548460Y3893376D02*
G01X1548460Y3965179D01*
G01X1220140Y4023121D02*
G01X1220140Y4094925D01*
G01X1220140Y4094925D02*
G01X1319860Y4094925D01*
G01X1319860Y4094925D02*
G01X1319860Y4023121D01*
G01X1220140Y3977879D02*
G01X1220140Y3906076D01*
G01X1220140Y3906076D02*
G01X1319860Y3906076D01*
G01X1319860Y3906076D02*
G01X1319860Y3977879D01*

G04 Circle Start*
G54D11*
G01X2224888Y4076637D02*
G03X2524912Y4076637I150012J0D01*
G03X2224888Y4076637I-150012J0D01*
G54D15*
G01X1126668Y2684424D02*
G03X1146683Y2684424I10008J0D01*
G03X1126668Y2684424I-10008J0D01*
G01X1494968Y2697124D02*
G03X1514983Y2697124I10008J0D01*
G03X1494968Y2697124I-10008J0D01*
G54D11*
G01X583108Y3784600D02*
G03X763092Y3784600I89992J0D01*
G03X583108Y3784600I-89992J0D01*
G01X583108Y4279900D02*
G03X763092Y4279900I89992J0D01*
G03X583108Y4279900I-89992J0D01*
G54D14*
G01X1656407Y1346594D02*
G03X1671393Y1346594I7493J0D01*
G03X1656407Y1346594I-7493J0D01*
G54D17*
G01X835889Y1072998D02*
G03X865911Y1072998I15011J0D01*
G03X835889Y1072998I-15011J0D01*
G01X911581Y1281328D02*
G03X941603Y1281328I15011J0D01*
G03X911581Y1281328I-15011J0D01*
G54D11*
G01X477733Y2927728D02*
G03X502727Y2927728I12497J0D01*
G03X477733Y2927728I-12497J0D01*
G04 Circle End*

M02*

