G04 Layer: InnerLayer2*
G04 EasyEDA Pro v2.2.45.4, 2026-01-02 03:19:05*
G04 Gerber Generator version 0.3*
G04 Scale: 100 percent, Rotated: No, Reflected: No*
G04 Dimensions in millimeters*
G04 Leading zeros omitted, absolute positions, 4 integers and 5 decimals*
G04 Generated by one-click*
%FSLAX45Y45*%
%MOMM*%
%ADD10R,1.6X1.6*%
%ADD11C,1.6*%
%ADD12O,1.0X1.8*%
%ADD13O,1.0X2.1*%
%ADD14C,1.524*%
%ADD15C,0.6096*%
%ADD16C,0.6129*%
%ADD17C,0.61*%
%ADD18C,0.254*%
%ADD19C,0.1524*%
%ADD20C,0.1778*%
G75*


G04 Pad Start*
G54D10*
G01X2857500Y139700D03*
G54D11*
G01X2857500Y393700D03*
G01X2857500Y647700D03*
G01X2857500Y901700D03*
G01X2857500Y1155700D03*
G01X2857500Y1409700D03*
G01X2857500Y1663700D03*
G01X2857500Y1917700D03*
G01X2857500Y2171700D03*
G01X2857500Y2425700D03*
G01X2857500Y2679700D03*
G01X2857500Y2933700D03*
G01X2857500Y3187700D03*
G01X2857500Y3441700D03*
G01X2857500Y3695700D03*
G01X2857500Y3949700D03*
G01X2857500Y4203700D03*
G01X2857500Y4457700D03*
G01X2857500Y4711700D03*
G01X2857500Y4965700D03*
G01X2857500Y5219700D03*
G01X2857500Y5473700D03*
G54D10*
G01X139700Y5473700D03*
G54D11*
G01X139700Y5219700D03*
G01X139700Y4965700D03*
G01X139700Y4711700D03*
G01X139700Y4457700D03*
G01X139700Y4203700D03*
G01X139700Y3949700D03*
G01X139700Y3695700D03*
G01X139700Y3441700D03*
G01X139700Y3187700D03*
G01X139700Y2933700D03*
G01X139700Y2679700D03*
G01X139700Y2425700D03*
G01X139700Y2171700D03*
G01X139700Y1917700D03*
G01X139700Y1663700D03*
G01X139700Y1409700D03*
G01X139700Y1155700D03*
G01X139700Y901700D03*
G01X139700Y647700D03*
G01X139700Y393700D03*
G01X139700Y139700D03*
G54D12*
G01X1320991Y5342636D03*
G54D13*
G01X1320991Y4924628D03*
G01X457010Y4924628D03*
G54D12*
G01X457010Y5342636D03*
G01X2540191Y5342636D03*
G54D13*
G01X2540191Y4924628D03*
G01X1676210Y4924628D03*
G54D12*
G01X1676210Y5342636D03*
G54D14*
G01X2336800Y3225800D03*
G04 Pad End*

G04 Via Start*
G54D15*
G01X1491389Y1886828D03*
G01X1420679Y1816118D03*
G01X1632775Y1745407D03*
G01X1562082Y1674715D03*
G01X1562100Y1957539D03*
G01X1703521Y1816118D03*
G01X1562100Y1816118D03*
G01X1632739Y1886828D03*
G01X1491389Y1745407D03*
G54D17*
G01X1552998Y2193502D03*
G01X1545530Y2349500D03*
G01X1365218Y2216321D03*
G01X1435100Y2044700D03*
G01X1301648Y2260515D03*
G01X1265500Y2371702D03*
G01X1308100Y1917700D03*
G01X1147985Y2026817D03*
G01X1244600Y1866900D03*
G01X1074842Y1931921D03*
G01X1066800Y1790700D03*
G01X1051481Y1597700D03*
G01X1172707Y1562251D03*
G01X1224359Y1506141D03*
G01X1327757Y1702953D03*
G01X1397000Y1625600D03*
G01X1206559Y1358761D03*
G01X1460500Y1562100D03*
G01X1365086Y1409700D03*
G01X1524000Y1485900D03*
G01X1816100Y1308100D03*
G01X1612900Y1511300D03*
G01X1778000Y1409700D03*
G01X1701800Y1587500D03*
G01X1866900Y1485900D03*
G01X1752600Y1651000D03*
G01X1930400Y1574800D03*
G01X1828800Y1727200D03*
G01X2006600Y1574800D03*
G01X1892300Y1803400D03*
G01X2049375Y1709825D03*
G01X2044700Y1816100D03*
G01X2070100Y1955800D03*
G01X1847045Y1878609D03*
G01X2019300Y2019300D03*
G01X1943100Y2032000D03*
G01X1797237Y1936563D03*
G01X1729477Y1996177D03*
G01X1854200Y2120900D03*
G01X1676400Y2057400D03*
G01X1859300Y2298621D03*
G01X1612900Y2120900D03*
G01X1736079Y2293089D03*
G01X1616055Y2403536D03*
G01X469900Y1295400D03*
G01X1368178Y961778D03*
G01X977900Y355600D03*
G01X2070100Y939800D03*
G01X2476500Y1295400D03*
G01X1816197Y2539903D03*
G01X850900Y1282700D03*
G01X850900Y736600D03*
G01X2095500Y1612900D03*
G01X2692400Y1468100D03*
G01X2286020Y2457430D03*
G01X1808500Y2667000D03*
G01X2095500Y4978400D03*
G01X1684000Y2676432D03*
G01X1587500Y2661900D03*
G01X1752600Y2743200D03*
G01X2260600Y4991100D03*
G01X1892300Y4724400D03*
G01X1981200Y4622800D03*
G01X2032000Y3848100D03*
G01X1277600Y2578100D03*
G01X546100Y1841500D03*
G01X946554Y1675996D03*
G01X2278400Y3646150D03*
G01X2513350Y3696950D03*
G01X1898790Y723900D03*
G01X1758810Y406400D03*
G01X1758810Y76200D03*
G01X1206500Y165100D03*
G01X1028700Y60500D03*
G01X717550Y4171950D03*
G01X825500Y4749800D03*
G01X279400Y4292600D03*
G01X279400Y3898900D03*
G01X368300Y4013200D03*
G01X292100Y3771900D03*
G01X852878Y2040132D03*
G01X952500Y1054100D03*
G01X990600Y1257300D03*
G01X1194183Y2088382D03*
G01X914400Y3340100D03*
G01X517170Y2933700D03*
G01X391729Y3258513D03*
G01X889000Y2705100D03*
G01X2311400Y1778000D03*
G01X850900Y215900D03*
G01X1638300Y990600D03*
G01X1727200Y1333500D03*
G01X675218Y3365500D03*
G01X652810Y2904497D03*
G01X952500Y4991100D03*
G01X2019300Y4737100D03*
G01X431800Y2514600D03*
G01X729011Y2890679D03*
G01X2057400Y4203700D03*
G01X1143000Y3365500D03*
G01X558800Y2120900D03*
G01X342900Y1803400D03*
G01X1879600Y3276600D03*
G01X1320800Y3238500D03*
G01X330200Y2374900D03*
G01X952500Y2578100D03*
G01X525308Y3403600D03*
G01X1404600Y2959100D03*
G01X1079500Y3530600D03*
G01X2486005Y3025795D03*
G01X2552700Y2743200D03*
G01X901700Y3035300D03*
G01X368300Y2819400D03*
G01X1219200Y2811269D03*
G01X1117600Y1003300D03*
G01X609600Y228600D03*
G01X711200Y939800D03*
G01X1231900Y2222500D03*
G01X800100Y2387600D03*
G01X1143000Y4533900D03*
G01X825500Y4660900D03*
G01X1270000Y3454400D03*
G01X876300Y3175000D03*
G01X733619Y3267096D03*
G01X1397000Y2344931D03*
G01X457200Y1536700D03*
G01X2598608Y2452599D03*
G01X2514600Y2082800D03*
G54D15*
G01X761221Y1877847D03*
G54D17*
G01X796250Y1647880D03*
G01X1168400Y4699000D03*
G01X2179438Y1336890D03*
G01X2286000Y1168400D03*
G01X1853721Y2421788D03*
G01X2146300Y2324100D03*
G01X1104900Y1676400D03*
G04 Via End*

G04 Track Start*
G54D18*
G01X2857500Y901700D02*
G01X2522200Y1237000D01*
G01X2452310Y1237000D01*
G01X2068890Y1874500D02*
G01X2020510Y1874500D01*
G01X2452310Y1237000D02*
G01X2153900Y1535409D01*
G01X2153900Y1789490D01*
G01X2068890Y1874500D01*
G01X2020510Y1874500D02*
G01X1956341Y1810331D01*
G01X1956341Y1752870D01*
G01X1854470Y1651000D01*
G01X1752600Y1651000D01*
G01X1866900Y1485900D02*
G01X2108200Y1485900D01*
G01X1701800Y1549400D02*
G01X1701800Y1587500D01*
G01X2857500Y393700D02*
G01X1836400Y1414800D01*
G01X1836400Y1433890D01*
G01X1802190Y1468100D01*
G01X1783100Y1468100D01*
G01X1701800Y1549400D01*
G01X2857500Y2933700D02*
G01X2857500Y2889063D01*
G01X2046137Y2077700D01*
G01X1979990Y2077700D01*
G01X1967290Y2090400D01*
G01X1918910Y2090400D01*
G01X1884700Y2056190D01*
G01X1884700Y1916263D01*
G01X1847045Y1878609D01*
G01X2857500Y4203700D02*
G01X2857500Y4102294D01*
G01X2395200Y2636460D02*
G01X2360990Y2602250D01*
G01X2335550Y2602250D01*
G01X1854200Y2120900D01*
G01X2857500Y4102294D02*
G01X2749600Y3994394D01*
G01X2749600Y3142713D01*
G01X2395200Y2788313D01*
G01X2395200Y2636460D01*
G01X2260600Y4991100D02*
G01X2328281Y4991100D01*
G01X2394709Y5057528D01*
G01X2695328Y5057528D01*
G01X2857500Y5219700D01*
G01X139700Y139700D02*
G01X139700Y393700D01*
G01X1638300Y990600D02*
G01X1638300Y1244600D01*
G01X1727200Y1333500D01*
G01X675218Y3365500D02*
G01X675218Y2926905D01*
G01X652810Y2904497D01*
G01X652810Y2214910D01*
G01X558800Y2120900D01*
G01X1320800Y3238500D02*
G01X1320800Y2617491D01*
G01X1336000Y2602290D01*
G01X1336000Y2553910D01*
G01X1320800Y2538709D01*
G01X1612900Y1574800D02*
G01X1612900Y1511300D01*
G01X800100Y2387600D02*
G01X1004510Y2387600D01*
G01X1285200Y2668290D01*
G01X1285200Y3191510D01*
G01X1262400Y3214310D01*
G01X1262400Y3262690D01*
G01X1296610Y3296900D01*
G01X1344990Y3296900D01*
G01X1487103Y2236410D02*
G01X1452893Y2202200D01*
G01X1433687Y2202200D01*
G01X1400818Y2169331D01*
G01X1400818Y2137872D01*
G01X1537900Y1616335D02*
G01X1571365Y1616335D01*
G01X1612900Y1574800D01*
G01X1344990Y3296900D02*
G01X1487103Y3154787D01*
G01X1487103Y2236410D01*
G01X1400818Y2137872D02*
G01X1366500Y2103554D01*
G01X1366500Y1893510D01*
G01X1362299Y1889308D01*
G01X1362299Y1791936D01*
G01X1537900Y1616335D01*
G01X1079500Y3505200D02*
G01X998200Y3423900D01*
G01X941010Y3423900D01*
G01X779811Y3205511D02*
G01X779811Y2941479D01*
G01X1079500Y3530600D02*
G01X1079500Y3505200D01*
G01X779811Y2941479D02*
G01X729011Y2890679D01*
G01X941010Y3423900D02*
G01X915610Y3398500D01*
G01X890210Y3398500D01*
G01X856000Y3364290D01*
G01X856000Y3281700D01*
G01X779811Y3205511D01*
G01X990600Y3175000D02*
G01X876300Y3175000D01*
G01X1270000Y3454400D02*
G01X1201400Y3385800D01*
G01X1201400Y3341310D01*
G01X1167190Y3307100D01*
G01X1122700Y3307100D01*
G01X990600Y3175000D01*
G54D19*
G01X1240100Y2371702D02*
G01X1049249Y2180851D01*
G01X139700Y673100D02*
G01X139700Y647700D01*
G01X1265500Y2371702D02*
G01X1240100Y2371702D01*
G01X819601Y1879183D02*
G01X819601Y1853665D01*
G01X1037397Y2180851D02*
G01X929600Y2073054D01*
G01X1049249Y2180851D02*
G01X1037397Y2180851D01*
G01X1117928Y2127164D02*
G01X1124036Y2127164D01*
G01X1151295Y2099905D01*
G01X1151295Y2098534D01*
G01X1148261Y2095500D01*
G01X1148965Y2095500D01*
G01X1156083Y2088382D01*
G01X1156083Y2088382D02*
G01X1194183Y2088382D01*
G01X990600Y1257300D02*
G01X900906Y1257300D01*
G01X845041Y1843128D02*
G01X845041Y1854277D01*
G01X1117928Y2127164D01*
G01X900906Y1257300D02*
G01X867906Y1224300D01*
G01X788610Y1224300D01*
G01X711200Y1244600D02*
G01X139700Y673100D01*
G01X711200Y1745264D02*
G01X711200Y1244600D01*
G01X819601Y1853665D02*
G01X711200Y1745264D01*
G01X788610Y1224300D02*
G01X736640Y1276270D01*
G01X736640Y1734727D01*
G01X845041Y1843128D01*
G01X2857500Y2616200D02*
G01X2159000Y1917700D01*
G01X2108200Y1917700D01*
G01X2857500Y2679700D02*
G01X2857500Y2616200D01*
G01X2108200Y1917700D02*
G01X2070100Y1955800D01*
G54D18*
G01X1492210Y1384300D02*
G01X1499810Y1391900D01*
G01X1296610Y1351300D02*
G01X1389276Y1351300D01*
G01X1422276Y1384300D01*
G01X1492210Y1384300D01*
G01X1499810Y1391900D02*
G01X1525210Y1391900D01*
G01X1550610Y1417300D01*
G01X1113010Y1426990D02*
G01X1220919Y1426990D01*
G01X1296610Y1351300D01*
G01X1550610Y1417300D02*
G01X1770400Y1417300D01*
G01X1778000Y1409700D01*
G01X946554Y1675996D02*
G01X946554Y1593446D01*
G01X1113010Y1426990D01*
G01X1320800Y2538709D02*
G01X1320800Y2469954D01*
G01X1280948Y2430102D01*
G01X1241310Y2430102D01*
G54D20*
G01X139700Y1917700D02*
G01X723900Y1917700D01*
G54D18*
G01X1241310Y2430102D02*
G01X899080Y2087873D01*
G01X1356301Y2216321D02*
G01X1330900Y2190921D01*
G01X1330900Y2146431D01*
G01X1032590Y1990321D02*
G01X1000190Y1957921D01*
G01X1000190Y1898311D01*
G01X876300Y1774421D01*
G01X876300Y1380721D01*
G01X850900Y1355321D01*
G01X850900Y1355321D02*
G01X850900Y1282700D01*
G01X1365220Y2216320D02*
G01X1356301Y2216321D01*
G01X1330900Y2146431D02*
G01X1252583Y2068114D01*
G01X1123795Y1968417D02*
G01X1101890Y1990321D01*
G01X1032590Y1990321D01*
G01X1252583Y2068114D02*
G01X1252583Y2048825D01*
G01X1172175Y1968417D01*
G01X1123795Y1968417D01*
G01X2857500Y4457700D02*
G01X2857500Y4343594D01*
G01X2714000Y4200094D02*
G01X2714000Y3158500D01*
G01X2247900Y2692400D01*
G01X2247900Y2578100D01*
G01X1630700Y2322890D02*
G01X1630700Y2274510D01*
G01X1714500Y2190710D01*
G01X1714500Y2082800D01*
G01X1689100Y2057400D01*
G01X1676400Y2057400D01*
G01X2857500Y4343594D02*
G01X2825506Y4311600D01*
G01X2812806Y4311600D01*
G01X2749600Y4248394D01*
G01X2749600Y4235694D01*
G01X2714000Y4200094D01*
G01X2247900Y2578100D02*
G01X2026821Y2357021D01*
G01X1664830Y2357021D01*
G01X1630700Y2322890D01*
G54D19*
G01X929600Y1989182D02*
G01X819601Y1879183D01*
G54D18*
G01X2362200Y1231900D02*
G01X2362200Y1143000D01*
G01X2857500Y647700D01*
G01X2108200Y1485900D02*
G01X2198810Y1395290D01*
G01X2203628Y1395290D01*
G01X2237838Y1361080D01*
G01X2237838Y1356262D01*
G01X2362200Y1231900D01*
G54D20*
G01X723900Y1917700D02*
G01X774700Y1968500D01*
G01X812800Y1968500D01*
G54D19*
G01X929600Y2073054D02*
G01X929600Y1989182D01*
G54D20*
G01X812800Y1968500D02*
G01X852878Y2008578D01*
G01X852878Y2040132D01*
G54D18*
G01X899080Y2087873D02*
G01X899080Y2086334D01*
G01X852878Y2040132D01*
G04 Track End*

M02*

