G04 Layer: DrillDrawingLayer*
G04 EasyEDA Pro v2.2.45.4, 2026-01-02 03:19:05*
G04 Gerber Generator version 0.3*
G04 Scale: 100 percent, Rotated: No, Reflected: No*
G04 Dimensions in millimeters*
G04 Leading zeros omitted, absolute positions, 4 integers and 5 decimals*
G04 Generated by one-click*
%FSLAX45Y45*%
%MOMM*%
%AMIconRect*4,1,4,0.28,-0.28,-0.28,-0.28,-0.28,0.28,0.28,0.28,0.28,-0.28,0*4,0,4,0.233333,-0.233333,0.233333,0.233333,-0.233333,0.233333,-0.233333,-0.233333,0.233333,-0.233333,0*%
%AMIconTriangle*4,1,3,-0.339593,0.240473,0.339593,0.240473,0,-0.37884,-0.339593,0.240473,0*4,0,3,-0.265673,0.19404,0,-0.27342,0.266233,0.19404,-0.265673,0.19404,0*%
%AMIconStar6*4,1,12,0.12068,0.20888,0.298527,0.172713,0.241313,0,0.298527,-0.17206,0.12068,-0.208227,0,-0.344073,-0.120073,-0.208227,-0.298573,-0.17206,-0.240707,0,-0.298573,0.17206,-0.120073,0.20888,0,0.344073,0.12068,0.20888,0*4,0,12,-0.000467,0.273467,-0.090067,0.171733,-0.237533,0.136733,-0.193667,-0.007467,-0.237533,-0.1372,-0.090067,-0.171733,-0.000467,-0.273933,0.090067,-0.171733,0.237533,-0.1372,0.194133,0.007,0.237533,0.1372,0.090067,0.171267,-0.000467,0.273467,0*%
%AMIconStar4*4,1,8,-0.311733,0.311733,0,0.202533,0.311733,0.311733,0.202533,0,0.311733,-0.311733,0,-0.202533,-0.304407,-0.311733,-0.202533,0,-0.311733,0.311733,0*4,0,8,0.233333,-0.233333,0.1512,0,0.233333,0.233333,0,0.1512,-0.233333,0.233333,-0.1512,0,-0.233333,-0.233333,0,-0.1512,0.233333,-0.233333,0*%
%AMIconPlus*4,1,12,0.1736,-0.28,-0.1736,-0.28,-0.1736,-0.1736,-0.28,-0.1736,-0.28,0.1736,-0.1736,0.1736,-0.1736,0.28,0.1736,0.28,0.1736,0.1736,0.28,0.1736,0.28,-0.1736,0.1736,-0.1736,0.1736,-0.28,0*4,0,12,0.126933,-0.233333,0.126933,-0.126933,0.233333,-0.126933,0.233333,0.126933,0.126933,0.126933,0.126933,0.233333,-0.126933,0.233333,-0.126933,0.126933,-0.233333,0.126933,-0.233333,-0.126933,-0.126933,-0.126933,-0.126933,-0.233333,0.126933,-0.233333,0*%
%ADD10IconRect*%
%ADD11C,0.616X0.522667*%
%ADD12IconTriangle*%
%ADD13IconStar6*%
%ADD14IconStar4*%
%ADD15IconPlus*%
G75*


G04 Drill Drawing Start*
G54D10*
G01X2336800Y3225800D03*
G54D11*
G01X457010Y5342636D03*
G01X1320991Y5342636D03*
G01X1676210Y5342636D03*
G01X2540191Y5342636D03*
G54D12*
G01X457010Y4924628D03*
G01X1320991Y4924628D03*
G01X1676210Y4924628D03*
G01X2540191Y4924628D03*
G54D13*
G01X599986Y4974590D03*
G01X1177989Y4974590D03*
G01X1819186Y4974590D03*
G01X2397189Y4974590D03*
G54D14*
G01X139700Y139700D03*
G01X139700Y393700D03*
G01X139700Y647700D03*
G01X139700Y901700D03*
G01X139700Y1155700D03*
G01X139700Y1409700D03*
G01X139700Y1663700D03*
G01X139700Y1917700D03*
G01X139700Y2171700D03*
G01X139700Y2425700D03*
G01X139700Y2679700D03*
G01X139700Y2933700D03*
G01X139700Y3187700D03*
G01X139700Y3441700D03*
G01X139700Y3695700D03*
G01X139700Y3949700D03*
G01X139700Y4203700D03*
G01X139700Y4457700D03*
G01X139700Y4711700D03*
G01X139700Y4965700D03*
G01X139700Y5219700D03*
G01X139700Y5473700D03*
G01X2857500Y4457700D03*
G01X2857500Y4711700D03*
G01X2857500Y4965700D03*
G01X2857500Y5219700D03*
G01X2857500Y5473700D03*
G01X2857500Y4203700D03*
G01X2857500Y3187700D03*
G01X2857500Y3441700D03*
G01X2857500Y3695700D03*
G01X2857500Y3949700D03*
G01X2857500Y2933700D03*
G01X2857500Y2679700D03*
G01X2857500Y1663700D03*
G01X2857500Y1917700D03*
G01X2857500Y2171700D03*
G01X2857500Y2425700D03*
G01X2857500Y139700D03*
G01X2857500Y393700D03*
G01X2857500Y647700D03*
G01X2857500Y901700D03*
G01X2857500Y1155700D03*
G01X2857500Y1409700D03*
G54D15*
G01X279400Y3898900D03*
G01X279400Y4292600D03*
G01X292100Y3771900D03*
G01X330200Y2374900D03*
G01X342900Y1803400D03*
G01X368300Y2819400D03*
G01X368300Y4013200D03*
G01X391729Y3258513D03*
G01X431800Y2514600D03*
G01X457200Y1536700D03*
G01X469900Y1295400D03*
G01X517170Y2933700D03*
G01X525308Y3403600D03*
G01X546100Y1841500D03*
G01X558800Y2120900D03*
G01X609600Y228600D03*
G01X652810Y2904497D03*
G01X675218Y3365500D03*
G01X711200Y939800D03*
G01X717550Y4171950D03*
G01X729011Y2890679D03*
G01X733619Y3267096D03*
G01X761221Y1877847D03*
G01X796250Y1647880D03*
G01X800100Y2387600D03*
G01X825500Y4660900D03*
G01X825500Y4749800D03*
G01X850900Y215900D03*
G01X850900Y736600D03*
G01X850900Y1282700D03*
G01X852878Y2040132D03*
G01X876300Y3175000D03*
G01X889000Y2705100D03*
G01X901700Y3035300D03*
G01X914400Y3340100D03*
G01X946554Y1675996D03*
G01X952500Y1054100D03*
G01X952500Y2578100D03*
G01X952500Y4991100D03*
G01X977900Y355600D03*
G01X990600Y1257300D03*
G01X1028700Y60500D03*
G01X1051481Y1597700D03*
G01X1066800Y1790700D03*
G01X1074842Y1931921D03*
G01X1079500Y3530600D03*
G01X1104900Y1676400D03*
G01X1117600Y1003300D03*
G01X1143000Y3365500D03*
G01X1143000Y4533900D03*
G01X1147985Y2026817D03*
G01X1168400Y4699000D03*
G01X1172707Y1562251D03*
G01X1194183Y2088382D03*
G01X1206500Y165100D03*
G01X1206559Y1358761D03*
G01X1219200Y2811269D03*
G01X1224359Y1506141D03*
G01X1231900Y2222500D03*
G01X1244600Y1866900D03*
G01X1265500Y2371702D03*
G01X1270000Y3454400D03*
G01X1277600Y2578100D03*
G01X1301648Y2260515D03*
G01X1308100Y1917700D03*
G01X1320800Y3238500D03*
G01X1327757Y1702953D03*
G01X1365086Y1409700D03*
G01X1365218Y2216321D03*
G01X1368178Y961778D03*
G01X1397000Y1625600D03*
G01X1397000Y2344931D03*
G01X1404600Y2959100D03*
G01X1420679Y1816118D03*
G01X1435100Y2044700D03*
G01X1460500Y1562100D03*
G01X1491389Y1745407D03*
G01X1491389Y1886828D03*
G01X1524000Y1485900D03*
G01X1545530Y2349500D03*
G01X1552998Y2193502D03*
G01X1562082Y1674715D03*
G01X1562100Y1816118D03*
G01X1562100Y1957539D03*
G01X1587500Y2661900D03*
G01X1612900Y1511300D03*
G01X1612900Y2120900D03*
G01X1616055Y2403536D03*
G01X1632739Y1886828D03*
G01X1632775Y1745407D03*
G01X1638300Y990600D03*
G01X1676400Y2057400D03*
G01X1684000Y2676432D03*
G01X1701800Y1587500D03*
G01X1703521Y1816118D03*
G01X1727200Y1333500D03*
G01X1729477Y1996177D03*
G01X1736079Y2293089D03*
G01X1752600Y1651000D03*
G01X1752600Y2743200D03*
G01X1758810Y76200D03*
G01X1758810Y406400D03*
G01X1778000Y1409700D03*
G01X1797237Y1936563D03*
G01X1808500Y2667000D03*
G01X1816100Y1308100D03*
G01X1816197Y2539903D03*
G01X1828800Y1727200D03*
G01X1847045Y1878609D03*
G01X1853721Y2421788D03*
G01X1854200Y2120900D03*
G01X1859300Y2298621D03*
G01X1866900Y1485900D03*
G01X1879600Y3276600D03*
G01X1892300Y1803400D03*
G01X1892300Y4724400D03*
G01X1898790Y723900D03*
G01X1930400Y1574800D03*
G01X1943100Y2032000D03*
G01X1981200Y4622800D03*
G01X2006600Y1574800D03*
G01X2019300Y2019300D03*
G01X2019300Y4737100D03*
G01X2032000Y3848100D03*
G01X2044700Y1816100D03*
G01X2049375Y1709825D03*
G01X2057400Y4203700D03*
G01X2070100Y939800D03*
G01X2070100Y1955800D03*
G01X2095500Y1612900D03*
G01X2095500Y4978400D03*
G01X2146300Y2324100D03*
G01X2179438Y1336890D03*
G01X2260600Y4991100D03*
G01X2278400Y3646150D03*
G01X2286000Y1168400D03*
G01X2286020Y2457430D03*
G01X2311400Y1778000D03*
G01X2476500Y1295400D03*
G01X2486005Y3025795D03*
G01X2513350Y3696950D03*
G01X2514600Y2082800D03*
G01X2552700Y2743200D03*
G01X2598608Y2452599D03*
G01X2692400Y1468100D03*
G04 Drill Drawing End*

M02*

