G04 Layer: TopPasteMaskLayer*
G04 EasyEDA Pro v2.2.45.4, 2026-01-02 03:19:05*
G04 Gerber Generator version 0.3*
G04 Scale: 100 percent, Rotated: No, Reflected: No*
G04 Dimensions in millimeters*
G04 Leading zeros omitted, absolute positions, 4 integers and 5 decimals*
G04 Generated by one-click*
%FSLAX45Y45*%
%MOMM*%
%AMRect*21,1,$1,$2,0,0,$3*%
%ADD10R,0.8X0.9*%
%ADD11R,0.8X0.8*%
%ADD12R,1.0X1.2*%
%ADD13R,1.2X1.0*%
%ADD14R,1.05001X2.2*%
%ADD15R,1.0X1.05001*%
%ADD16R,1.0034X1.5*%
%ADD17R,1.0X1.5*%
%ADD18R,0.7X1.25001*%
%ADD19R,1.23X1.85999*%
%ADD20O,0.60899X2.20449*%
%ADD21R,1.05001X2.46499*%
%ADD22R,3.54X2.46499*%
%ADD23R,1.4X1.2*%
%ADD24Rect,0.5X0.54X40.0*%
%ADD25R,0.54X0.5*%
%ADD26R,0.5X0.54*%
%ADD27Rect,0.8X0.9X40.0*%
%ADD28R,0.9X0.8*%
G75*


G04 PolygonModel Start*
G36*
G01X622061Y74602D02*
G01X622061Y102253D01*
G01X649481Y131628D01*
G01X699808Y131628D01*
G01X706209Y125227D01*
G01X706209Y51628D01*
G01X699808Y45227D01*
G01X649481Y45227D01*
G01X622061Y74602D01*
G37*
G36*
G01X570497Y73477D02*
G01X570497Y101128D01*
G01X543077Y130503D01*
G01X492750Y130503D01*
G01X486349Y124102D01*
G01X486349Y50503D01*
G01X492750Y44102D01*
G01X543077Y44102D01*
G01X570497Y73477D01*
G37*
G36*
G01X1853961Y544502D02*
G01X1853961Y572153D01*
G01X1881381Y601528D01*
G01X1931708Y601528D01*
G01X1938109Y595127D01*
G01X1938109Y521528D01*
G01X1931708Y515127D01*
G01X1881381Y515127D01*
G01X1853961Y544502D01*
G37*
G36*
G01X1802397Y543377D02*
G01X1802397Y571028D01*
G01X1774977Y600403D01*
G01X1724650Y600403D01*
G01X1718249Y594002D01*
G01X1718249Y520403D01*
G01X1724650Y514002D01*
G01X1774977Y514002D01*
G01X1802397Y543377D01*
G37*
G36*
G01X1038385Y2045581D02*
G01X986962Y2106864D01*
G01X979916Y2107481D01*
G01X962453Y2092827D01*
G01X986237Y2064484D01*
G01X960957Y2043272D01*
G01X937174Y2071616D01*
G01X918633Y2056058D01*
G01X918019Y2049013D01*
G01X969441Y1987730D01*
G01X976484Y1987114D01*
G01X1037767Y2038537D01*
G01X1038385Y2045581D01*
G37*
G36*
G01X815815Y2170819D02*
G01X867238Y2109536D01*
G01X874284Y2108919D01*
G01X891747Y2123573D01*
G01X867963Y2151916D01*
G01X893243Y2173128D01*
G01X917026Y2144784D01*
G01X935567Y2160342D01*
G01X936181Y2167387D01*
G01X884759Y2228670D01*
G01X877716Y2229286D01*
G01X816433Y2177863D01*
G01X815815Y2170819D01*
G37*
G36*
G01X665602Y2076999D02*
G01X585602Y2076999D01*
G01X580601Y2071997D01*
G01X580601Y2049201D01*
G01X617601Y2049201D01*
G01X617601Y2016201D01*
G01X580601Y2016201D01*
G01X580601Y1991998D01*
G01X585602Y1986999D01*
G01X665602Y1986999D01*
G01X670601Y1991998D01*
G01X670601Y2071997D01*
G01X665602Y2076999D01*
G37*
G36*
G01X426598Y1987001D02*
G01X506598Y1987001D01*
G01X511599Y1992003D01*
G01X511599Y2014799D01*
G01X474599Y2014799D01*
G01X474599Y2047799D01*
G01X511599Y2047799D01*
G01X511599Y2072002D01*
G01X506598Y2077001D01*
G01X426598Y2077001D01*
G01X421599Y2072002D01*
G01X421599Y1992003D01*
G01X426598Y1987001D01*
G37*
G36*
G01X1250401Y3078602D02*
G01X1250401Y2998602D01*
G01X1255403Y2993601D01*
G01X1278199Y2993601D01*
G01X1278199Y3030601D01*
G01X1311199Y3030601D01*
G01X1311199Y2993601D01*
G01X1335402Y2993601D01*
G01X1340401Y2998602D01*
G01X1340401Y3078602D01*
G01X1335402Y3083601D01*
G01X1255403Y3083601D01*
G01X1250401Y3078602D01*
G37*
G36*
G01X1340399Y2839598D02*
G01X1340399Y2919598D01*
G01X1335397Y2924599D01*
G01X1312601Y2924599D01*
G01X1312601Y2887599D01*
G01X1279601Y2887599D01*
G01X1279601Y2924599D01*
G01X1255398Y2924599D01*
G01X1250399Y2919598D01*
G01X1250399Y2839598D01*
G01X1255398Y2834599D01*
G01X1335397Y2834599D01*
G01X1340399Y2839598D01*
G37*
G36*
G01X1543599Y2839598D02*
G01X1543599Y2919598D01*
G01X1538597Y2924599D01*
G01X1515801Y2924599D01*
G01X1515801Y2887599D01*
G01X1482801Y2887599D01*
G01X1482801Y2924599D01*
G01X1458598Y2924599D01*
G01X1453599Y2919598D01*
G01X1453599Y2839598D01*
G01X1458598Y2834599D01*
G01X1538597Y2834599D01*
G01X1543599Y2839598D01*
G37*
G36*
G01X1453601Y3078602D02*
G01X1453601Y2998602D01*
G01X1458603Y2993601D01*
G01X1481399Y2993601D01*
G01X1481399Y3030601D01*
G01X1514399Y3030601D01*
G01X1514399Y2993601D01*
G01X1538602Y2993601D01*
G01X1543601Y2998602D01*
G01X1543601Y3078602D01*
G01X1538602Y3083601D01*
G01X1458603Y3083601D01*
G01X1453601Y3078602D01*
G37*
G36*
G01X1521427Y1421899D02*
G01X1474402Y1374875D01*
G01X1488545Y1360733D01*
G01X1535569Y1407757D01*
G01X1521427Y1421899D01*
G37*
G36*
G01X1323448Y1619878D02*
G01X1276424Y1572854D01*
G01X1290566Y1558711D01*
G01X1337590Y1605736D01*
G01X1323448Y1619878D01*
G37*
G36*
G01X1318854Y1530424D02*
G01X1365878Y1577448D01*
G01X1351736Y1591590D01*
G01X1304711Y1544566D01*
G01X1318854Y1530424D01*
G37*
G36*
G01X1120857Y1728420D02*
G01X1167881Y1775445D01*
G01X1153739Y1789587D01*
G01X1106715Y1742562D01*
G01X1120857Y1728420D01*
G37*
G36*
G01X1493157Y1450169D02*
G01X1446133Y1403145D01*
G01X1460275Y1389003D01*
G01X1507299Y1436027D01*
G01X1493157Y1450169D01*
G37*
G36*
G01X1295160Y1648166D02*
G01X1248136Y1601141D01*
G01X1262278Y1586999D01*
G01X1309302Y1634024D01*
G01X1295160Y1648166D01*
G37*
G36*
G01X1464869Y1478457D02*
G01X1417845Y1431433D01*
G01X1431987Y1417290D01*
G01X1479011Y1464315D01*
G01X1464869Y1478457D01*
G37*
G36*
G01X1266872Y1676453D02*
G01X1219848Y1629429D01*
G01X1233990Y1615287D01*
G01X1281014Y1662311D01*
G01X1266872Y1676453D01*
G37*
G36*
G01X1436581Y1506745D02*
G01X1389557Y1459720D01*
G01X1403699Y1445578D01*
G01X1450723Y1492602D01*
G01X1436581Y1506745D01*
G37*
G36*
G01X1238584Y1704741D02*
G01X1191560Y1657717D01*
G01X1205702Y1643575D01*
G01X1252727Y1690599D01*
G01X1238584Y1704741D01*
G37*
G36*
G01X1347123Y1502154D02*
G01X1394148Y1549178D01*
G01X1380006Y1563320D01*
G01X1332981Y1516296D01*
G01X1347123Y1502154D01*
G37*
G36*
G01X1149145Y1700133D02*
G01X1196169Y1747157D01*
G01X1182027Y1761299D01*
G01X1135003Y1714275D01*
G01X1149145Y1700133D01*
G37*
G36*
G01X1408293Y1535032D02*
G01X1361269Y1488008D01*
G01X1375411Y1473866D01*
G01X1422435Y1520890D01*
G01X1408293Y1535032D01*
G37*
G36*
G01X1210315Y1733011D02*
G01X1163290Y1685987D01*
G01X1177433Y1671845D01*
G01X1224457Y1718869D01*
G01X1210315Y1733011D01*
G37*
G36*
G01X1635636Y1360717D02*
G01X1649778Y1374859D01*
G01X1602755Y1421881D01*
G01X1588613Y1407739D01*
G01X1635636Y1360717D01*
G37*
G36*
G01X1120857Y1903780D02*
G01X1106715Y1889638D01*
G01X1153737Y1842615D01*
G01X1167879Y1856757D01*
G01X1120857Y1903780D01*
G37*
G36*
G01X1663924Y1389004D02*
G01X1678066Y1403147D01*
G01X1631043Y1450169D01*
G01X1616901Y1436027D01*
G01X1663924Y1389004D01*
G37*
G36*
G01X1149145Y1932067D02*
G01X1135003Y1917925D01*
G01X1182025Y1870903D01*
G01X1196167Y1885045D01*
G01X1149145Y1932067D01*
G37*
G36*
G01X1692211Y1417292D02*
G01X1706353Y1431434D01*
G01X1659331Y1478457D01*
G01X1645189Y1464315D01*
G01X1692211Y1417292D01*
G37*
G36*
G01X1177433Y1960355D02*
G01X1163290Y1946213D01*
G01X1210313Y1899191D01*
G01X1224455Y1913333D01*
G01X1177433Y1960355D01*
G37*
G36*
G01X1205702Y1988625D02*
G01X1191560Y1974483D01*
G01X1238583Y1927461D01*
G01X1252725Y1941603D01*
G01X1205702Y1988625D01*
G37*
G36*
G01X1687601Y1506727D02*
G01X1673459Y1492584D01*
G01X1720481Y1445562D01*
G01X1734623Y1459704D01*
G01X1687601Y1506727D01*
G37*
G36*
G01X1748769Y1473850D02*
G01X1762911Y1487992D01*
G01X1715889Y1535014D01*
G01X1701747Y1520872D01*
G01X1748769Y1473850D01*
G37*
G36*
G01X1233990Y2016913D02*
G01X1219848Y2002771D01*
G01X1266870Y1955748D01*
G01X1281013Y1969890D01*
G01X1233990Y2016913D01*
G37*
G36*
G01X1777057Y1502138D02*
G01X1791199Y1516280D01*
G01X1744176Y1563302D01*
G01X1730034Y1549160D01*
G01X1777057Y1502138D01*
G37*
G36*
G01X1262278Y2045201D02*
G01X1248136Y2031059D01*
G01X1295158Y1984036D01*
G01X1309300Y1998178D01*
G01X1262278Y2045201D01*
G37*
G36*
G01X1805345Y1530425D02*
G01X1819487Y1544568D01*
G01X1772464Y1591590D01*
G01X1758322Y1577448D01*
G01X1805345Y1530425D01*
G37*
G36*
G01X1290566Y2073489D02*
G01X1276424Y2059346D01*
G01X1323446Y2012324D01*
G01X1337588Y2026466D01*
G01X1290566Y2073489D01*
G37*
G36*
G01X1833632Y1558713D02*
G01X1847775Y1572855D01*
G01X1800752Y1619878D01*
G01X1786610Y1605736D01*
G01X1833632Y1558713D01*
G37*
G36*
G01X1318854Y2101776D02*
G01X1304711Y2087634D01*
G01X1351734Y2040612D01*
G01X1365876Y2054754D01*
G01X1318854Y2101776D01*
G37*
G36*
G01X1861902Y1586983D02*
G01X1876044Y1601125D01*
G01X1829022Y1648148D01*
G01X1814880Y1634006D01*
G01X1861902Y1586983D01*
G37*
G36*
G01X1347123Y2130046D02*
G01X1332981Y2115904D01*
G01X1380004Y2068882D01*
G01X1394146Y2083024D01*
G01X1347123Y2130046D01*
G37*
G36*
G01X1890190Y1615271D02*
G01X1904332Y1629413D01*
G01X1857310Y1676435D01*
G01X1843168Y1662293D01*
G01X1890190Y1615271D01*
G37*
G36*
G01X1375411Y2158334D02*
G01X1361269Y2144192D01*
G01X1408292Y2097169D01*
G01X1422434Y2111312D01*
G01X1375411Y2158334D01*
G37*
G36*
G01X1403699Y2186622D02*
G01X1389557Y2172480D01*
G01X1436579Y2125457D01*
G01X1450721Y2139599D01*
G01X1403699Y2186622D01*
G37*
G36*
G01X1885598Y1704723D02*
G01X1871455Y1690581D01*
G01X1918478Y1643559D01*
G01X1932620Y1657701D01*
G01X1885598Y1704723D01*
G37*
G36*
G01X1946766Y1671847D02*
G01X1960908Y1685989D01*
G01X1913885Y1733011D01*
G01X1899743Y1718869D01*
G01X1946766Y1671847D01*
G37*
G36*
G01X1431987Y2214910D02*
G01X1417845Y2200767D01*
G01X1464867Y2153745D01*
G01X1479009Y2167887D01*
G01X1431987Y2214910D01*
G37*
G36*
G01X1975053Y1700134D02*
G01X1989196Y1714276D01*
G01X1942173Y1761299D01*
G01X1928031Y1747157D01*
G01X1975053Y1700134D01*
G37*
G36*
G01X1460275Y2243197D02*
G01X1446133Y2229055D01*
G01X1493155Y2182033D01*
G01X1507297Y2196175D01*
G01X1460275Y2243197D01*
G37*
G36*
G01X2003323Y1728404D02*
G01X2017465Y1742546D01*
G01X1970443Y1789569D01*
G01X1956301Y1775427D01*
G01X2003323Y1728404D01*
G37*
G36*
G01X1488545Y2271467D02*
G01X1474402Y2257325D01*
G01X1521425Y2210303D01*
G01X1535567Y2224445D01*
G01X1488545Y2271467D01*
G37*
G36*
G01X1635638Y2271485D02*
G01X1588615Y2224463D01*
G01X1602757Y2210321D01*
G01X1649780Y2257343D01*
G01X1635638Y2271485D01*
G37*
G36*
G01X1833634Y2073489D02*
G01X1786612Y2026466D01*
G01X1800754Y2012324D01*
G01X1847776Y2059346D01*
G01X1833634Y2073489D01*
G37*
G36*
G01X1772466Y2040612D02*
G01X1819489Y2087634D01*
G01X1805346Y2101776D01*
G01X1758324Y2054754D01*
G01X1772466Y2040612D01*
G37*
G36*
G01X1970445Y1842633D02*
G01X2017467Y1889655D01*
G01X2003325Y1903798D01*
G01X1956303Y1856775D01*
G01X1970445Y1842633D01*
G37*
G36*
G01X1663925Y2243197D02*
G01X1616903Y2196175D01*
G01X1631045Y2182033D01*
G01X1678067Y2229055D01*
G01X1663925Y2243197D01*
G37*
G36*
G01X1861904Y2045219D02*
G01X1814882Y1998196D01*
G01X1829024Y1984054D01*
G01X1876046Y2031077D01*
G01X1861904Y2045219D01*
G37*
G36*
G01X1692213Y2214910D02*
G01X1645191Y2167887D01*
G01X1659333Y2153745D01*
G01X1706355Y2200767D01*
G01X1692213Y2214910D01*
G37*
G36*
G01X1890192Y2016931D02*
G01X1843169Y1969908D01*
G01X1857312Y1955766D01*
G01X1904334Y2002789D01*
G01X1890192Y2016931D01*
G37*
G36*
G01X1720483Y2186640D02*
G01X1673461Y2139617D01*
G01X1687603Y2125475D01*
G01X1734625Y2172498D01*
G01X1720483Y2186640D01*
G37*
G36*
G01X1918480Y1988643D02*
G01X1871457Y1941621D01*
G01X1885599Y1927479D01*
G01X1932622Y1974501D01*
G01X1918480Y1988643D01*
G37*
G36*
G01X1744178Y2068900D02*
G01X1791201Y2115922D01*
G01X1777059Y2130064D01*
G01X1730036Y2083042D01*
G01X1744178Y2068900D01*
G37*
G36*
G01X1942175Y1870903D02*
G01X1989197Y1917925D01*
G01X1975055Y1932067D01*
G01X1928033Y1885045D01*
G01X1942175Y1870903D01*
G37*
G36*
G01X1748771Y2158352D02*
G01X1701748Y2111330D01*
G01X1715890Y2097187D01*
G01X1762913Y2144210D01*
G01X1748771Y2158352D01*
G37*
G36*
G01X1946767Y1960355D02*
G01X1899745Y1913333D01*
G01X1913887Y1899191D01*
G01X1960910Y1946213D01*
G01X1946767Y1960355D01*
G37*
G36*
G01X1562082Y1589826D02*
G01X1335808Y1816100D01*
G01X1562082Y2042374D01*
G01X1788356Y1816100D01*
G01X1562082Y1589826D01*
G37*
G36*
G01X878992Y4810663D02*
G01X878992Y4925665D01*
G01X848992Y4925665D01*
G01X848992Y4810663D01*
G01X878992Y4810663D01*
G37*
G36*
G01X798980Y4925665D02*
G01X798980Y4810663D01*
G01X828980Y4810663D01*
G01X828980Y4925665D01*
G01X798980Y4925665D01*
G37*
G36*
G01X679000Y4810663D02*
G01X679000Y4925665D01*
G01X619001Y4925665D01*
G01X619001Y4810663D01*
G01X679000Y4810663D01*
G37*
G36*
G01X928980Y4810663D02*
G01X928980Y4925665D01*
G01X898980Y4925665D01*
G01X898980Y4810663D01*
G01X928980Y4810663D01*
G37*
G36*
G01X978992Y4810663D02*
G01X978992Y4925665D01*
G01X948992Y4925665D01*
G01X948992Y4810663D01*
G01X978992Y4810663D01*
G37*
G36*
G01X748993Y4925665D02*
G01X748993Y4810663D01*
G01X778993Y4810663D01*
G01X778993Y4925665D01*
G01X748993Y4925665D01*
G37*
G36*
G01X1178999Y4925665D02*
G01X1178999Y4810663D01*
G01X1238999Y4810663D01*
G01X1238999Y4925665D01*
G01X1178999Y4925665D01*
G37*
G36*
G01X698980Y4925665D02*
G01X698980Y4810663D01*
G01X728980Y4810663D01*
G01X728980Y4925665D01*
G01X698980Y4925665D01*
G37*
G36*
G01X539001Y4925665D02*
G01X539001Y4810663D01*
G01X599001Y4810663D01*
G01X599001Y4925665D01*
G01X539001Y4925665D01*
G37*
G36*
G01X1099000Y4925665D02*
G01X1099000Y4810663D01*
G01X1158999Y4810663D01*
G01X1158999Y4925665D01*
G01X1099000Y4925665D01*
G37*
G36*
G01X1028979Y4810663D02*
G01X1028979Y4925665D01*
G01X998979Y4925665D01*
G01X998979Y4810663D01*
G01X1028979Y4810663D01*
G37*
G36*
G01X1048992Y4925665D02*
G01X1048992Y4810663D01*
G01X1078992Y4810663D01*
G01X1078992Y4925665D01*
G01X1048992Y4925665D01*
G37*
G36*
G01X453273Y4819767D02*
G01X455762Y4819642D01*
G01X458257Y4819642D01*
G01X460746Y4819767D01*
G01X463227Y4820016D01*
G01X465691Y4820387D01*
G01X468135Y4820882D01*
G01X470550Y4821497D01*
G01X472933Y4822231D01*
G01X475277Y4823084D01*
G01X477573Y4824052D01*
G01X479821Y4825134D01*
G01X482008Y4826325D01*
G01X484137Y4827626D01*
G01X486197Y4829030D01*
G01X488183Y4830536D01*
G01X490093Y4832139D01*
G01X491922Y4833833D01*
G01X493662Y4835619D01*
G01X495313Y4837488D01*
G01X496867Y4839437D01*
G01X498323Y4841461D01*
G01X499674Y4843556D01*
G01X500921Y4845715D01*
G01X502059Y4847933D01*
G01X503083Y4850206D01*
G01X503994Y4852525D01*
G01X504787Y4854890D01*
G01X505463Y4857290D01*
G01X506019Y4859719D01*
G01X506451Y4862175D01*
G01X506760Y4864649D01*
G01X506948Y4867135D01*
G01X507009Y4869627D01*
G01X507009Y4979629D01*
G01X506948Y4982121D01*
G01X506760Y4984608D01*
G01X506451Y4987082D01*
G01X506019Y4989538D01*
G01X505463Y4991966D01*
G01X504787Y4994366D01*
G01X503994Y4996731D01*
G01X503083Y4999050D01*
G01X502059Y5001324D01*
G01X500921Y5003541D01*
G01X499674Y5005700D01*
G01X498323Y5007795D01*
G01X496867Y5009820D01*
G01X495313Y5011768D01*
G01X493662Y5013637D01*
G01X491922Y5015423D01*
G01X490093Y5017117D01*
G01X488183Y5018720D01*
G01X486197Y5020226D01*
G01X484137Y5021631D01*
G01X482008Y5022931D01*
G01X479821Y5024123D01*
G01X477573Y5025205D01*
G01X475277Y5026172D01*
G01X472933Y5027026D01*
G01X470550Y5027760D01*
G01X468135Y5028375D01*
G01X465691Y5028870D01*
G01X463227Y5029241D01*
G01X460746Y5029490D01*
G01X458257Y5029614D01*
G01X455762Y5029614D01*
G01X453273Y5029490D01*
G01X450792Y5029241D01*
G01X448328Y5028870D01*
G01X445884Y5028375D01*
G01X443469Y5027760D01*
G01X441086Y5027026D01*
G01X438742Y5026172D01*
G01X436446Y5025205D01*
G01X434198Y5024123D01*
G01X432008Y5022931D01*
G01X429882Y5021631D01*
G01X427822Y5020226D01*
G01X425836Y5018720D01*
G01X423926Y5017117D01*
G01X422097Y5015423D01*
G01X420357Y5013637D01*
G01X418706Y5011768D01*
G01X417152Y5009820D01*
G01X415696Y5007795D01*
G01X414345Y5005700D01*
G01X413098Y5003541D01*
G01X411960Y5001324D01*
G01X410936Y4999050D01*
G01X410025Y4996731D01*
G01X409232Y4994366D01*
G01X408556Y4991966D01*
G01X408000Y4989538D01*
G01X407568Y4987082D01*
G01X407259Y4984608D01*
G01X407071Y4982121D01*
G01X407010Y4979629D01*
G01X407010Y4869627D01*
G01X407071Y4867135D01*
G01X407259Y4864649D01*
G01X407568Y4862175D01*
G01X408000Y4859719D01*
G01X408556Y4857290D01*
G01X409232Y4854890D01*
G01X410025Y4852525D01*
G01X410936Y4850206D01*
G01X411960Y4847933D01*
G01X413098Y4845715D01*
G01X414345Y4843556D01*
G01X415696Y4841461D01*
G01X417152Y4839437D01*
G01X418706Y4837488D01*
G01X420357Y4835619D01*
G01X422097Y4833833D01*
G01X423926Y4832139D01*
G01X425836Y4830536D01*
G01X427822Y4829030D01*
G01X429882Y4827626D01*
G01X432008Y4826325D01*
G01X434198Y4825134D01*
G01X436446Y4824052D01*
G01X438742Y4823084D01*
G01X441086Y4822231D01*
G01X443469Y4821497D01*
G01X445884Y4820882D01*
G01X448328Y4820387D01*
G01X450792Y4820016D01*
G01X453273Y4819767D01*
G37*
G36*
G01X1317254Y4819767D02*
G01X1319743Y4819642D01*
G01X1322238Y4819642D01*
G01X1324727Y4819767D01*
G01X1327208Y4820016D01*
G01X1329672Y4820387D01*
G01X1332116Y4820882D01*
G01X1334531Y4821497D01*
G01X1336914Y4822231D01*
G01X1339258Y4823084D01*
G01X1341554Y4824052D01*
G01X1343802Y4825134D01*
G01X1345989Y4826325D01*
G01X1348118Y4827626D01*
G01X1350178Y4829030D01*
G01X1352164Y4830536D01*
G01X1354074Y4832139D01*
G01X1355903Y4833833D01*
G01X1357643Y4835619D01*
G01X1359294Y4837488D01*
G01X1360848Y4839437D01*
G01X1362304Y4841461D01*
G01X1363655Y4843556D01*
G01X1364902Y4845715D01*
G01X1366040Y4847933D01*
G01X1367064Y4850206D01*
G01X1367975Y4852525D01*
G01X1368768Y4854890D01*
G01X1369444Y4857290D01*
G01X1370000Y4859719D01*
G01X1370432Y4862175D01*
G01X1370741Y4864649D01*
G01X1370929Y4867135D01*
G01X1370990Y4869627D01*
G01X1370990Y4979629D01*
G01X1370929Y4982121D01*
G01X1370741Y4984608D01*
G01X1370432Y4987082D01*
G01X1370000Y4989538D01*
G01X1369444Y4991966D01*
G01X1368768Y4994366D01*
G01X1367975Y4996731D01*
G01X1367064Y4999050D01*
G01X1366040Y5001324D01*
G01X1364902Y5003541D01*
G01X1363655Y5005700D01*
G01X1362304Y5007795D01*
G01X1360848Y5009820D01*
G01X1359294Y5011768D01*
G01X1357643Y5013637D01*
G01X1355903Y5015423D01*
G01X1354074Y5017117D01*
G01X1352164Y5018720D01*
G01X1350178Y5020226D01*
G01X1348118Y5021631D01*
G01X1345989Y5022931D01*
G01X1343802Y5024123D01*
G01X1341554Y5025205D01*
G01X1339258Y5026172D01*
G01X1336914Y5027026D01*
G01X1334531Y5027760D01*
G01X1332116Y5028375D01*
G01X1329672Y5028870D01*
G01X1327208Y5029241D01*
G01X1324727Y5029490D01*
G01X1322238Y5029614D01*
G01X1319743Y5029614D01*
G01X1317254Y5029490D01*
G01X1314773Y5029241D01*
G01X1312309Y5028870D01*
G01X1309865Y5028375D01*
G01X1307450Y5027760D01*
G01X1305067Y5027026D01*
G01X1302723Y5026172D01*
G01X1300427Y5025205D01*
G01X1298179Y5024123D01*
G01X1295989Y5022931D01*
G01X1293863Y5021631D01*
G01X1291803Y5020226D01*
G01X1289817Y5018720D01*
G01X1287907Y5017117D01*
G01X1286078Y5015423D01*
G01X1284338Y5013637D01*
G01X1282687Y5011768D01*
G01X1281133Y5009820D01*
G01X1279677Y5007795D01*
G01X1278326Y5005700D01*
G01X1277079Y5003541D01*
G01X1275941Y5001324D01*
G01X1274917Y4999050D01*
G01X1274006Y4996731D01*
G01X1273213Y4994366D01*
G01X1272537Y4991966D01*
G01X1271981Y4989538D01*
G01X1271549Y4987082D01*
G01X1271240Y4984608D01*
G01X1271052Y4982121D01*
G01X1270991Y4979629D01*
G01X1270991Y4869627D01*
G01X1271052Y4867135D01*
G01X1271240Y4864649D01*
G01X1271549Y4862175D01*
G01X1271981Y4859719D01*
G01X1272537Y4857290D01*
G01X1273213Y4854890D01*
G01X1274006Y4852525D01*
G01X1274917Y4850206D01*
G01X1275941Y4847933D01*
G01X1277079Y4845715D01*
G01X1278326Y4843556D01*
G01X1279677Y4841461D01*
G01X1281133Y4839437D01*
G01X1282687Y4837488D01*
G01X1284338Y4835619D01*
G01X1286078Y4833833D01*
G01X1287907Y4832139D01*
G01X1289817Y4830536D01*
G01X1291803Y4829030D01*
G01X1293863Y4827626D01*
G01X1295989Y4826325D01*
G01X1298179Y4825134D01*
G01X1300427Y4824052D01*
G01X1302723Y4823084D01*
G01X1305067Y4822231D01*
G01X1307450Y4821497D01*
G01X1309865Y4820882D01*
G01X1312309Y4820387D01*
G01X1314773Y4820016D01*
G01X1317254Y4819767D01*
G37*
G36*
G01X1178621Y4962106D02*
G01X1181120Y4962489D01*
G01X1183493Y4963368D01*
G01X1185639Y4964707D01*
G01X1187473Y4966449D01*
G01X1188918Y4968524D01*
G01X1189914Y4970849D01*
G01X1190424Y4973325D01*
G01X1190424Y4975855D01*
G01X1189914Y4978331D01*
G01X1188918Y4980656D01*
G01X1187473Y4982731D01*
G01X1185639Y4984473D01*
G01X1183493Y4985812D01*
G01X1181120Y4986691D01*
G01X1178621Y4987074D01*
G01X1176096Y4986945D01*
G01X1173648Y4986312D01*
G01X1171377Y4985197D01*
G01X1169378Y4983650D01*
G01X1167729Y4981730D01*
G01X1166503Y4979520D01*
G01X1165746Y4977107D01*
G01X1165489Y4974590D01*
G01X1165746Y4972073D01*
G01X1166503Y4969660D01*
G01X1167729Y4967450D01*
G01X1169378Y4965530D01*
G01X1171377Y4963983D01*
G01X1173648Y4962868D01*
G01X1176096Y4962235D01*
G01X1178621Y4962106D01*
G37*
G36*
G01X598094Y4962235D02*
G01X600619Y4962106D01*
G01X603118Y4962489D01*
G01X605490Y4963368D01*
G01X607637Y4964707D01*
G01X609470Y4966449D01*
G01X610916Y4968524D01*
G01X611911Y4970849D01*
G01X612422Y4973325D01*
G01X612422Y4975855D01*
G01X611911Y4978331D01*
G01X610916Y4980656D01*
G01X609470Y4982731D01*
G01X607637Y4984473D01*
G01X605490Y4985812D01*
G01X603118Y4986691D01*
G01X600619Y4987074D01*
G01X598094Y4986945D01*
G01X595645Y4986312D01*
G01X593374Y4985197D01*
G01X591376Y4983650D01*
G01X589727Y4981730D01*
G01X588500Y4979520D01*
G01X587743Y4977107D01*
G01X587487Y4974590D01*
G01X587743Y4972073D01*
G01X588500Y4969660D01*
G01X589727Y4967450D01*
G01X591376Y4965530D01*
G01X593374Y4963983D01*
G01X595645Y4962868D01*
G01X598094Y4962235D01*
G37*
G36*
G01X458257Y5252651D02*
G01X460746Y5252776D01*
G01X463227Y5253025D01*
G01X465691Y5253396D01*
G01X468135Y5253891D01*
G01X470550Y5254506D01*
G01X472933Y5255240D01*
G01X475277Y5256093D01*
G01X477573Y5257061D01*
G01X479821Y5258143D01*
G01X482008Y5259334D01*
G01X484137Y5260635D01*
G01X486197Y5262039D01*
G01X488183Y5263545D01*
G01X490093Y5265148D01*
G01X491922Y5266842D01*
G01X493662Y5268628D01*
G01X495313Y5270497D01*
G01X496867Y5272446D01*
G01X498323Y5274470D01*
G01X499674Y5276566D01*
G01X500921Y5278725D01*
G01X502059Y5280942D01*
G01X503083Y5283215D01*
G01X503994Y5285534D01*
G01X504787Y5287899D01*
G01X505463Y5290299D01*
G01X506019Y5292728D01*
G01X506451Y5295184D01*
G01X506760Y5297658D01*
G01X506948Y5300144D01*
G01X507009Y5302636D01*
G01X507009Y5382636D01*
G01X506948Y5385128D01*
G01X506760Y5387614D01*
G01X506451Y5390088D01*
G01X506019Y5392544D01*
G01X505463Y5394973D01*
G01X504787Y5397373D01*
G01X503994Y5399738D01*
G01X503083Y5402057D01*
G01X502059Y5404330D01*
G01X500921Y5406547D01*
G01X499674Y5408706D01*
G01X498323Y5410802D01*
G01X496867Y5412826D01*
G01X495313Y5414775D01*
G01X493662Y5416644D01*
G01X491922Y5418430D01*
G01X490093Y5420124D01*
G01X488183Y5421727D01*
G01X486197Y5423233D01*
G01X484137Y5424637D01*
G01X482008Y5425938D01*
G01X479821Y5427129D01*
G01X477573Y5428211D01*
G01X475277Y5429179D01*
G01X472933Y5430032D01*
G01X470550Y5430766D01*
G01X468135Y5431381D01*
G01X465691Y5431876D01*
G01X463227Y5432247D01*
G01X460746Y5432496D01*
G01X458257Y5432621D01*
G01X455762Y5432621D01*
G01X453273Y5432496D01*
G01X450792Y5432247D01*
G01X448328Y5431876D01*
G01X445884Y5431381D01*
G01X443469Y5430766D01*
G01X441086Y5430032D01*
G01X438742Y5429179D01*
G01X436446Y5428211D01*
G01X434198Y5427129D01*
G01X432008Y5425938D01*
G01X429882Y5424637D01*
G01X427822Y5423233D01*
G01X425836Y5421727D01*
G01X423926Y5420124D01*
G01X422097Y5418430D01*
G01X420357Y5416644D01*
G01X418706Y5414775D01*
G01X417152Y5412826D01*
G01X415696Y5410802D01*
G01X414345Y5408706D01*
G01X413098Y5406547D01*
G01X411960Y5404330D01*
G01X410936Y5402057D01*
G01X410025Y5399738D01*
G01X409232Y5397373D01*
G01X408556Y5394973D01*
G01X408000Y5392544D01*
G01X407568Y5390088D01*
G01X407259Y5387614D01*
G01X407071Y5385128D01*
G01X407010Y5382636D01*
G01X407010Y5302636D01*
G01X407071Y5300144D01*
G01X407259Y5297658D01*
G01X407568Y5295184D01*
G01X408000Y5292728D01*
G01X408556Y5290299D01*
G01X409232Y5287899D01*
G01X410025Y5285534D01*
G01X410936Y5283215D01*
G01X411960Y5280942D01*
G01X413098Y5278725D01*
G01X414345Y5276566D01*
G01X415696Y5274470D01*
G01X417152Y5272446D01*
G01X418706Y5270497D01*
G01X420357Y5268628D01*
G01X422097Y5266842D01*
G01X423926Y5265148D01*
G01X425836Y5263545D01*
G01X427822Y5262039D01*
G01X429882Y5260635D01*
G01X432008Y5259334D01*
G01X434198Y5258143D01*
G01X436446Y5257061D01*
G01X438742Y5256093D01*
G01X441086Y5255240D01*
G01X443469Y5254506D01*
G01X445884Y5253891D01*
G01X448328Y5253396D01*
G01X450792Y5253025D01*
G01X453273Y5252776D01*
G01X455762Y5252651D01*
G01X458257Y5252651D01*
G37*
G36*
G01X1317254Y5252776D02*
G01X1319743Y5252651D01*
G01X1322238Y5252651D01*
G01X1324727Y5252776D01*
G01X1327208Y5253025D01*
G01X1329672Y5253396D01*
G01X1332116Y5253891D01*
G01X1334531Y5254506D01*
G01X1336914Y5255240D01*
G01X1339258Y5256093D01*
G01X1341554Y5257061D01*
G01X1343802Y5258143D01*
G01X1345989Y5259334D01*
G01X1348118Y5260635D01*
G01X1350178Y5262039D01*
G01X1352164Y5263545D01*
G01X1354074Y5265148D01*
G01X1355903Y5266842D01*
G01X1357643Y5268628D01*
G01X1359294Y5270497D01*
G01X1360848Y5272446D01*
G01X1362304Y5274470D01*
G01X1363655Y5276566D01*
G01X1364902Y5278725D01*
G01X1366040Y5280942D01*
G01X1367064Y5283215D01*
G01X1367975Y5285534D01*
G01X1368768Y5287899D01*
G01X1369444Y5290299D01*
G01X1370000Y5292728D01*
G01X1370432Y5295184D01*
G01X1370741Y5297658D01*
G01X1370929Y5300144D01*
G01X1370990Y5302636D01*
G01X1370990Y5382636D01*
G01X1370929Y5385128D01*
G01X1370741Y5387614D01*
G01X1370432Y5390088D01*
G01X1370000Y5392544D01*
G01X1369444Y5394973D01*
G01X1368768Y5397373D01*
G01X1367975Y5399738D01*
G01X1367064Y5402057D01*
G01X1366040Y5404330D01*
G01X1364902Y5406547D01*
G01X1363655Y5408706D01*
G01X1362304Y5410802D01*
G01X1360848Y5412826D01*
G01X1359294Y5414775D01*
G01X1357643Y5416644D01*
G01X1355903Y5418430D01*
G01X1354074Y5420124D01*
G01X1352164Y5421727D01*
G01X1350178Y5423233D01*
G01X1348118Y5424637D01*
G01X1345989Y5425938D01*
G01X1343802Y5427129D01*
G01X1341554Y5428211D01*
G01X1339258Y5429179D01*
G01X1336914Y5430032D01*
G01X1334531Y5430766D01*
G01X1332116Y5431381D01*
G01X1329672Y5431876D01*
G01X1327208Y5432247D01*
G01X1324727Y5432496D01*
G01X1322238Y5432621D01*
G01X1319743Y5432621D01*
G01X1317254Y5432496D01*
G01X1314773Y5432247D01*
G01X1312309Y5431876D01*
G01X1309865Y5431381D01*
G01X1307450Y5430766D01*
G01X1305067Y5430032D01*
G01X1302723Y5429179D01*
G01X1300427Y5428211D01*
G01X1298179Y5427129D01*
G01X1295989Y5425938D01*
G01X1293863Y5424637D01*
G01X1291803Y5423233D01*
G01X1289817Y5421727D01*
G01X1287907Y5420124D01*
G01X1286078Y5418430D01*
G01X1284338Y5416644D01*
G01X1282687Y5414775D01*
G01X1281133Y5412826D01*
G01X1279677Y5410802D01*
G01X1278326Y5408706D01*
G01X1277079Y5406547D01*
G01X1275941Y5404330D01*
G01X1274917Y5402057D01*
G01X1274006Y5399738D01*
G01X1273213Y5397373D01*
G01X1272537Y5394973D01*
G01X1271981Y5392544D01*
G01X1271549Y5390088D01*
G01X1271240Y5387614D01*
G01X1271052Y5385128D01*
G01X1270991Y5382636D01*
G01X1270991Y5302636D01*
G01X1271052Y5300144D01*
G01X1271240Y5297658D01*
G01X1271549Y5295184D01*
G01X1271981Y5292728D01*
G01X1272537Y5290299D01*
G01X1273213Y5287899D01*
G01X1274006Y5285534D01*
G01X1274917Y5283215D01*
G01X1275941Y5280942D01*
G01X1277079Y5278725D01*
G01X1278326Y5276566D01*
G01X1279677Y5274470D01*
G01X1281133Y5272446D01*
G01X1282687Y5270497D01*
G01X1284338Y5268628D01*
G01X1286078Y5266842D01*
G01X1287907Y5265148D01*
G01X1289817Y5263545D01*
G01X1291803Y5262039D01*
G01X1293863Y5260635D01*
G01X1295989Y5259334D01*
G01X1298179Y5258143D01*
G01X1300427Y5257061D01*
G01X1302723Y5256093D01*
G01X1305067Y5255240D01*
G01X1307450Y5254506D01*
G01X1309865Y5253891D01*
G01X1312309Y5253396D01*
G01X1314773Y5253025D01*
G01X1317254Y5252776D01*
G37*
G36*
G01X2098192Y4810663D02*
G01X2098192Y4925665D01*
G01X2068192Y4925665D01*
G01X2068192Y4810663D01*
G01X2098192Y4810663D01*
G37*
G36*
G01X2018180Y4925665D02*
G01X2018180Y4810663D01*
G01X2048180Y4810663D01*
G01X2048180Y4925665D01*
G01X2018180Y4925665D01*
G37*
G36*
G01X1898200Y4810663D02*
G01X1898200Y4925665D01*
G01X1838201Y4925665D01*
G01X1838201Y4810663D01*
G01X1898200Y4810663D01*
G37*
G36*
G01X2148180Y4810663D02*
G01X2148180Y4925665D01*
G01X2118180Y4925665D01*
G01X2118180Y4810663D01*
G01X2148180Y4810663D01*
G37*
G36*
G01X2198192Y4810663D02*
G01X2198192Y4925665D01*
G01X2168192Y4925665D01*
G01X2168192Y4810663D01*
G01X2198192Y4810663D01*
G37*
G36*
G01X1968193Y4925665D02*
G01X1968193Y4810663D01*
G01X1998193Y4810663D01*
G01X1998193Y4925665D01*
G01X1968193Y4925665D01*
G37*
G36*
G01X2398199Y4925665D02*
G01X2398199Y4810663D01*
G01X2458199Y4810663D01*
G01X2458199Y4925665D01*
G01X2398199Y4925665D01*
G37*
G36*
G01X1918180Y4925665D02*
G01X1918180Y4810663D01*
G01X1948180Y4810663D01*
G01X1948180Y4925665D01*
G01X1918180Y4925665D01*
G37*
G36*
G01X1758201Y4925665D02*
G01X1758201Y4810663D01*
G01X1818201Y4810663D01*
G01X1818201Y4925665D01*
G01X1758201Y4925665D01*
G37*
G36*
G01X2318200Y4925665D02*
G01X2318200Y4810663D01*
G01X2378199Y4810663D01*
G01X2378199Y4925665D01*
G01X2318200Y4925665D01*
G37*
G36*
G01X2248179Y4810663D02*
G01X2248179Y4925665D01*
G01X2218179Y4925665D01*
G01X2218179Y4810663D01*
G01X2248179Y4810663D01*
G37*
G36*
G01X2268192Y4925665D02*
G01X2268192Y4810663D01*
G01X2298192Y4810663D01*
G01X2298192Y4925665D01*
G01X2268192Y4925665D01*
G37*
G36*
G01X1672473Y4819767D02*
G01X1674962Y4819642D01*
G01X1677457Y4819642D01*
G01X1679946Y4819767D01*
G01X1682427Y4820016D01*
G01X1684891Y4820387D01*
G01X1687335Y4820882D01*
G01X1689750Y4821497D01*
G01X1692133Y4822231D01*
G01X1694477Y4823084D01*
G01X1696773Y4824052D01*
G01X1699021Y4825134D01*
G01X1701208Y4826325D01*
G01X1703337Y4827626D01*
G01X1705397Y4829030D01*
G01X1707383Y4830536D01*
G01X1709293Y4832139D01*
G01X1711122Y4833833D01*
G01X1712862Y4835619D01*
G01X1714513Y4837488D01*
G01X1716067Y4839437D01*
G01X1717523Y4841461D01*
G01X1718874Y4843556D01*
G01X1720121Y4845715D01*
G01X1721259Y4847933D01*
G01X1722283Y4850206D01*
G01X1723194Y4852525D01*
G01X1723987Y4854890D01*
G01X1724663Y4857290D01*
G01X1725219Y4859719D01*
G01X1725651Y4862175D01*
G01X1725960Y4864649D01*
G01X1726148Y4867135D01*
G01X1726209Y4869627D01*
G01X1726209Y4979629D01*
G01X1726148Y4982121D01*
G01X1725960Y4984608D01*
G01X1725651Y4987082D01*
G01X1725219Y4989538D01*
G01X1724663Y4991966D01*
G01X1723987Y4994366D01*
G01X1723194Y4996731D01*
G01X1722283Y4999050D01*
G01X1721259Y5001324D01*
G01X1720121Y5003541D01*
G01X1718874Y5005700D01*
G01X1717523Y5007795D01*
G01X1716067Y5009820D01*
G01X1714513Y5011768D01*
G01X1712862Y5013637D01*
G01X1711122Y5015423D01*
G01X1709293Y5017117D01*
G01X1707383Y5018720D01*
G01X1705397Y5020226D01*
G01X1703337Y5021631D01*
G01X1701208Y5022931D01*
G01X1699021Y5024123D01*
G01X1696773Y5025205D01*
G01X1694477Y5026172D01*
G01X1692133Y5027026D01*
G01X1689750Y5027760D01*
G01X1687335Y5028375D01*
G01X1684891Y5028870D01*
G01X1682427Y5029241D01*
G01X1679946Y5029490D01*
G01X1677457Y5029614D01*
G01X1674962Y5029614D01*
G01X1672473Y5029490D01*
G01X1669992Y5029241D01*
G01X1667528Y5028870D01*
G01X1665084Y5028375D01*
G01X1662669Y5027760D01*
G01X1660286Y5027026D01*
G01X1657942Y5026172D01*
G01X1655646Y5025205D01*
G01X1653398Y5024123D01*
G01X1651208Y5022931D01*
G01X1649082Y5021631D01*
G01X1647022Y5020226D01*
G01X1645036Y5018720D01*
G01X1643126Y5017117D01*
G01X1641297Y5015423D01*
G01X1639557Y5013637D01*
G01X1637906Y5011768D01*
G01X1636352Y5009820D01*
G01X1634896Y5007795D01*
G01X1633545Y5005700D01*
G01X1632298Y5003541D01*
G01X1631160Y5001324D01*
G01X1630136Y4999050D01*
G01X1629225Y4996731D01*
G01X1628432Y4994366D01*
G01X1627756Y4991966D01*
G01X1627200Y4989538D01*
G01X1626768Y4987082D01*
G01X1626459Y4984608D01*
G01X1626271Y4982121D01*
G01X1626210Y4979629D01*
G01X1626210Y4869627D01*
G01X1626271Y4867135D01*
G01X1626459Y4864649D01*
G01X1626768Y4862175D01*
G01X1627200Y4859719D01*
G01X1627756Y4857290D01*
G01X1628432Y4854890D01*
G01X1629225Y4852525D01*
G01X1630136Y4850206D01*
G01X1631160Y4847933D01*
G01X1632298Y4845715D01*
G01X1633545Y4843556D01*
G01X1634896Y4841461D01*
G01X1636352Y4839437D01*
G01X1637906Y4837488D01*
G01X1639557Y4835619D01*
G01X1641297Y4833833D01*
G01X1643126Y4832139D01*
G01X1645036Y4830536D01*
G01X1647022Y4829030D01*
G01X1649082Y4827626D01*
G01X1651208Y4826325D01*
G01X1653398Y4825134D01*
G01X1655646Y4824052D01*
G01X1657942Y4823084D01*
G01X1660286Y4822231D01*
G01X1662669Y4821497D01*
G01X1665084Y4820882D01*
G01X1667528Y4820387D01*
G01X1669992Y4820016D01*
G01X1672473Y4819767D01*
G37*
G36*
G01X2536454Y4819767D02*
G01X2538943Y4819642D01*
G01X2541438Y4819642D01*
G01X2543927Y4819767D01*
G01X2546408Y4820016D01*
G01X2548872Y4820387D01*
G01X2551316Y4820882D01*
G01X2553731Y4821497D01*
G01X2556114Y4822231D01*
G01X2558458Y4823084D01*
G01X2560754Y4824052D01*
G01X2563002Y4825134D01*
G01X2565189Y4826325D01*
G01X2567318Y4827626D01*
G01X2569378Y4829030D01*
G01X2571364Y4830536D01*
G01X2573274Y4832139D01*
G01X2575103Y4833833D01*
G01X2576843Y4835619D01*
G01X2578494Y4837488D01*
G01X2580048Y4839437D01*
G01X2581504Y4841461D01*
G01X2582855Y4843556D01*
G01X2584102Y4845715D01*
G01X2585240Y4847933D01*
G01X2586264Y4850206D01*
G01X2587175Y4852525D01*
G01X2587968Y4854890D01*
G01X2588644Y4857290D01*
G01X2589200Y4859719D01*
G01X2589632Y4862175D01*
G01X2589941Y4864649D01*
G01X2590129Y4867135D01*
G01X2590190Y4869627D01*
G01X2590190Y4979629D01*
G01X2590129Y4982121D01*
G01X2589941Y4984608D01*
G01X2589632Y4987082D01*
G01X2589200Y4989538D01*
G01X2588644Y4991966D01*
G01X2587968Y4994366D01*
G01X2587175Y4996731D01*
G01X2586264Y4999050D01*
G01X2585240Y5001324D01*
G01X2584102Y5003541D01*
G01X2582855Y5005700D01*
G01X2581504Y5007795D01*
G01X2580048Y5009820D01*
G01X2578494Y5011768D01*
G01X2576843Y5013637D01*
G01X2575103Y5015423D01*
G01X2573274Y5017117D01*
G01X2571364Y5018720D01*
G01X2569378Y5020226D01*
G01X2567318Y5021631D01*
G01X2565189Y5022931D01*
G01X2563002Y5024123D01*
G01X2560754Y5025205D01*
G01X2558458Y5026172D01*
G01X2556114Y5027026D01*
G01X2553731Y5027760D01*
G01X2551316Y5028375D01*
G01X2548872Y5028870D01*
G01X2546408Y5029241D01*
G01X2543927Y5029490D01*
G01X2541438Y5029614D01*
G01X2538943Y5029614D01*
G01X2536454Y5029490D01*
G01X2533973Y5029241D01*
G01X2531509Y5028870D01*
G01X2529065Y5028375D01*
G01X2526650Y5027760D01*
G01X2524267Y5027026D01*
G01X2521923Y5026172D01*
G01X2519627Y5025205D01*
G01X2517379Y5024123D01*
G01X2515189Y5022931D01*
G01X2513063Y5021631D01*
G01X2511003Y5020226D01*
G01X2509017Y5018720D01*
G01X2507107Y5017117D01*
G01X2505278Y5015423D01*
G01X2503538Y5013637D01*
G01X2501887Y5011768D01*
G01X2500333Y5009820D01*
G01X2498877Y5007795D01*
G01X2497526Y5005700D01*
G01X2496279Y5003541D01*
G01X2495141Y5001324D01*
G01X2494117Y4999050D01*
G01X2493206Y4996731D01*
G01X2492413Y4994366D01*
G01X2491737Y4991966D01*
G01X2491181Y4989538D01*
G01X2490749Y4987082D01*
G01X2490440Y4984608D01*
G01X2490252Y4982121D01*
G01X2490191Y4979629D01*
G01X2490191Y4869627D01*
G01X2490252Y4867135D01*
G01X2490440Y4864649D01*
G01X2490749Y4862175D01*
G01X2491181Y4859719D01*
G01X2491737Y4857290D01*
G01X2492413Y4854890D01*
G01X2493206Y4852525D01*
G01X2494117Y4850206D01*
G01X2495141Y4847933D01*
G01X2496279Y4845715D01*
G01X2497526Y4843556D01*
G01X2498877Y4841461D01*
G01X2500333Y4839437D01*
G01X2501887Y4837488D01*
G01X2503538Y4835619D01*
G01X2505278Y4833833D01*
G01X2507107Y4832139D01*
G01X2509017Y4830536D01*
G01X2511003Y4829030D01*
G01X2513063Y4827626D01*
G01X2515189Y4826325D01*
G01X2517379Y4825134D01*
G01X2519627Y4824052D01*
G01X2521923Y4823084D01*
G01X2524267Y4822231D01*
G01X2526650Y4821497D01*
G01X2529065Y4820882D01*
G01X2531509Y4820387D01*
G01X2533973Y4820016D01*
G01X2536454Y4819767D01*
G37*
G36*
G01X2397821Y4962106D02*
G01X2400320Y4962489D01*
G01X2402693Y4963368D01*
G01X2404839Y4964707D01*
G01X2406673Y4966449D01*
G01X2408118Y4968524D01*
G01X2409114Y4970849D01*
G01X2409624Y4973325D01*
G01X2409624Y4975855D01*
G01X2409114Y4978331D01*
G01X2408118Y4980656D01*
G01X2406673Y4982731D01*
G01X2404839Y4984473D01*
G01X2402693Y4985812D01*
G01X2400320Y4986691D01*
G01X2397821Y4987074D01*
G01X2395296Y4986945D01*
G01X2392848Y4986312D01*
G01X2390577Y4985197D01*
G01X2388578Y4983650D01*
G01X2386929Y4981730D01*
G01X2385703Y4979520D01*
G01X2384946Y4977107D01*
G01X2384689Y4974590D01*
G01X2384946Y4972073D01*
G01X2385703Y4969660D01*
G01X2386929Y4967450D01*
G01X2388578Y4965530D01*
G01X2390577Y4963983D01*
G01X2392848Y4962868D01*
G01X2395296Y4962235D01*
G01X2397821Y4962106D01*
G37*
G36*
G01X1817294Y4962235D02*
G01X1819819Y4962106D01*
G01X1822318Y4962489D01*
G01X1824690Y4963368D01*
G01X1826837Y4964707D01*
G01X1828670Y4966449D01*
G01X1830116Y4968524D01*
G01X1831111Y4970849D01*
G01X1831622Y4973325D01*
G01X1831622Y4975855D01*
G01X1831111Y4978331D01*
G01X1830116Y4980656D01*
G01X1828670Y4982731D01*
G01X1826837Y4984473D01*
G01X1824690Y4985812D01*
G01X1822318Y4986691D01*
G01X1819819Y4987074D01*
G01X1817294Y4986945D01*
G01X1814845Y4986312D01*
G01X1812574Y4985197D01*
G01X1810576Y4983650D01*
G01X1808927Y4981730D01*
G01X1807700Y4979520D01*
G01X1806943Y4977107D01*
G01X1806687Y4974590D01*
G01X1806943Y4972073D01*
G01X1807700Y4969660D01*
G01X1808927Y4967450D01*
G01X1810576Y4965530D01*
G01X1812574Y4963983D01*
G01X1814845Y4962868D01*
G01X1817294Y4962235D01*
G37*
G36*
G01X1677457Y5252651D02*
G01X1679946Y5252776D01*
G01X1682427Y5253025D01*
G01X1684891Y5253396D01*
G01X1687335Y5253891D01*
G01X1689750Y5254506D01*
G01X1692133Y5255240D01*
G01X1694477Y5256093D01*
G01X1696773Y5257061D01*
G01X1699021Y5258143D01*
G01X1701208Y5259334D01*
G01X1703337Y5260635D01*
G01X1705397Y5262039D01*
G01X1707383Y5263545D01*
G01X1709293Y5265148D01*
G01X1711122Y5266842D01*
G01X1712862Y5268628D01*
G01X1714513Y5270497D01*
G01X1716067Y5272446D01*
G01X1717523Y5274470D01*
G01X1718874Y5276566D01*
G01X1720121Y5278725D01*
G01X1721259Y5280942D01*
G01X1722283Y5283215D01*
G01X1723194Y5285534D01*
G01X1723987Y5287899D01*
G01X1724663Y5290299D01*
G01X1725219Y5292728D01*
G01X1725651Y5295184D01*
G01X1725960Y5297658D01*
G01X1726148Y5300144D01*
G01X1726209Y5302636D01*
G01X1726209Y5382636D01*
G01X1726148Y5385128D01*
G01X1725960Y5387614D01*
G01X1725651Y5390088D01*
G01X1725219Y5392544D01*
G01X1724663Y5394973D01*
G01X1723987Y5397373D01*
G01X1723194Y5399738D01*
G01X1722283Y5402057D01*
G01X1721259Y5404330D01*
G01X1720121Y5406547D01*
G01X1718874Y5408706D01*
G01X1717523Y5410802D01*
G01X1716067Y5412826D01*
G01X1714513Y5414775D01*
G01X1712862Y5416644D01*
G01X1711122Y5418430D01*
G01X1709293Y5420124D01*
G01X1707383Y5421727D01*
G01X1705397Y5423233D01*
G01X1703337Y5424637D01*
G01X1701208Y5425938D01*
G01X1699021Y5427129D01*
G01X1696773Y5428211D01*
G01X1694477Y5429179D01*
G01X1692133Y5430032D01*
G01X1689750Y5430766D01*
G01X1687335Y5431381D01*
G01X1684891Y5431876D01*
G01X1682427Y5432247D01*
G01X1679946Y5432496D01*
G01X1677457Y5432621D01*
G01X1674962Y5432621D01*
G01X1672473Y5432496D01*
G01X1669992Y5432247D01*
G01X1667528Y5431876D01*
G01X1665084Y5431381D01*
G01X1662669Y5430766D01*
G01X1660286Y5430032D01*
G01X1657942Y5429179D01*
G01X1655646Y5428211D01*
G01X1653398Y5427129D01*
G01X1651208Y5425938D01*
G01X1649082Y5424637D01*
G01X1647022Y5423233D01*
G01X1645036Y5421727D01*
G01X1643126Y5420124D01*
G01X1641297Y5418430D01*
G01X1639557Y5416644D01*
G01X1637906Y5414775D01*
G01X1636352Y5412826D01*
G01X1634896Y5410802D01*
G01X1633545Y5408706D01*
G01X1632298Y5406547D01*
G01X1631160Y5404330D01*
G01X1630136Y5402057D01*
G01X1629225Y5399738D01*
G01X1628432Y5397373D01*
G01X1627756Y5394973D01*
G01X1627200Y5392544D01*
G01X1626768Y5390088D01*
G01X1626459Y5387614D01*
G01X1626271Y5385128D01*
G01X1626210Y5382636D01*
G01X1626210Y5302636D01*
G01X1626271Y5300144D01*
G01X1626459Y5297658D01*
G01X1626768Y5295184D01*
G01X1627200Y5292728D01*
G01X1627756Y5290299D01*
G01X1628432Y5287899D01*
G01X1629225Y5285534D01*
G01X1630136Y5283215D01*
G01X1631160Y5280942D01*
G01X1632298Y5278725D01*
G01X1633545Y5276566D01*
G01X1634896Y5274470D01*
G01X1636352Y5272446D01*
G01X1637906Y5270497D01*
G01X1639557Y5268628D01*
G01X1641297Y5266842D01*
G01X1643126Y5265148D01*
G01X1645036Y5263545D01*
G01X1647022Y5262039D01*
G01X1649082Y5260635D01*
G01X1651208Y5259334D01*
G01X1653398Y5258143D01*
G01X1655646Y5257061D01*
G01X1657942Y5256093D01*
G01X1660286Y5255240D01*
G01X1662669Y5254506D01*
G01X1665084Y5253891D01*
G01X1667528Y5253396D01*
G01X1669992Y5253025D01*
G01X1672473Y5252776D01*
G01X1674962Y5252651D01*
G01X1677457Y5252651D01*
G37*
G36*
G01X2536454Y5252776D02*
G01X2538943Y5252651D01*
G01X2541438Y5252651D01*
G01X2543927Y5252776D01*
G01X2546408Y5253025D01*
G01X2548872Y5253396D01*
G01X2551316Y5253891D01*
G01X2553731Y5254506D01*
G01X2556114Y5255240D01*
G01X2558458Y5256093D01*
G01X2560754Y5257061D01*
G01X2563002Y5258143D01*
G01X2565189Y5259334D01*
G01X2567318Y5260635D01*
G01X2569378Y5262039D01*
G01X2571364Y5263545D01*
G01X2573274Y5265148D01*
G01X2575103Y5266842D01*
G01X2576843Y5268628D01*
G01X2578494Y5270497D01*
G01X2580048Y5272446D01*
G01X2581504Y5274470D01*
G01X2582855Y5276566D01*
G01X2584102Y5278725D01*
G01X2585240Y5280942D01*
G01X2586264Y5283215D01*
G01X2587175Y5285534D01*
G01X2587968Y5287899D01*
G01X2588644Y5290299D01*
G01X2589200Y5292728D01*
G01X2589632Y5295184D01*
G01X2589941Y5297658D01*
G01X2590129Y5300144D01*
G01X2590190Y5302636D01*
G01X2590190Y5382636D01*
G01X2590129Y5385128D01*
G01X2589941Y5387614D01*
G01X2589632Y5390088D01*
G01X2589200Y5392544D01*
G01X2588644Y5394973D01*
G01X2587968Y5397373D01*
G01X2587175Y5399738D01*
G01X2586264Y5402057D01*
G01X2585240Y5404330D01*
G01X2584102Y5406547D01*
G01X2582855Y5408706D01*
G01X2581504Y5410802D01*
G01X2580048Y5412826D01*
G01X2578494Y5414775D01*
G01X2576843Y5416644D01*
G01X2575103Y5418430D01*
G01X2573274Y5420124D01*
G01X2571364Y5421727D01*
G01X2569378Y5423233D01*
G01X2567318Y5424637D01*
G01X2565189Y5425938D01*
G01X2563002Y5427129D01*
G01X2560754Y5428211D01*
G01X2558458Y5429179D01*
G01X2556114Y5430032D01*
G01X2553731Y5430766D01*
G01X2551316Y5431381D01*
G01X2548872Y5431876D01*
G01X2546408Y5432247D01*
G01X2543927Y5432496D01*
G01X2541438Y5432621D01*
G01X2538943Y5432621D01*
G01X2536454Y5432496D01*
G01X2533973Y5432247D01*
G01X2531509Y5431876D01*
G01X2529065Y5431381D01*
G01X2526650Y5430766D01*
G01X2524267Y5430032D01*
G01X2521923Y5429179D01*
G01X2519627Y5428211D01*
G01X2517379Y5427129D01*
G01X2515189Y5425938D01*
G01X2513063Y5424637D01*
G01X2511003Y5423233D01*
G01X2509017Y5421727D01*
G01X2507107Y5420124D01*
G01X2505278Y5418430D01*
G01X2503538Y5416644D01*
G01X2501887Y5414775D01*
G01X2500333Y5412826D01*
G01X2498877Y5410802D01*
G01X2497526Y5408706D01*
G01X2496279Y5406547D01*
G01X2495141Y5404330D01*
G01X2494117Y5402057D01*
G01X2493206Y5399738D01*
G01X2492413Y5397373D01*
G01X2491737Y5394973D01*
G01X2491181Y5392544D01*
G01X2490749Y5390088D01*
G01X2490440Y5387614D01*
G01X2490252Y5385128D01*
G01X2490191Y5382636D01*
G01X2490191Y5302636D01*
G01X2490252Y5300144D01*
G01X2490440Y5297658D01*
G01X2490749Y5295184D01*
G01X2491181Y5292728D01*
G01X2491737Y5290299D01*
G01X2492413Y5287899D01*
G01X2493206Y5285534D01*
G01X2494117Y5283215D01*
G01X2495141Y5280942D01*
G01X2496279Y5278725D01*
G01X2497526Y5276566D01*
G01X2498877Y5274470D01*
G01X2500333Y5272446D01*
G01X2501887Y5270497D01*
G01X2503538Y5268628D01*
G01X2505278Y5266842D01*
G01X2507107Y5265148D01*
G01X2509017Y5263545D01*
G01X2511003Y5262039D01*
G01X2513063Y5260635D01*
G01X2515189Y5259334D01*
G01X2517379Y5258143D01*
G01X2519627Y5257061D01*
G01X2521923Y5256093D01*
G01X2524267Y5255240D01*
G01X2526650Y5254506D01*
G01X2529065Y5253891D01*
G01X2531509Y5253396D01*
G01X2533973Y5253025D01*
G01X2536454Y5252776D01*
G37*
G36*
G01X532252Y3200718D02*
G01X668254Y3200718D01*
G01X668254Y3064716D01*
G01X532252Y3064716D01*
G01X532252Y3200718D01*
G37*
G36*
G01X492732Y3195213D02*
G01X492732Y3220215D01*
G01X417733Y3220215D01*
G01X417733Y3195213D01*
G01X492732Y3195213D01*
G37*
G36*
G01X492732Y3145226D02*
G01X492732Y3170227D01*
G01X417733Y3170227D01*
G01X417733Y3145226D01*
G01X492732Y3145226D01*
G37*
G36*
G01X492732Y3095214D02*
G01X492732Y3120215D01*
G01X417733Y3120215D01*
G01X417733Y3095214D01*
G01X492732Y3095214D01*
G37*
G36*
G01X492732Y3045226D02*
G01X492732Y3070228D01*
G01X417733Y3070228D01*
G01X417733Y3045226D01*
G01X492732Y3045226D01*
G37*
G36*
G01X782724Y3195213D02*
G01X782724Y3220215D01*
G01X707725Y3220215D01*
G01X707725Y3195213D01*
G01X782724Y3195213D01*
G37*
G36*
G01X782724Y3145226D02*
G01X782724Y3170227D01*
G01X707725Y3170227D01*
G01X707725Y3145226D01*
G01X782724Y3145226D01*
G37*
G36*
G01X782724Y3095214D02*
G01X782724Y3120215D01*
G01X707725Y3120215D01*
G01X707725Y3095214D01*
G01X782724Y3095214D01*
G37*
G36*
G01X782724Y3045226D02*
G01X782724Y3070228D01*
G01X707725Y3070228D01*
G01X707725Y3045226D01*
G01X782724Y3045226D01*
G37*
G36*
G01X537807Y3315218D02*
G01X512806Y3315218D01*
G01X512806Y3240220D01*
G01X537807Y3240220D01*
G01X537807Y3315218D01*
G37*
G36*
G01X587794Y3315218D02*
G01X562793Y3315218D01*
G01X562793Y3240220D01*
G01X587794Y3240220D01*
G01X587794Y3315218D01*
G37*
G36*
G01X637807Y3315218D02*
G01X612805Y3315218D01*
G01X612805Y3240220D01*
G01X637807Y3240220D01*
G01X637807Y3315218D01*
G37*
G36*
G01X687794Y3315218D02*
G01X662793Y3315218D01*
G01X662793Y3240220D01*
G01X687794Y3240220D01*
G01X687794Y3315218D01*
G37*
G36*
G01X537883Y3025226D02*
G01X512882Y3025226D01*
G01X512882Y2950228D01*
G01X537883Y2950228D01*
G01X537883Y3025226D01*
G37*
G36*
G01X587870Y3025226D02*
G01X562869Y3025226D01*
G01X562869Y2950228D01*
G01X587870Y2950228D01*
G01X587870Y3025226D01*
G37*
G36*
G01X637883Y3025226D02*
G01X612882Y3025226D01*
G01X612882Y2950228D01*
G01X637883Y2950228D01*
G01X637883Y3025226D01*
G37*
G36*
G01X687870Y3025226D02*
G01X662869Y3025226D01*
G01X662869Y2950228D01*
G01X687870Y2950228D01*
G01X687870Y3025226D01*
G37*
G36*
G01X1049398Y281501D02*
G01X921400Y281501D01*
G01X916399Y286502D01*
G01X916399Y401503D01*
G01X921400Y406502D01*
G01X962403Y407005D01*
G01X962403Y362003D01*
G01X1007402Y362003D01*
G01X1007402Y406004D01*
G01X1049398Y406502D01*
G01X1054400Y401503D01*
G01X1054400Y286502D01*
G01X1049398Y281501D01*
G37*
G36*
G01X921398Y622496D02*
G01X1049396Y622496D01*
G01X1054397Y617494D01*
G01X1054397Y502493D01*
G01X1049396Y497495D01*
G01X1008393Y496992D01*
G01X1008393Y541993D01*
G01X963394Y541993D01*
G01X963394Y497992D01*
G01X921398Y497495D01*
G01X916396Y502493D01*
G01X916396Y617494D01*
G01X921398Y622496D01*
G37*
G36*
G01X2242503Y1536200D02*
G01X2242503Y1664198D01*
G01X2247504Y1669199D01*
G01X2362505Y1669199D01*
G01X2367504Y1664198D01*
G01X2368006Y1623195D01*
G01X2323005Y1623195D01*
G01X2323005Y1578196D01*
G01X2367006Y1578196D01*
G01X2367504Y1536200D01*
G01X2362505Y1531198D01*
G01X2247504Y1531198D01*
G01X2242503Y1536200D01*
G37*
G36*
G01X2583498Y1664200D02*
G01X2583498Y1536202D01*
G01X2578496Y1531201D01*
G01X2463495Y1531201D01*
G01X2458496Y1536202D01*
G01X2457994Y1577205D01*
G01X2502995Y1577205D01*
G01X2502995Y1622204D01*
G01X2458994Y1622204D01*
G01X2458496Y1664200D01*
G01X2463495Y1669202D01*
G01X2578496Y1669202D01*
G01X2583498Y1664200D01*
G37*
G36*
G01X1253411Y952576D02*
G01X1281775Y976376D01*
G01X1295863Y975143D01*
G01X1315462Y951786D01*
G01X1329550Y950554D01*
G01X1359234Y975462D01*
G01X1360467Y989550D01*
G01X1340868Y1012907D01*
G01X1342101Y1026995D01*
G01X1370464Y1050795D01*
G01X1384552Y1049562D01*
G01X1467150Y951127D01*
G01X1465917Y937038D01*
G01X1348864Y838819D01*
G01X1334776Y840052D01*
G01X1252179Y938488D01*
G01X1253411Y952576D01*
G37*
G36*
G01X1144136Y1082805D02*
G01X1172499Y1106605D01*
G01X1173732Y1120693D01*
G01X1154133Y1144050D01*
G01X1155366Y1158138D01*
G01X1185050Y1183046D01*
G01X1199138Y1181814D01*
G01X1218737Y1158457D01*
G01X1232825Y1157224D01*
G01X1261189Y1181024D01*
G01X1262421Y1195112D01*
G01X1179824Y1293548D01*
G01X1165736Y1294781D01*
G01X1048683Y1196562D01*
G01X1047450Y1182473D01*
G01X1130048Y1084038D01*
G01X1144136Y1082805D01*
G37*
G36*
G01X703898Y2743700D02*
G01X703898Y2615702D01*
G01X698896Y2610701D01*
G01X583895Y2610701D01*
G01X578896Y2615702D01*
G01X578394Y2656705D01*
G01X623395Y2656705D01*
G01X623395Y2701704D01*
G01X579394Y2701704D01*
G01X578896Y2743700D01*
G01X583895Y2748702D01*
G01X698896Y2748702D01*
G01X703898Y2743700D01*
G37*
G36*
G01X362903Y2615700D02*
G01X362903Y2743698D01*
G01X367904Y2748699D01*
G01X482905Y2748699D01*
G01X487904Y2743698D01*
G01X488406Y2702695D01*
G01X443405Y2702695D01*
G01X443405Y2657696D01*
G01X487406Y2657696D01*
G01X487904Y2615700D01*
G01X482905Y2610698D01*
G01X367904Y2610698D01*
G01X362903Y2615700D01*
G37*
G36*
G01X746900Y407200D02*
G01X700900Y407200D01*
G01X696900Y411201D01*
G01X696900Y461264D01*
G01X700900Y465265D01*
G01X746900Y465265D01*
G01X750900Y461264D01*
G01X750900Y411201D01*
G01X746900Y407200D01*
G37*
G36*
G01X746900Y380200D02*
G01X700900Y380200D01*
G01X696900Y376199D01*
G01X696900Y326136D01*
G01X700900Y322136D01*
G01X746900Y322136D01*
G01X750900Y326136D01*
G01X750900Y376199D01*
G01X746900Y380200D01*
G37*
G36*
G01X573900Y1459700D02*
G01X619900Y1459700D01*
G01X623900Y1455699D01*
G01X623900Y1405636D01*
G01X619900Y1401636D01*
G01X573900Y1401636D01*
G01X569900Y1405636D01*
G01X569900Y1455699D01*
G01X573900Y1459700D01*
G37*
G36*
G01X573900Y1486700D02*
G01X619900Y1486700D01*
G01X623900Y1490701D01*
G01X623900Y1540764D01*
G01X619900Y1544765D01*
G01X573900Y1544765D01*
G01X569900Y1540764D01*
G01X569900Y1490701D01*
G01X573900Y1486700D01*
G37*
G36*
G01X619900Y407200D02*
G01X573900Y407200D01*
G01X569900Y411201D01*
G01X569900Y461264D01*
G01X573900Y465265D01*
G01X619900Y465265D01*
G01X623900Y461264D01*
G01X623900Y411201D01*
G01X619900Y407200D01*
G37*
G36*
G01X619900Y380200D02*
G01X573900Y380200D01*
G01X569900Y376199D01*
G01X569900Y326136D01*
G01X573900Y322136D01*
G01X619900Y322136D01*
G01X623900Y326136D01*
G01X623900Y376199D01*
G01X619900Y380200D01*
G37*
G36*
G01X700900Y1459700D02*
G01X746900Y1459700D01*
G01X750900Y1455699D01*
G01X750900Y1405636D01*
G01X746900Y1401636D01*
G01X700900Y1401636D01*
G01X696900Y1405636D01*
G01X696900Y1455699D01*
G01X700900Y1459700D01*
G37*
G36*
G01X700900Y1486700D02*
G01X746900Y1486700D01*
G01X750900Y1490701D01*
G01X750900Y1540764D01*
G01X746900Y1544765D01*
G01X700900Y1544765D01*
G01X696900Y1540764D01*
G01X696900Y1490701D01*
G01X700900Y1486700D01*
G37*
G36*
G01X492900Y407200D02*
G01X446900Y407200D01*
G01X442900Y411201D01*
G01X442900Y461264D01*
G01X446900Y465265D01*
G01X492900Y465265D01*
G01X496900Y461264D01*
G01X496900Y411201D01*
G01X492900Y407200D01*
G37*
G36*
G01X492900Y380200D02*
G01X446900Y380200D01*
G01X442900Y376199D01*
G01X442900Y326136D01*
G01X446900Y322136D01*
G01X492900Y322136D01*
G01X496900Y326136D01*
G01X496900Y376199D01*
G01X492900Y380200D01*
G37*
G36*
G01X2172500Y1386700D02*
G01X2172500Y1432700D01*
G01X2176501Y1436700D01*
G01X2226564Y1436700D01*
G01X2230565Y1432700D01*
G01X2230565Y1386700D01*
G01X2226564Y1382700D01*
G01X2176501Y1382700D01*
G01X2172500Y1386700D01*
G37*
G36*
G01X2145500Y1386700D02*
G01X2145500Y1432700D01*
G01X2141499Y1436700D01*
G01X2091436Y1436700D01*
G01X2087436Y1432700D01*
G01X2087436Y1386700D01*
G01X2091436Y1382700D01*
G01X2141499Y1382700D01*
G01X2145500Y1386700D01*
G37*
G36*
G01X932901Y4742302D02*
G01X932901Y4662302D01*
G01X937903Y4657301D01*
G01X960699Y4657301D01*
G01X960699Y4694301D01*
G01X993699Y4694301D01*
G01X993699Y4657301D01*
G01X1017902Y4657301D01*
G01X1022901Y4662302D01*
G01X1022901Y4742302D01*
G01X1017902Y4747301D01*
G01X937903Y4747301D01*
G01X932901Y4742302D01*
G37*
G36*
G01X1022899Y4503298D02*
G01X1022899Y4583298D01*
G01X1017897Y4588299D01*
G01X995101Y4588299D01*
G01X995101Y4551299D01*
G01X962101Y4551299D01*
G01X962101Y4588299D01*
G01X937898Y4588299D01*
G01X932899Y4583298D01*
G01X932899Y4503298D01*
G01X937898Y4498299D01*
G01X1017897Y4498299D01*
G01X1022899Y4503298D01*
G37*
G36*
G01X1440901Y4742302D02*
G01X1440901Y4662302D01*
G01X1445903Y4657301D01*
G01X1468699Y4657301D01*
G01X1468699Y4694301D01*
G01X1501699Y4694301D01*
G01X1501699Y4657301D01*
G01X1525902Y4657301D01*
G01X1530901Y4662302D01*
G01X1530901Y4742302D01*
G01X1525902Y4747301D01*
G01X1445903Y4747301D01*
G01X1440901Y4742302D01*
G37*
G36*
G01X1530899Y4503298D02*
G01X1530899Y4583298D01*
G01X1525897Y4588299D01*
G01X1503101Y4588299D01*
G01X1503101Y4551299D01*
G01X1470101Y4551299D01*
G01X1470101Y4588299D01*
G01X1445898Y4588299D01*
G01X1440899Y4583298D01*
G01X1440899Y4503298D01*
G01X1445898Y4498299D01*
G01X1525897Y4498299D01*
G01X1530899Y4503298D01*
G37*
G36*
G01X2342002Y4756699D02*
G01X2262002Y4756699D01*
G01X2257001Y4751697D01*
G01X2257001Y4728901D01*
G01X2294001Y4728901D01*
G01X2294001Y4695901D01*
G01X2257001Y4695901D01*
G01X2257001Y4671698D01*
G01X2262002Y4666699D01*
G01X2342002Y4666699D01*
G01X2347001Y4671698D01*
G01X2347001Y4751697D01*
G01X2342002Y4756699D01*
G37*
G36*
G01X2102998Y4666701D02*
G01X2182998Y4666701D01*
G01X2187999Y4671703D01*
G01X2187999Y4694499D01*
G01X2150999Y4694499D01*
G01X2150999Y4727499D01*
G01X2187999Y4727499D01*
G01X2187999Y4751702D01*
G01X2182998Y4756701D01*
G01X2102998Y4756701D01*
G01X2097999Y4751702D01*
G01X2097999Y4671703D01*
G01X2102998Y4666701D01*
G37*
G36*
G01X678302Y4693199D02*
G01X598302Y4693199D01*
G01X593301Y4688197D01*
G01X593301Y4665401D01*
G01X630301Y4665401D01*
G01X630301Y4632401D01*
G01X593301Y4632401D01*
G01X593301Y4608198D01*
G01X598302Y4603199D01*
G01X678302Y4603199D01*
G01X683301Y4608198D01*
G01X683301Y4688197D01*
G01X678302Y4693199D01*
G37*
G36*
G01X439298Y4603201D02*
G01X519298Y4603201D01*
G01X524299Y4608203D01*
G01X524299Y4630999D01*
G01X487299Y4630999D01*
G01X487299Y4663999D01*
G01X524299Y4663999D01*
G01X524299Y4688202D01*
G01X519298Y4693201D01*
G01X439298Y4693201D01*
G01X434299Y4688202D01*
G01X434299Y4608203D01*
G01X439298Y4603201D01*
G37*
G36*
G01X729102Y1797599D02*
G01X649102Y1797599D01*
G01X644101Y1792597D01*
G01X644101Y1769801D01*
G01X681101Y1769801D01*
G01X681101Y1736801D01*
G01X644101Y1736801D01*
G01X644101Y1712598D01*
G01X649102Y1707599D01*
G01X729102Y1707599D01*
G01X734101Y1712598D01*
G01X734101Y1792597D01*
G01X729102Y1797599D01*
G37*
G36*
G01X490098Y1707601D02*
G01X570098Y1707601D01*
G01X575099Y1712603D01*
G01X575099Y1735399D01*
G01X538099Y1735399D01*
G01X538099Y1768399D01*
G01X575099Y1768399D01*
G01X575099Y1792602D01*
G01X570098Y1797601D01*
G01X490098Y1797601D01*
G01X485099Y1792602D01*
G01X485099Y1712603D01*
G01X490098Y1707601D01*
G37*
G36*
G01X426598Y2291801D02*
G01X506598Y2291801D01*
G01X511599Y2296803D01*
G01X511599Y2319599D01*
G01X474599Y2319599D01*
G01X474599Y2352599D01*
G01X511599Y2352599D01*
G01X511599Y2376802D01*
G01X506598Y2381801D01*
G01X426598Y2381801D01*
G01X421599Y2376802D01*
G01X421599Y2296803D01*
G01X426598Y2291801D01*
G37*
G36*
G01X665602Y2381799D02*
G01X585602Y2381799D01*
G01X580601Y2376797D01*
G01X580601Y2354001D01*
G01X617601Y2354001D01*
G01X617601Y2321001D01*
G01X580601Y2321001D01*
G01X580601Y2296798D01*
G01X585602Y2291799D01*
G01X665602Y2291799D01*
G01X670601Y2296798D01*
G01X670601Y2376797D01*
G01X665602Y2381799D01*
G37*
G36*
G01X2134400Y4434700D02*
G01X2134400Y4480700D01*
G01X2138401Y4484700D01*
G01X2188464Y4484700D01*
G01X2192465Y4480700D01*
G01X2192465Y4434700D01*
G01X2188464Y4430700D01*
G01X2138401Y4430700D01*
G01X2134400Y4434700D01*
G37*
G36*
G01X2107400Y4434700D02*
G01X2107400Y4480700D01*
G01X2103399Y4484700D01*
G01X2053336Y4484700D01*
G01X2049336Y4480700D01*
G01X2049336Y4434700D01*
G01X2053336Y4430700D01*
G01X2103399Y4430700D01*
G01X2107400Y4434700D01*
G37*
G36*
G01X1475600Y3974300D02*
G01X1521600Y3974300D01*
G01X1525600Y3970299D01*
G01X1525600Y3920236D01*
G01X1521600Y3916236D01*
G01X1475600Y3916236D01*
G01X1471600Y3920236D01*
G01X1471600Y3970299D01*
G01X1475600Y3974300D01*
G37*
G36*
G01X1475600Y4001300D02*
G01X1521600Y4001300D01*
G01X1525600Y4005301D01*
G01X1525600Y4055364D01*
G01X1521600Y4059365D01*
G01X1475600Y4059365D01*
G01X1471600Y4055364D01*
G01X1471600Y4005301D01*
G01X1475600Y4001300D01*
G37*
G36*
G01X1247000Y3987000D02*
G01X1293000Y3987000D01*
G01X1297000Y3982999D01*
G01X1297000Y3932936D01*
G01X1293000Y3928936D01*
G01X1247000Y3928936D01*
G01X1243000Y3932936D01*
G01X1243000Y3982999D01*
G01X1247000Y3987000D01*
G37*
G36*
G01X1247000Y4014000D02*
G01X1293000Y4014000D01*
G01X1297000Y4018001D01*
G01X1297000Y4068064D01*
G01X1293000Y4072065D01*
G01X1247000Y4072065D01*
G01X1243000Y4068064D01*
G01X1243000Y4018001D01*
G01X1247000Y4014000D01*
G37*

G04 Pad Start*
G54D10*
G01X959002Y3467100D03*
G01X818998Y3467100D03*
G54D11*
G01X2095500Y1276198D03*
G01X2095500Y1035202D03*
G54D12*
G01X2514501Y3556000D03*
G01X2184499Y3556000D03*
G54D13*
G01X2032000Y3682901D03*
G01X2032000Y3352899D03*
G54D14*
G01X1633398Y241338D03*
G01X1338402Y241338D03*
G54D15*
G01X1485900Y88862D03*
G54D11*
G01X1498257Y4354800D03*
G01X1498943Y4205000D03*
G01X1269644Y4354800D03*
G01X1270356Y4205000D03*
G54D17*
G01X2224913Y3826701D03*
G01X2524887Y3826701D03*
G01X2524887Y4326700D03*
G01X2224913Y4326700D03*
G54D11*
G01X1815744Y4354800D03*
G01X1816456Y4205000D03*
G54D18*
G01X977900Y2440432D03*
G01X882904Y2690368D03*
G01X1072896Y2690368D03*
G01X1346200Y2453132D03*
G01X1251204Y2703068D03*
G01X1441196Y2703068D03*
G54D19*
G01X454609Y3784600D03*
G01X891591Y3784600D03*
G01X454609Y4279900D03*
G01X891591Y4279900D03*
G54D20*
G01X850900Y1281328D03*
G01X723900Y1281328D03*
G01X596900Y1281328D03*
G01X469900Y1281328D03*
G01X850900Y572872D03*
G01X723900Y572872D03*
G01X596900Y572872D03*
G01X469900Y572872D03*
G54D21*
G01X2106803Y2660650D03*
G01X2336800Y2660650D03*
G01X2566797Y2660650D03*
G54D22*
G01X2336800Y3232150D03*
G54D23*
G01X2302993Y1908899D03*
G01X2523007Y1908899D03*
G01X2523007Y2078901D03*
G01X2302993Y2078901D03*
G54D24*
G01X1441017Y1154095D03*
G01X1505383Y1208105D03*
G54D25*
G01X1917700Y2505812D03*
G01X1917700Y2421788D03*
G54D26*
G01X2493112Y2463800D03*
G01X2409088Y2463800D03*
G01X2409088Y2349500D03*
G01X2493112Y2349500D03*
G54D24*
G01X1364817Y1242995D03*
G01X1429183Y1297005D03*
G54D25*
G01X990600Y2980588D03*
G01X990600Y3064612D03*
G54D26*
G01X943712Y88900D03*
G01X859688Y88900D03*
G54D25*
G01X1130300Y486512D03*
G01X1130300Y402488D03*
G54D26*
G01X504088Y2844800D03*
G01X588112Y2844800D03*
G54D27*
G01X1927575Y2202903D03*
G01X2034825Y2292897D03*
G54D26*
G01X1210412Y88900D03*
G01X1126388Y88900D03*
G54D25*
G01X1917700Y308712D03*
G01X1917700Y224688D03*
G54D10*
G01X2342998Y1422400D03*
G01X2483002Y1422400D03*
G54D28*
G01X2628900Y2394102D03*
G01X2628900Y2254098D03*
G04 Pad End*

M02*

