G04 Layer: TopSolderMaskLayer*
G04 EasyEDA Pro v2.2.45.4, 2026-01-02 03:19:05*
G04 Gerber Generator version 0.3*
G04 Scale: 100 percent, Rotated: No, Reflected: No*
G04 Dimensions in millimeters*
G04 Leading zeros omitted, absolute positions, 4 integers and 5 decimals*
G04 Generated by one-click*
%FSLAX45Y45*%
%MOMM*%
%AMRoundRect*1,1,$1,$2,$3*1,1,$1,$4,$5*1,1,$1,0-$2,0-$3*1,1,$1,0-$4,0-$5*20,1,$1,$2,$3,$4,$5,0*20,1,$1,$4,$5,0-$2,0-$3,0*20,1,$1,0-$2,0-$3,0-$4,0-$5,0*20,1,$1,0-$4,0-$5,$2,$3,0*4,1,4,$2,$3,$4,$5,0-$2,0-$3,0-$4,0-$5,$2,$3,0*%
%ADD10RoundRect,0.09131X-0.40514X0.45514X0.40514X0.45514*%
%ADD11RoundRect,0.09131X-0.40514X-0.40514X-0.40514X0.40514*%
%ADD12RoundRect,0.09302X-0.50429X0.60429X0.50429X0.60429*%
%ADD13RoundRect,0.09302X-0.60429X-0.50429X-0.60429X0.50429*%
%ADD14RoundRect,0.09588X-0.80286X-0.80286X-0.80286X0.80286*%
%ADD15C,1.7016*%
%ADD16RoundRect,0.0973X-0.52901X1.104X0.52901X1.104*%
%ADD17RoundRect,0.09202X-0.52901X1.104X0.52901X1.104*%
%ADD18RoundRect,0.09169X-0.50417X0.52917X0.50417X0.52917*%
%ADD19RoundRect,0.09131X-0.40514X0.43715X0.40514X0.43715*%
%ADD20RoundRect,0.09131X-0.40514X0.40514X0.40514X0.40514*%
%ADD21RoundRect,0.09302X-0.50429X-0.75429X-0.50429X0.75429*%
%ADD22RoundRect,0.09017X-0.35571X0.63072X0.35571X0.63072*%
%ADD23RoundRect,0.09138X-0.07237X-0.59379X-0.59733X0.03184*%
%ADD24RoundRect,0.09138X-0.40835X0.43711X0.40835X0.43711*%
%ADD25RoundRect,0.09138X-0.43711X-0.40835X-0.43711X0.40835*%
%ADD26RoundRect,0.0944X-0.6186X0.9336X0.6186X0.9336*%
%ADD27RoundRect,0.076X0.1644X-0.32393X-0.32393X0.1644*%
%ADD28RoundRect,0.076X-0.1644X-0.32393X-0.32393X-0.1644*%
%ADD29RoundRect,0.09914X0.0X-2.83016X-2.83016X0.0*%
%ADD30O,0.71059X2.30609*%
%ADD31RoundRect,0.08752X-0.30625X0.58126X0.30625X0.58126*%
%ADD32RoundRect,0.08002X-0.16X0.58501X0.16X0.58501*%
%ADD33O,1.1016X1.9016*%
%ADD34O,1.1016X2.2016*%
%ADD35RoundRect,0.07882X-0.13639X0.38639X0.13639X0.38639*%
%ADD36RoundRect,0.07882X-0.38639X0.13639X0.38639X0.13639*%
%ADD37RoundRect,0.09618X-0.85271X0.85271X0.85271X0.85271*%
%ADD38RoundRect,0.09336X-0.52912X-1.23662X-0.52912X1.23662*%
%ADD39RoundRect,0.09773X-1.77193X-1.23443X-1.77193X1.23443*%
%ADD40RoundRect,0.09424X-0.70368X0.60368X0.70368X0.60368*%
%ADD41RoundRect,0.08692X-0.37541X0.04704X0.01886X0.37787*%
%ADD42RoundRect,0.08692X-0.27734X-0.25734X-0.27734X0.25734*%
%ADD43RoundRect,0.08692X-0.25734X0.27734X0.25734X0.27734*%
%ADD44RoundRect,0.09495X-0.67833X-0.70833X-0.67833X0.70833*%
%ADD45RoundRect,0.09495X-0.70833X0.67833X0.70833X0.67833*%
%ADD46RoundRect,0.09549X-0.18496X-1.12846X-1.14344X0.0138*%
%ADD47RoundRect,0.09131X-0.60292X0.08824X0.0178X0.60908*%
%ADD48RoundRect,0.09131X-0.45514X-0.40514X-0.45514X0.40514*%
%ADD49RoundRect,0.08771X-0.27695X-0.28977X-0.27695X0.28977*%
%ADD50RoundRect,0.08771X-0.28977X0.27695X0.28977X0.27695*%
%ADD51C,1.6256*%
G75*


G04 Pad Start*
G54D10*
G01X959002Y3467100D03*
G01X818998Y3467100D03*
G54D11*
G01X2095500Y1276198D03*
G01X2095500Y1035202D03*
G54D12*
G01X2514501Y3556000D03*
G01X2184499Y3556000D03*
G54D13*
G01X2032000Y3682901D03*
G01X2032000Y3352899D03*
G54D14*
G01X2857500Y139700D03*
G54D15*
G01X2857500Y393700D03*
G01X2857500Y647700D03*
G01X2857500Y901700D03*
G01X2857500Y1155700D03*
G01X2857500Y1409700D03*
G01X2857500Y1663700D03*
G01X2857500Y1917700D03*
G01X2857500Y2171700D03*
G01X2857500Y2425700D03*
G01X2857500Y2679700D03*
G01X2857500Y2933700D03*
G01X2857500Y3187700D03*
G01X2857500Y3441700D03*
G01X2857500Y3695700D03*
G01X2857500Y3949700D03*
G01X2857500Y4203700D03*
G01X2857500Y4457700D03*
G01X2857500Y4711700D03*
G01X2857500Y4965700D03*
G01X2857500Y5219700D03*
G01X2857500Y5473700D03*
G54D14*
G01X139700Y5473700D03*
G54D15*
G01X139700Y5219700D03*
G01X139700Y4965700D03*
G01X139700Y4711700D03*
G01X139700Y4457700D03*
G01X139700Y4203700D03*
G01X139700Y3949700D03*
G01X139700Y3695700D03*
G01X139700Y3441700D03*
G01X139700Y3187700D03*
G01X139700Y2933700D03*
G01X139700Y2679700D03*
G01X139700Y2425700D03*
G01X139700Y2171700D03*
G01X139700Y1917700D03*
G01X139700Y1663700D03*
G01X139700Y1409700D03*
G01X139700Y1155700D03*
G01X139700Y901700D03*
G01X139700Y647700D03*
G01X139700Y393700D03*
G01X139700Y139700D03*
G54D17*
G01X1633398Y241338D03*
G01X1338402Y241338D03*
G54D18*
G01X1485900Y88862D03*
G54D19*
G01X666890Y88900D03*
G01X526910Y88900D03*
G01X1898790Y558800D03*
G01X1758810Y558800D03*
G54D20*
G01X1498257Y4354800D03*
G01X1498943Y4205000D03*
G01X1269644Y4354800D03*
G01X1270356Y4205000D03*
G54D21*
G01X2224913Y3826701D03*
G01X2524887Y3826701D03*
G01X2524887Y4326700D03*
G01X2224913Y4326700D03*
G54D20*
G01X1815744Y4354800D03*
G01X1816456Y4205000D03*
G54D22*
G01X977900Y2440432D03*
G01X882904Y2690368D03*
G01X1072896Y2690368D03*
G01X1346200Y2453132D03*
G01X1251204Y2703068D03*
G01X1441196Y2703068D03*
G54D23*
G01X975525Y2050489D03*
G01X878675Y2165911D03*
G54D24*
G01X621436Y2032000D03*
G01X470764Y2032000D03*
G54D25*
G01X1295400Y3034436D03*
G01X1295400Y2883764D03*
G01X1498600Y2883764D03*
G01X1498600Y3034436D03*
G54D26*
G01X454609Y3784600D03*
G01X891591Y3784600D03*
G01X454609Y4279900D03*
G01X891591Y4279900D03*
G54D27*
G01X1619196Y1391298D03*
G01X1647484Y1419586D03*
G01X1675772Y1447874D03*
G01X1704042Y1476143D03*
G01X1732330Y1504431D03*
G01X1760618Y1532719D03*
G01X1788905Y1561007D03*
G01X1817193Y1589295D03*
G01X1845463Y1617564D03*
G01X1873751Y1645852D03*
G01X1902039Y1674140D03*
G01X1930326Y1702428D03*
G01X1958614Y1730716D03*
G01X1986884Y1758986D03*
G54D28*
G01X1986884Y1873214D03*
G01X1958614Y1901484D03*
G01X1930326Y1929772D03*
G01X1902039Y1958060D03*
G01X1873751Y1986348D03*
G01X1845463Y2014636D03*
G01X1817193Y2042905D03*
G01X1788905Y2071193D03*
G01X1760618Y2099481D03*
G01X1732330Y2127769D03*
G01X1704042Y2156057D03*
G01X1675772Y2184326D03*
G01X1647484Y2212614D03*
G01X1619196Y2240902D03*
G54D27*
G01X1504986Y2240884D03*
G01X1476716Y2212614D03*
G01X1448428Y2184326D03*
G01X1420140Y2156039D03*
G01X1391852Y2127751D03*
G01X1363564Y2099463D03*
G01X1335295Y2071193D03*
G01X1307007Y2042905D03*
G01X1278719Y2014618D03*
G01X1250431Y1986330D03*
G01X1222143Y1958042D03*
G01X1193874Y1929772D03*
G01X1165586Y1901484D03*
G01X1137298Y1873196D03*
G54D28*
G01X1137298Y1759004D03*
G01X1165586Y1730716D03*
G01X1193874Y1702428D03*
G01X1222143Y1674158D03*
G01X1250431Y1645870D03*
G01X1278719Y1617582D03*
G01X1307007Y1589295D03*
G01X1335295Y1561007D03*
G01X1363564Y1532737D03*
G01X1391852Y1504449D03*
G01X1420140Y1476161D03*
G01X1448428Y1447874D03*
G01X1476716Y1419586D03*
G01X1504986Y1391316D03*
G54D29*
G01X1562082Y1816100D03*
G54D30*
G01X850900Y1281328D03*
G01X723900Y1281328D03*
G01X596900Y1281328D03*
G01X469900Y1281328D03*
G01X850900Y572872D03*
G01X723900Y572872D03*
G01X596900Y572872D03*
G01X469900Y572872D03*
G54D31*
G01X649008Y4868164D03*
G54D32*
G01X713981Y4868164D03*
G01X763994Y4868164D03*
G01X813981Y4868164D03*
G01X863994Y4868164D03*
G01X913981Y4868164D03*
G01X963994Y4868164D03*
G01X1013981Y4868164D03*
G01X1063993Y4868164D03*
G54D31*
G01X1128992Y4868164D03*
G01X568998Y4868164D03*
G01X1209002Y4868164D03*
G54D33*
G01X1320991Y5342636D03*
G54D34*
G01X1320991Y4924628D03*
G01X457010Y4924628D03*
G54D33*
G01X457010Y5342636D03*
G54D31*
G01X1868208Y4868164D03*
G54D32*
G01X1933181Y4868164D03*
G01X1983194Y4868164D03*
G01X2033181Y4868164D03*
G01X2083194Y4868164D03*
G01X2133181Y4868164D03*
G01X2183194Y4868164D03*
G01X2233181Y4868164D03*
G01X2283193Y4868164D03*
G54D31*
G01X2348192Y4868164D03*
G01X1788198Y4868164D03*
G01X2428202Y4868164D03*
G54D33*
G01X2540191Y5342636D03*
G54D34*
G01X2540191Y4924628D03*
G01X1676210Y4924628D03*
G54D33*
G01X1676210Y5342636D03*
G54D35*
G01X525384Y2987723D03*
G01X575371Y2987723D03*
G01X625384Y2987723D03*
G01X675371Y2987698D03*
G54D36*
G01X745221Y3057726D03*
G01X745221Y3107713D03*
G01X745221Y3157725D03*
G01X745221Y3207713D03*
G54D35*
G01X675218Y3277715D03*
G01X625231Y3277715D03*
G01X575219Y3277715D03*
G01X525308Y3277715D03*
G54D36*
G01X455229Y3207713D03*
G01X455229Y3157725D03*
G01X455229Y3107713D03*
G01X455229Y3057726D03*
G54D37*
G01X600263Y3132706D03*
G54D38*
G01X2106803Y2660650D03*
G01X2336800Y2660650D03*
G01X2566797Y2660650D03*
G54D39*
G01X2336800Y3232150D03*
G54D40*
G01X2302993Y1908899D03*
G01X2523007Y1908899D03*
G01X2523007Y2078901D03*
G01X2302993Y2078901D03*
G54D41*
G01X1441017Y1154095D03*
G01X1505383Y1208105D03*
G54D42*
G01X1917700Y2505812D03*
G01X1917700Y2421788D03*
G54D43*
G01X2493112Y2463800D03*
G01X2409088Y2463800D03*
G01X2409088Y2349500D03*
G01X2493112Y2349500D03*
G54D44*
G01X985398Y551998D03*
G01X985398Y351998D03*
G54D45*
G01X2513000Y1600200D03*
G01X2313000Y1600200D03*
G54D41*
G01X1364817Y1242995D03*
G01X1429183Y1297005D03*
G54D46*
G01X1359669Y944801D03*
G01X1154931Y1188799D03*
G54D42*
G01X990600Y2980588D03*
G01X990600Y3064612D03*
G54D43*
G01X943712Y88900D03*
G01X859688Y88900D03*
G54D42*
G01X1130300Y486512D03*
G01X1130300Y402488D03*
G54D43*
G01X504088Y2844800D03*
G01X588112Y2844800D03*
G54D47*
G01X1927575Y2202903D03*
G01X2034825Y2292897D03*
G54D43*
G01X1210412Y88900D03*
G01X1126388Y88900D03*
G54D42*
G01X1917700Y308712D03*
G01X1917700Y224688D03*
G54D10*
G01X2342998Y1422400D03*
G01X2483002Y1422400D03*
G54D48*
G01X2628900Y2394102D03*
G01X2628900Y2254098D03*
G54D45*
G01X433400Y2679700D03*
G01X633400Y2679700D03*
G54D49*
G01X723900Y436982D03*
G01X723900Y350418D03*
G01X596900Y1429918D03*
G01X596900Y1516482D03*
G01X596900Y436982D03*
G01X596900Y350418D03*
G01X723900Y1429918D03*
G01X723900Y1516482D03*
G01X469900Y436982D03*
G01X469900Y350418D03*
G54D50*
G01X2202282Y1409700D03*
G01X2115718Y1409700D03*
G54D25*
G01X977900Y4698136D03*
G01X977900Y4547464D03*
G01X1485900Y4698136D03*
G01X1485900Y4547464D03*
G54D24*
G01X2297836Y4711700D03*
G01X2147164Y4711700D03*
G01X634136Y4648200D03*
G01X483464Y4648200D03*
G01X684936Y1752600D03*
G01X534264Y1752600D03*
G01X470764Y2336800D03*
G01X621436Y2336800D03*
G54D50*
G01X2164182Y4457700D03*
G01X2077618Y4457700D03*
G54D49*
G01X1498600Y3944518D03*
G01X1498600Y4031082D03*
G01X1270000Y3957218D03*
G01X1270000Y4043782D03*
G54D51*
G01X2336800Y3225800D03*
G04 Pad End*

M02*

