G04 Layer: InnerLayer1*
G04 EasyEDA Pro v2.2.45.4, 2026-01-02 03:19:05*
G04 Gerber Generator version 0.3*
G04 Scale: 100 percent, Rotated: No, Reflected: No*
G04 Dimensions in millimeters*
G04 Leading zeros omitted, absolute positions, 4 integers and 5 decimals*
G04 Generated by one-click*
%FSLAX45Y45*%
%MOMM*%
%ADD10R,1.6X1.6*%
%ADD11C,1.6*%
%ADD12O,1.0X1.8*%
%ADD13O,1.0X2.1*%
%ADD14C,1.524*%
%ADD15C,0.6096*%
%ADD16C,0.6140*%
%ADD17C,0.61*%
%ADD18C,0.254*%
%ADD19C,0.127*%
%ADD20C,0.1524*%
G75*


G04 Pad Start*
G54D10*
G01X2857500Y139700D03*
G54D11*
G01X2857500Y393700D03*
G01X2857500Y647700D03*
G01X2857500Y901700D03*
G01X2857500Y1155700D03*
G01X2857500Y1409700D03*
G01X2857500Y1663700D03*
G01X2857500Y1917700D03*
G01X2857500Y2171700D03*
G01X2857500Y2425700D03*
G01X2857500Y2679700D03*
G01X2857500Y2933700D03*
G01X2857500Y3187700D03*
G01X2857500Y3441700D03*
G01X2857500Y3695700D03*
G01X2857500Y3949700D03*
G01X2857500Y4203700D03*
G01X2857500Y4457700D03*
G01X2857500Y4711700D03*
G01X2857500Y4965700D03*
G01X2857500Y5219700D03*
G01X2857500Y5473700D03*
G54D10*
G01X139700Y5473700D03*
G54D11*
G01X139700Y5219700D03*
G01X139700Y4965700D03*
G01X139700Y4711700D03*
G01X139700Y4457700D03*
G01X139700Y4203700D03*
G01X139700Y3949700D03*
G01X139700Y3695700D03*
G01X139700Y3441700D03*
G01X139700Y3187700D03*
G01X139700Y2933700D03*
G01X139700Y2679700D03*
G01X139700Y2425700D03*
G01X139700Y2171700D03*
G01X139700Y1917700D03*
G01X139700Y1663700D03*
G01X139700Y1409700D03*
G01X139700Y1155700D03*
G01X139700Y901700D03*
G01X139700Y647700D03*
G01X139700Y393700D03*
G01X139700Y139700D03*
G54D12*
G01X1320991Y5342636D03*
G54D13*
G01X1320991Y4924628D03*
G01X457010Y4924628D03*
G54D12*
G01X457010Y5342636D03*
G01X2540191Y5342636D03*
G54D13*
G01X2540191Y4924628D03*
G01X1676210Y4924628D03*
G54D12*
G01X1676210Y5342636D03*
G54D14*
G01X2336800Y3225800D03*
G04 Pad End*

G04 Via Start*
G54D15*
G01X1491389Y1886828D03*
G01X1420679Y1816118D03*
G01X1632775Y1745407D03*
G01X1562082Y1674715D03*
G01X1562100Y1957539D03*
G01X1703521Y1816118D03*
G01X1562100Y1816118D03*
G01X1632739Y1886828D03*
G01X1491389Y1745407D03*
G54D17*
G01X1552998Y2193502D03*
G01X1545530Y2349500D03*
G01X1365218Y2216321D03*
G01X1435100Y2044700D03*
G01X1301648Y2260515D03*
G01X1265500Y2371702D03*
G01X1308100Y1917700D03*
G01X1147985Y2026817D03*
G01X1244600Y1866900D03*
G01X1074842Y1931921D03*
G01X1066800Y1790700D03*
G01X1051481Y1597700D03*
G01X1172707Y1562251D03*
G01X1224359Y1506141D03*
G01X1327757Y1702953D03*
G01X1397000Y1625600D03*
G01X1206559Y1358761D03*
G01X1460500Y1562100D03*
G01X1365086Y1409700D03*
G01X1524000Y1485900D03*
G01X1816100Y1308100D03*
G01X1612900Y1511300D03*
G01X1778000Y1409700D03*
G01X1701800Y1587500D03*
G01X1866900Y1485900D03*
G01X1752600Y1651000D03*
G01X1930400Y1574800D03*
G01X1828800Y1727200D03*
G01X2006600Y1574800D03*
G01X1892300Y1803400D03*
G01X2049375Y1709825D03*
G01X2044700Y1816100D03*
G01X2070100Y1955800D03*
G01X1847045Y1878609D03*
G01X2019300Y2019300D03*
G01X1943100Y2032000D03*
G01X1797237Y1936563D03*
G01X1729477Y1996177D03*
G01X1854200Y2120900D03*
G01X1676400Y2057400D03*
G01X1859300Y2298621D03*
G01X1612900Y2120900D03*
G01X1736079Y2293089D03*
G01X1616055Y2403536D03*
G01X469900Y1295400D03*
G01X1368178Y961778D03*
G01X977900Y355600D03*
G01X2070100Y939800D03*
G01X2476500Y1295400D03*
G01X1816197Y2539903D03*
G01X850900Y1282700D03*
G01X850900Y736600D03*
G01X2095500Y1612900D03*
G01X2692400Y1468100D03*
G01X2286020Y2457430D03*
G01X1808500Y2667000D03*
G01X2095500Y4978400D03*
G01X1684000Y2676432D03*
G01X1587500Y2661900D03*
G01X1752600Y2743200D03*
G01X2260600Y4991100D03*
G01X1892300Y4724400D03*
G01X1981200Y4622800D03*
G01X2032000Y3848100D03*
G01X1277600Y2578100D03*
G01X546100Y1841500D03*
G01X946554Y1675996D03*
G01X2278400Y3646150D03*
G01X2513350Y3696950D03*
G01X1898790Y723900D03*
G01X1758810Y406400D03*
G01X1758810Y76200D03*
G01X1206500Y165100D03*
G01X1028700Y60500D03*
G01X717550Y4171950D03*
G01X825500Y4749800D03*
G01X279400Y4292600D03*
G01X279400Y3898900D03*
G01X368300Y4013200D03*
G01X292100Y3771900D03*
G01X852878Y2040132D03*
G01X952500Y1054100D03*
G01X990600Y1257300D03*
G01X1194183Y2088382D03*
G01X914400Y3340100D03*
G01X517170Y2933700D03*
G01X391729Y3258513D03*
G01X889000Y2705100D03*
G01X2311400Y1778000D03*
G01X850900Y215900D03*
G01X1638300Y990600D03*
G01X1727200Y1333500D03*
G01X675218Y3365500D03*
G01X652810Y2904497D03*
G01X952500Y4991100D03*
G01X2019300Y4737100D03*
G01X431800Y2514600D03*
G01X729011Y2890679D03*
G01X2057400Y4203700D03*
G01X1143000Y3365500D03*
G01X558800Y2120900D03*
G01X342900Y1803400D03*
G01X1879600Y3276600D03*
G01X1320800Y3238500D03*
G01X330200Y2374900D03*
G01X952500Y2578100D03*
G01X525308Y3403600D03*
G01X1404600Y2959100D03*
G01X1079500Y3530600D03*
G01X2486005Y3025795D03*
G01X2552700Y2743200D03*
G01X901700Y3035300D03*
G01X368300Y2819400D03*
G01X1219200Y2811269D03*
G01X1117600Y1003300D03*
G01X609600Y228600D03*
G01X711200Y939800D03*
G01X1231900Y2222500D03*
G01X800100Y2387600D03*
G01X1143000Y4533900D03*
G01X825500Y4660900D03*
G01X1270000Y3454400D03*
G01X876300Y3175000D03*
G01X733619Y3267096D03*
G01X1397000Y2344931D03*
G01X457200Y1536700D03*
G01X2598608Y2452599D03*
G01X2514600Y2082800D03*
G54D15*
G01X761221Y1877847D03*
G54D17*
G01X796250Y1647880D03*
G01X1168400Y4699000D03*
G01X2179438Y1336890D03*
G01X2286000Y1168400D03*
G01X1853721Y2421788D03*
G01X2146300Y2324100D03*
G01X1104900Y1676400D03*
G04 Via End*

G04 Track Start*
G54D18*
G01X1671300Y1535490D02*
G01X1671300Y1487110D01*
G01X1637090Y1452900D01*
G01X1586209Y1452900D01*
G01X1516400Y1383090D01*
G01X1516400Y1334710D01*
G01X1562082Y1289028D01*
G01X1562082Y1155682D01*
G01X1368178Y961778D02*
G01X1368178Y644278D01*
G01X1079500Y355600D01*
G01X977900Y355600D01*
G01X1562082Y1155682D02*
G01X1492250Y1085850D01*
G01X1368178Y961778D01*
G01X1924050Y1085850D02*
G01X1492250Y1085850D01*
G01X2095500Y914400D02*
G01X2184400Y914400D01*
G01X2476500Y1206500D01*
G01X2476500Y1295400D01*
G01X2070100Y939800D02*
G01X2095500Y914400D01*
G01X2070100Y939800D02*
G01X1924050Y1085850D01*
G01X457010Y5342636D02*
G01X1320991Y5342636D01*
G01X2044700Y1816100D02*
G01X2654300Y2425700D01*
G01X2857500Y2425700D01*
G01X2552700Y1612900D02*
G01X2857500Y1917700D01*
G01X2049375Y1709825D02*
G01X2395625Y1709825D01*
G01X2857500Y2171700D01*
G01X1990975Y1685634D02*
G01X1990975Y1704725D01*
G01X1892300Y1803400D01*
G01X2063710Y1612900D02*
G01X1990975Y1685634D01*
G01X2095500Y1612900D02*
G01X2063710Y1612900D01*
G01X2095500Y1612900D02*
G01X2552700Y1612900D01*
G01X1808500Y1461710D02*
G01X1808500Y1510090D01*
G01X1872000Y1573590D01*
G01X1872000Y1598990D01*
G01X1906210Y1633200D01*
G01X1906210Y1649790D01*
G01X1828800Y1727200D01*
G01X2857500Y1409700D02*
G01X1860510Y1409700D01*
G01X1808500Y1461710D01*
G01X2768600Y1574800D02*
G01X2857500Y1663700D01*
G01X2006600Y1574800D02*
G01X2051010Y1574800D01*
G01X2071310Y1554500D01*
G01X2119690Y1554500D01*
G01X2139990Y1574800D01*
G01X2768600Y1574800D01*
G01X1930400Y1574800D02*
G01X1948200Y1557000D01*
G01X1948200Y1550610D01*
G01X1982410Y1516400D01*
G01X2636500Y1516400D01*
G01X2692400Y1460500D01*
G01X2019300Y2019300D02*
G01X2749600Y2749600D01*
G01X2749600Y2978394D01*
G01X2857500Y3086294D01*
G01X2857500Y3187700D01*
G01X2857500Y3441700D02*
G01X2857500Y3340294D01*
G01X2714000Y3196794D01*
G01X2714000Y2790200D01*
G01X1955800Y2032000D02*
G01X1943100Y2032000D01*
G01X2001500Y2077700D02*
G01X1995110Y2077700D01*
G01X1960900Y2043490D01*
G01X1960900Y2037100D01*
G01X1955800Y2032000D01*
G01X2714000Y2790200D02*
G01X2001500Y2077700D01*
G01X2857500Y3695700D02*
G01X2857500Y3594294D01*
G01X1918910Y2090400D02*
G01X1884700Y2056190D01*
G01X1884700Y2024027D01*
G01X1797237Y1936563D01*
G01X2857500Y3594294D02*
G01X1918910Y2655703D01*
G01X1918910Y2090400D01*
G01X2857500Y4711700D02*
G01X2857500Y4610294D01*
G01X2707600Y4460394D02*
G01X2707600Y3583900D01*
G01X2537500Y3413800D01*
G01X2283954Y3413800D01*
G01X2857500Y4610294D02*
G01X2707600Y4460394D01*
G01X2283954Y3413800D02*
G01X1857154Y2987000D01*
G01X1856700Y2987000D01*
G01X1831300Y2961600D01*
G01X1831300Y2689800D01*
G01X1808500Y2667000D01*
G01X1790700Y2971800D02*
G01X1790700Y2781300D01*
G01X1752600Y2743200D01*
G01X2857500Y4965700D02*
G01X2743200Y4851400D01*
G01X2743200Y4546600D01*
G01X1555750Y2693650D02*
G01X1555750Y2711450D01*
G01X2292350Y3587750D02*
G01X2546350Y3587750D01*
G01X2571750Y3613150D01*
G01X1587500Y2661900D02*
G01X1555750Y2693650D01*
G01X2794000Y5473700D02*
G01X2857500Y5473700D01*
G01X2571750Y3613150D02*
G01X2571750Y4791021D01*
G01X2618091Y4837361D01*
G01X2618091Y5011895D01*
G01X2571750Y5058236D01*
G01X2571750Y5224028D01*
G01X2618091Y5270369D01*
G01X2618091Y5297791D01*
G01X2794000Y5473700D01*
G01X2692400Y5054600D02*
G01X2857500Y5219700D01*
G01X2616200Y4521200D02*
G01X2692400Y4597400D01*
G01X2616200Y3632200D02*
G01X2616200Y4521200D01*
G01X2692400Y4597400D02*
G01X2692400Y5054600D01*
G01X2743200Y4546600D02*
G01X2672000Y4475400D01*
G01X2672000Y3599554D01*
G01X2526846Y3454400D01*
G01X2272869Y3454400D01*
G01X1790700Y2971800D01*
G01X2607350Y3623350D02*
G01X2616200Y3632200D01*
G01X2607350Y3598404D02*
G01X2607350Y3623350D01*
G01X2498946Y3490000D02*
G01X2607350Y3598404D01*
G01X2258123Y3490000D02*
G01X2498946Y3490000D01*
G01X1778023Y3009900D02*
G01X2258123Y3490000D01*
G01X1765300Y3009900D02*
G01X1778023Y3009900D01*
G01X1555750Y2711450D02*
G01X1676400Y2832100D01*
G01X1676400Y2971800D01*
G01X2292350Y3587750D01*
G01X1684000Y2676432D02*
G01X1694200Y2686631D01*
G01X1694200Y2767390D01*
G01X1755100Y2828290D01*
G01X1755100Y2986546D01*
G01X1765300Y2996746D01*
G01X1765300Y3009900D01*
G01X1981200Y4622800D02*
G01X1981200Y3898900D01*
G01X2032000Y3848100D01*
G54D19*
G01X546100Y1841500D02*
G01X661650Y1725950D01*
G54D18*
G01X139700Y3949700D02*
G01X259100Y3830300D01*
G01X316290Y3830300D01*
G01X139700Y3441700D02*
G01X228600Y3441700D01*
G01X279400Y3492500D01*
G01X292554Y3492500D01*
G54D19*
G01X139700Y2679700D02*
G01X904200Y1915200D01*
G01X904200Y1820364D01*
G54D18*
G01X139700Y2425700D02*
G01X487700Y2077700D01*
G01X487700Y1817310D01*
G01X139700Y2171700D02*
G01X452100Y1859300D01*
G01X452100Y1802564D01*
G01X750964Y1503700D01*
G01X139700Y1409700D02*
G01X1155619Y1409700D01*
G01X1206559Y1358761D01*
G01X139700Y1155700D02*
G01X358233Y1155700D01*
G01X378240Y1175706D01*
G01X378240Y1201106D01*
G01X411500Y1234367D01*
G01X411500Y1319590D01*
G01X466010Y1374100D01*
G01X1140873Y1374100D02*
G01X1148158Y1366815D01*
G01X1148158Y1334571D01*
G01X1182368Y1300361D01*
G01X1230749Y1300361D01*
G01X1264959Y1334571D01*
G01X1264959Y1366559D01*
G01X1306686Y1408286D01*
G01X1306686Y1433890D01*
G01X1340896Y1468100D01*
G01X1366500Y1468100D01*
G01X1460500Y1562100D01*
G01X466010Y1374100D02*
G01X1140873Y1374100D01*
G01X139700Y901700D02*
G01X558800Y901700D01*
G01X711200Y1054100D01*
G01X952500Y1054100D01*
G01X889000Y2835404D02*
G01X889000Y2705100D01*
G01X1143000Y3365500D02*
G01X1997750Y3365500D01*
G01X2278400Y3646150D01*
G01X391729Y3258513D02*
G01X465891Y3258513D01*
G01X889000Y2835404D01*
G01X139700Y5219700D02*
G01X379109Y4980291D01*
G01X379109Y4837361D01*
G01X1118810Y3307100D02*
G01X1167190Y3307100D01*
G01X1189990Y3329900D01*
G01X1826300Y3329900D01*
G01X1879600Y3276600D01*
G01X379109Y4837361D02*
G01X1020065Y4196405D01*
G01X1020065Y3405844D01*
G01X1118810Y3307100D01*
G01X316290Y3830300D02*
G01X1125300Y3021291D01*
G01X733619Y3267096D02*
G01X784204Y3267096D01*
G01X876300Y3175000D01*
G01X1125300Y3021291D02*
G01X1125300Y2074873D01*
G01X1135783Y2064390D01*
G01X1135783Y2039019D01*
G01X1147985Y2026817D01*
G01X355600Y1447800D02*
G01X139700Y1663700D01*
G01X1397000Y1625600D02*
G01X1397000Y1574550D01*
G01X1270250Y1447800D01*
G01X355600Y1447800D01*
G01X750964Y1503700D02*
G01X1221919Y1503700D01*
G01X1224359Y1506141D01*
G01X487700Y1817310D02*
G01X765710Y1539300D01*
G01X1149755Y1539300D01*
G01X1172556Y1562100D01*
G54D19*
G01X661650Y1725950D02*
G01X896600Y1725950D01*
G01X946554Y1675996D01*
G54D18*
G01X139700Y3187700D02*
G01X995700Y2331700D01*
G01X292554Y3492500D02*
G01X1059180Y2725874D01*
G54D20*
G01X1205290Y1973600D02*
G01X1256090Y2024400D01*
G01X1268790Y2024400D01*
G01X1270000Y2023190D01*
G01X139700Y3695700D02*
G01X177800Y3695700D01*
G01X471987Y3401513D01*
G01X471987Y3381514D01*
G01X891520Y2981980D02*
G01X1094780Y2778720D01*
G01X1094780Y2049018D01*
G01X1094664Y2048903D02*
G01X1094664Y2004731D01*
G01X1125899Y1973497D01*
G01X1205290Y1973600D01*
G01X1270000Y2023190D02*
G01X1270000Y1955006D01*
G01X1254780Y1939786D01*
G01X471987Y3381514D02*
G01X871522Y2981980D01*
G01X891520Y2981980D01*
G54D18*
G01X995700Y2331700D02*
G01X995700Y1861800D01*
G01X1066800Y1790700D01*
G01X1059180Y2725874D02*
G01X1059180Y1947583D01*
G01X1074842Y1931921D01*
G01X2743200Y3569154D02*
G01X2552246Y3378200D01*
G01X2298700Y3378200D01*
G01X2120900Y3200400D01*
G01X2120900Y3086100D01*
G01X1866900Y2832100D01*
G01X1866900Y2642810D01*
G01X1832690Y2608600D01*
G01X1802304Y2608600D01*
G01X1757797Y2564093D01*
G01X1757797Y2511068D01*
G01X1674455Y2427726D01*
G01X1674455Y2379345D01*
G01X1734800Y2033210D02*
G01X1729477Y2027887D01*
G01X1729477Y1996177D01*
G01X2857500Y3949700D02*
G01X2743200Y3835400D01*
G01X2743200Y3569154D01*
G01X1674455Y2379345D02*
G01X1596389Y2301279D01*
G01X1596389Y2274611D01*
G01X1734800Y2136199D01*
G01X1734800Y2033210D01*
G01X1282700Y876300D02*
G01X1257300Y876300D01*
G01X1239339Y894261D01*
G01X1239339Y919661D01*
G01X1371600Y1051921D01*
G01X1371600Y1092200D01*
G01X1289050Y1174750D01*
G01X1263650Y1174750D01*
G01X1168400Y1079500D01*
G01X1368179Y961779D02*
G01X1282700Y876300D01*
G01X1168400Y1079500D02*
G01X1009690Y1079500D01*
G01X976690Y1112500D01*
G01X719254Y1112500D01*
G01X536355Y1295400D01*
G01X469900Y1295400D01*
G54D20*
G01X1254780Y1877080D02*
G01X1244600Y1866900D01*
G01X1254780Y1939786D02*
G01X1254780Y1877080D01*
G54D18*
G01X1562100Y1732300D02*
G01X1545999Y1716198D01*
G01X1562100Y1816100D02*
G01X1562100Y1732300D01*
G01X1562100Y1816118D02*
G01X1703521Y1816118D01*
G01X1562100Y1957539D02*
G01X1562100Y1816118D01*
G01X1545999Y1690798D02*
G01X1562082Y1674715D01*
G01X1545999Y1716198D02*
G01X1545999Y1690798D01*
G01X1562082Y1644708D02*
G01X1671300Y1535490D01*
G01X1562082Y1674715D02*
G01X1562082Y1644708D01*
G01X1632775Y1745407D02*
G01X1703467Y1816100D01*
G54D19*
G01X904200Y1820364D02*
G01X1051481Y1673083D01*
G01X1051481Y1597700D01*
G01X127000Y2946400D02*
G01X101600Y2946400D01*
G01X101600Y2946400D02*
G01X78306Y2923106D01*
G01X78306Y2923106D02*
G01X114227Y2887185D01*
G01X132825Y2887185D01*
G01X1067849Y1689100D02*
G01X1085810Y1689100D01*
G01X139700Y2933700D02*
G01X127000Y2946400D01*
G01X1085810Y1689100D02*
G01X1104900Y1676400D01*
G01X132825Y2887185D02*
G01X483850Y2536160D01*
G01X483850Y2491746D01*
G01X927100Y1829849D02*
G01X1067849Y1689100D01*
G01X928466Y2004010D02*
G01X927100Y2002644D01*
G01X927100Y1829849D01*
G01X483850Y2491746D02*
G01X928466Y2047130D01*
G01X928466Y2004010D01*
G04 Track End*

M02*

